0
SECTION
2
HEADER
0
ENDSEC
0
SECTION
2
TABLES
0
TABLE
2
LTYPE
0
LTYPE
72
65
70
64
2
CONTINUOUS
3
______
73
0
40
0
0
ENDTAB
0
TABLE
2
LAYER
0
ENDTAB
0
ENDSEC
0
SECTION
2
ENTITIES
0
CIRCLE
8
0
10
10
20
0
40
2
0
CIRCLE
8
0
10
10
20
0
40
2
0
LINE
8
layer0
10
0.1645422
20
-4.5098935
11
0.2946163
21
-4.3362392
0
LINE
8
layer0
10
0.2946163
20
-4.3362392
11
0.4206381
21
-4.1819235
0
LINE
8
layer0
10
0.4206381
20
-4.1819235
11
0.5423412
21
-4.0449618
0
LINE
8
layer0
10
0.5423412
20
-4.0449618
11
0.659223
21
-3.9240663
0
LINE
8
layer0
10
0.659223
20
-3.9240663
11
0.7679651
21
-3.8206412
0
LINE
8
layer0
10
0.7679651
20
-3.8206412
11
0.8694359
21
-3.7319228
0
LINE
8
layer0
10
0.8694359
20
-3.7319228
11
0.9601958
21
-3.6590393
0
LINE
8
layer0
10
0.9601958
20
-3.6590393
11
1.0410483
21
-3.5994479
0
LINE
8
layer0
10
1.0410483
20
-3.5994479
11
1.1104764
21
-3.55259
0
LINE
8
layer0
10
1.1104764
20
-3.55259
11
1.2148063
21
-3.4909221
0
LINE
8
layer0
10
1.2148063
20
-3.4909221
11
1.3214152
21
-3.4397958
0
LINE
8
layer0
10
1.3214152
20
-3.4397958
11
1.4184011
21
-3.3849091
0
LINE
8
layer0
10
1.4184011
20
-3.3849091
11
1.4956579
21
-3.3286521
0
LINE
8
layer0
10
1.4956579
20
-3.3286521
11
1.5269102
21
-3.300507
0
LINE
8
layer0
10
1.5269102
20
-3.300507
11
1.5532749
21
-3.2725937
0
LINE
8
layer0
10
1.5532749
20
-3.2725937
11
1.5747663
21
-3.2451178
0
LINE
8
layer0
10
1.5747663
20
-3.2451178
11
1.591427
21
-3.2182756
0
LINE
8
layer0
10
1.591427
20
-3.2182756
11
1.6032907
21
-3.192235
0
LINE
8
layer0
10
1.6032907
20
-3.192235
11
1.6104031
21
-3.1672019
0
LINE
8
layer0
10
1.6104031
20
-3.1672019
11
1.6128136
21
-3.1433601
0
LINE
8
layer0
10
1.6128136
20
-3.1433601
11
1.6105712
21
-3.1208935
0
LINE
8
layer0
10
1.6105712
20
-3.1208935
11
1.6058752
21
-3.1050491
0
LINE
8
layer0
10
1.6058752
20
-3.1050491
11
1.555385
21
-2.9650599
0
LINE
8
layer0
10
1.555385
20
-2.9650599
11
1.4880442
21
-2.7657021
0
LINE
8
layer0
10
1.4880442
20
-2.7657021
11
1.4253445
21
-2.5648363
0
LINE
8
layer0
10
1.4253445
20
-2.5648363
11
1.3839083
21
-2.4219052
0
LINE
8
layer0
10
1.3839083
20
-2.4219052
11
1.3783944
21
-2.4063267
0
LINE
8
layer0
10
1.3783944
20
-2.4063267
11
1.3670029
21
-2.3868327
0
LINE
8
layer0
10
1.3670029
20
-2.3868327
11
1.351039
21
-2.3689612
0
LINE
8
layer0
10
1.351039
20
-2.3689612
11
1.3305708
21
-2.3528896
0
LINE
8
layer0
10
1.3305708
20
-2.3528896
11
1.3056666
21
-2.3387956
0
LINE
8
layer0
10
1.3056666
20
-2.3387956
11
1.2764103
21
-2.3268727
0
LINE
8
layer0
10
1.2764103
20
-2.3268727
11
1.2428735
21
-2.3172765
0
LINE
8
layer0
10
1.2428735
20
-2.3172765
11
1.205137
21
-2.3101909
0
LINE
8
layer0
10
1.205137
20
-2.3101909
11
1.1633101
21
-2.3057908
0
LINE
8
layer0
10
1.1633101
20
-2.3057908
11
1.067741
21
-2.3056883
0
LINE
8
layer0
10
1.067741
20
-2.3056883
11
0.9570162
21
-2.3182909
0
LINE
8
layer0
10
0.9570162
20
-2.3182909
11
0.8407165
21
-2.3395921
0
LINE
8
layer0
10
0.8407165
20
-2.3395921
11
0.7200644
21
-2.3510252
0
LINE
8
layer0
10
0.7200644
20
-2.3510252
11
0.6363534
21
-2.3539252
0
LINE
8
layer0
10
0.6363534
20
-2.3539252
11
0.5359155
21
-2.3532387
0
LINE
8
layer0
10
0.5359155
20
-2.3532387
11
0.4196493
21
-2.347622
0
LINE
8
layer0
10
0.4196493
20
-2.347622
11
0.2854103
21
-2.3354903
0
LINE
8
layer0
10
0.2854103
20
-2.3354903
11
0.1366444
21
-2.3157346
0
LINE
8
layer0
10
0.1366444
20
-2.3157346
11
-0.0289756
21
-2.2866295
0
LINE
8
layer0
10
-0.0289756
20
-2.2866295
11
-0.2079396
21
-2.2473604
0
LINE
8
layer0
10
-0.2079396
20
-2.2473604
11
-0.4005978
21
-2.1965902
0
LINE
8
layer0
10
-0.4005978
20
-2.1965902
11
-0.6079014
21
-2.1325566
0
LINE
8
layer0
10
-0.6079014
20
-2.1325566
11
-0.8048177
21
-2.062905
0
ARC
8
layer0
10
10.0000151
20
0.0000027
40
11
50
187.1909186
51
190.8090848
0
LINE
8
layer0
10
-0.913465
20
-1.376933
11
-0.74771
21
-1.24984
0
LINE
8
layer0
10
-0.74771
20
-1.24984
11
-0.57034
21
-1.12488
0
LINE
8
layer0
10
-0.57034
20
-1.12488
11
-0.4028
21
-1.01706
0
LINE
8
layer0
10
-0.4028
20
-1.01706
11
-0.24473
21
-0.92441
0
LINE
8
layer0
10
-0.24473
20
-0.92441
11
-0.09621
21
-0.84555
0
LINE
8
layer0
10
-0.09621
20
-0.84555
11
0.03917
21
-0.78079
0
LINE
8
layer0
10
0.03917
20
-0.78079
11
0.16309
21
-0.72777
0
LINE
8
layer0
10
0.16309
20
-0.72777
11
0.27193
21
-0.6865
0
LINE
8
layer0
10
0.27193
20
-0.6865
11
0.36724
21
-0.65481
0
LINE
8
layer0
10
0.36724
20
-0.65481
11
0.44775
21
-0.6317
0
LINE
8
layer0
10
0.44775
20
-0.6317
11
0.56603
21
-0.60529
0
LINE
8
layer0
10
0.56603
20
-0.60529
11
0.68322
21
-0.58961
0
LINE
8
layer0
10
0.68322
20
-0.58961
11
0.79242
21
-0.56738
0
LINE
8
layer0
10
0.79242
20
-0.56738
11
0.88328
21
-0.53775
0
LINE
8
layer0
10
0.88328
20
-0.53775
11
0.9217
21
-0.52064
0
LINE
8
layer0
10
0.9217
20
-0.52064
11
0.9554
21
-0.50224
0
LINE
8
layer0
10
0.9554
20
-0.50224
11
0.98433
21
-0.48275
0
LINE
8
layer0
10
0.98433
20
-0.48275
11
1.00847
21
-0.46237
0
LINE
8
layer0
10
1.00847
20
-0.46237
11
1.0278
21
-0.44127
0
LINE
8
layer0
10
1.0278
20
-0.44127
11
1.0423
21
-0.41966
0
LINE
8
layer0
10
1.0423
20
-0.41966
11
1.05196
21
-0.39773
0
LINE
8
layer0
10
1.05196
20
-0.39773
11
1.05677
21
-0.37567
0
LINE
8
layer0
10
1.05677
20
-0.37567
11
1.0572
21
-0.35915
0
LINE
8
layer0
10
1.0572
20
-0.35915
11
1.05244
21
-0.21041
0
LINE
8
layer0
10
1.05244
20
-0.21041
11
1.05
21
0
0
LINE
8
layer0
10
1.05
20
0
11
1.05244
21
0.21041
0
LINE
8
layer0
10
1.05244
20
0.21041
11
1.0572
21
0.35915
0
LINE
8
layer0
10
1.0572
20
0.35915
11
1.05677
21
0.37567
0
LINE
8
layer0
10
1.05677
20
0.37567
11
1.05196
21
0.39773
0
LINE
8
layer0
10
1.05196
20
0.39773
11
1.0423
21
0.41966
0
LINE
8
layer0
10
1.0423
20
0.41966
11
1.0278
21
0.44127
0
LINE
8
layer0
10
1.0278
20
0.44127
11
1.00847
21
0.46237
0
LINE
8
layer0
10
1.00847
20
0.46237
11
0.98433
21
0.48275
0
LINE
8
layer0
10
0.98433
20
0.48275
11
0.9554
21
0.50224
0
LINE
8
layer0
10
0.9554
20
0.50224
11
0.9217
21
0.52064
0
LINE
8
layer0
10
0.9217
20
0.52064
11
0.88328
21
0.53775
0
LINE
8
layer0
10
0.88328
20
0.53775
11
0.79242
21
0.56738
0
LINE
8
layer0
10
0.79242
20
0.56738
11
0.68322
21
0.58961
0
LINE
8
layer0
10
0.68322
20
0.58961
11
0.56603
21
0.60529
0
LINE
8
layer0
10
0.56603
20
0.60529
11
0.44775
21
0.6317
0
LINE
8
layer0
10
0.44775
20
0.6317
11
0.36724
21
0.65481
0
LINE
8
layer0
10
0.36724
20
0.65481
11
0.27193
21
0.6865
0
LINE
8
layer0
10
0.27193
20
0.6865
11
0.16309
21
0.72777
0
LINE
8
layer0
10
0.16309
20
0.72777
11
0.03917
21
0.78079
0
LINE
8
layer0
10
0.03917
20
0.78079
11
-0.09621
21
0.84555
0
LINE
8
layer0
10
-0.09621
20
0.84555
11
-0.24473
21
0.92441
0
LINE
8
layer0
10
-0.24473
20
0.92441
11
-0.4028
21
1.01706
0
LINE
8
layer0
10
-0.4028
20
1.01706
11
-0.57034
21
1.12488
0
LINE
8
layer0
10
-0.57034
20
1.12488
11
-0.74771
21
1.24984
0
LINE
8
layer0
10
-0.74771
20
1.24984
11
-0.913465
21
1.376933
0
ARC
8
layer0
10
10.0000151
20
-0.0000029
40
11
50
169.1909147
51
172.8090809
0
LINE
8
layer0
10
-0.8048177
20
2.062905
11
-0.6079014
21
2.1325566
0
LINE
8
layer0
10
-0.6079014
20
2.1325566
11
-0.4005978
21
2.1965902
0
LINE
8
layer0
10
-0.4005978
20
2.1965902
11
-0.2079396
21
2.2473604
0
LINE
8
layer0
10
-0.2079396
20
2.2473604
11
-0.0289756
21
2.2866295
0
LINE
8
layer0
10
-0.0289756
20
2.2866295
11
0.1366444
21
2.3157346
0
LINE
8
layer0
10
0.1366444
20
2.3157346
11
0.2854103
21
2.3354903
0
LINE
8
layer0
10
0.2854103
20
2.3354903
11
0.4196493
21
2.347622
0
LINE
8
layer0
10
0.4196493
20
2.347622
11
0.5359155
21
2.3532387
0
LINE
8
layer0
10
0.5359155
20
2.3532387
11
0.6363534
21
2.3539252
0
LINE
8
layer0
10
0.6363534
20
2.3539252
11
0.7200644
21
2.3510252
0
LINE
8
layer0
10
0.7200644
20
2.3510252
11
0.8407165
21
2.3395921
0
LINE
8
layer0
10
0.8407165
20
2.3395921
11
0.9570162
21
2.3182909
0
LINE
8
layer0
10
0.9570162
20
2.3182909
11
1.067741
21
2.3056883
0
LINE
8
layer0
10
1.067741
20
2.3056883
11
1.1633101
21
2.3057908
0
LINE
8
layer0
10
1.1633101
20
2.3057908
11
1.205137
21
2.3101909
0
LINE
8
layer0
10
1.205137
20
2.3101909
11
1.2428735
21
2.3172765
0
LINE
8
layer0
10
1.2428735
20
2.3172765
11
1.2764103
21
2.3268727
0
LINE
8
layer0
10
1.2764103
20
2.3268727
11
1.3056666
21
2.3387956
0
LINE
8
layer0
10
1.3056666
20
2.3387956
11
1.3305708
21
2.3528896
0
LINE
8
layer0
10
1.3305708
20
2.3528896
11
1.351039
21
2.3689612
0
LINE
8
layer0
10
1.351039
20
2.3689612
11
1.3670029
21
2.3868327
0
LINE
8
layer0
10
1.3670029
20
2.3868327
11
1.3783944
21
2.4063267
0
LINE
8
layer0
10
1.3783944
20
2.4063267
11
1.3839083
21
2.4219052
0
LINE
8
layer0
10
1.3839083
20
2.4219052
11
1.4253445
21
2.5648363
0
LINE
8
layer0
10
1.4253445
20
2.5648363
11
1.4880442
21
2.7657021
0
LINE
8
layer0
10
1.4880442
20
2.7657021
11
1.555385
21
2.9650599
0
LINE
8
layer0
10
1.555385
20
2.9650599
11
1.6058752
21
3.1050491
0
LINE
8
layer0
10
1.6058752
20
3.1050491
11
1.6105712
21
3.1208935
0
LINE
8
layer0
10
1.6105712
20
3.1208935
11
1.6128136
21
3.1433601
0
LINE
8
layer0
10
1.6128136
20
3.1433601
11
1.6104031
21
3.1672019
0
LINE
8
layer0
10
1.6104031
20
3.1672019
11
1.6032907
21
3.192235
0
LINE
8
layer0
10
1.6032907
20
3.192235
11
1.591427
21
3.2182756
0
LINE
8
layer0
10
1.591427
20
3.2182756
11
1.5747663
21
3.2451178
0
LINE
8
layer0
10
1.5747663
20
3.2451178
11
1.5532749
21
3.2725937
0
LINE
8
layer0
10
1.5532749
20
3.2725937
11
1.5269102
21
3.300507
0
LINE
8
layer0
10
1.5269102
20
3.300507
11
1.4956579
21
3.3286521
0
LINE
8
layer0
10
1.4956579
20
3.3286521
11
1.4184011
21
3.3849091
0
LINE
8
layer0
10
1.4184011
20
3.3849091
11
1.3214152
21
3.4397958
0
LINE
8
layer0
10
1.3214152
20
3.4397958
11
1.2148063
21
3.4909221
0
LINE
8
layer0
10
1.2148063
20
3.4909221
11
1.1104764
21
3.55259
0
LINE
8
layer0
10
1.1104764
20
3.55259
11
1.0410483
21
3.5994479
0
LINE
8
layer0
10
1.0410483
20
3.5994479
11
0.9601958
21
3.6590393
0
LINE
8
layer0
10
0.9601958
20
3.6590393
11
0.8694359
21
3.7319228
0
LINE
8
layer0
10
0.8694359
20
3.7319228
11
0.7679651
21
3.8206412
0
LINE
8
layer0
10
0.7679651
20
3.8206412
11
0.659223
21
3.9240663
0
LINE
8
layer0
10
0.659223
20
3.9240663
11
0.5423412
21
4.0449618
0
LINE
8
layer0
10
0.5423412
20
4.0449618
11
0.4206381
21
4.1819235
0
LINE
8
layer0
10
0.4206381
20
4.1819235
11
0.2946163
21
4.3362392
0
LINE
8
layer0
10
0.2946163
20
4.3362392
11
0.1645422
21
4.5098935
0
LINE
8
layer0
10
0.1645422
20
4.5098935
11
0.0461737
21
4.6819873
0
ARC
8
layer0
10
10.0000135
20
-0.0000073
40
11
50
151.190915
51
154.8090813
0
LINE
8
layer0
10
0.3614804
20
5.3008115
11
0.5702824
21
5.3062036
0
LINE
8
layer0
10
0.5702824
20
5.3062036
11
0.7872274
21
5.3030429
0
LINE
8
layer0
10
0.7872274
20
5.3030429
11
0.9861451
21
5.2917936
0
LINE
8
layer0
10
0.9861451
20
5.2917936
11
1.1684848
21
5.2738378
0
LINE
8
layer0
10
1.1684848
20
5.2738378
11
1.3349927
21
5.250339
0
LINE
8
layer0
10
1.3349927
20
5.250339
11
1.4825824
21
5.2231566
0
LINE
8
layer0
10
1.4825824
20
5.2231566
11
1.6140002
21
5.1932123
0
LINE
8
layer0
10
1.6140002
20
5.1932123
11
1.7263115
21
5.1626259
0
LINE
8
layer0
10
1.7263115
20
5.1626259
11
1.8220458
21
5.1322418
0
LINE
8
layer0
10
1.8220458
20
5.1322418
11
1.9007635
21
5.1036156
0
LINE
8
layer0
10
1.9007635
20
5.1036156
11
2.0119774
21
5.0554585
0
LINE
8
layer0
10
2.0119774
20
5.0554585
11
2.1160026
21
4.9992614
0
LINE
8
layer0
10
2.1160026
20
4.9992614
11
2.2174137
21
4.9530597
0
LINE
8
layer0
10
2.2174137
20
4.9530597
11
2.3083371
21
4.9236247
0
LINE
8
layer0
10
2.3083371
20
4.9236247
11
2.3494765
21
4.9148842
0
LINE
8
layer0
10
2.3494765
20
4.9148842
11
2.3875556
21
4.9099618
0
LINE
8
layer0
10
2.3875556
20
4.9099618
11
2.4224164
21
4.9087249
0
LINE
8
layer0
10
2.4224164
20
4.9087249
11
2.4539252
21
4.9110235
0
LINE
8
layer0
10
2.4539252
20
4.9110235
11
2.4819657
21
4.9167319
0
LINE
8
layer0
10
2.4819657
20
4.9167319
11
2.5063985
21
4.9256919
0
LINE
8
layer0
10
2.5063985
20
4.9256919
11
2.5271037
21
4.9377556
0
LINE
8
layer0
10
2.5271037
20
4.9377556
11
2.5439617
21
4.9527753
0
LINE
8
layer0
10
2.5439617
20
4.9527753
11
2.5540197
21
4.9658875
0
LINE
8
layer0
10
2.5540197
20
4.9658875
11
2.637596
21
5.0890185
0
LINE
8
layer0
10
2.637596
20
5.0890185
11
2.7592979
21
5.260678
0
LINE
8
layer0
10
2.7592979
20
5.260678
11
2.8849478
21
5.4294691
0
LINE
8
layer0
10
2.8849478
20
5.4294691
11
2.9762259
21
5.5470044
0
LINE
8
layer0
10
2.9762259
20
5.5470044
11
2.9855882
21
5.5606221
0
LINE
8
layer0
10
2.9855882
20
5.5606221
11
2.9946634
21
5.5812963
0
LINE
8
layer0
10
2.9946634
20
5.5812963
11
2.9997384
21
5.604716
0
LINE
8
layer0
10
2.9997384
20
5.604716
11
3.0007097
21
5.6307218
0
LINE
8
layer0
10
3.0007097
20
5.6307218
11
2.9974737
21
5.6591539
0
LINE
8
layer0
10
2.9974737
20
5.6591539
11
2.9899231
21
5.6898308
0
LINE
8
layer0
10
2.9899231
20
5.6898308
11
2.9779742
21
5.7226032
0
LINE
8
layer0
10
2.9779742
20
5.7226032
11
2.9615255
21
5.7572975
0
LINE
8
layer0
10
2.9615255
20
5.7572975
11
2.9405001
21
5.7937225
0
LINE
8
layer0
10
2.9405001
20
5.7937225
11
2.8844089
21
5.8710998
0
LINE
8
layer0
10
2.8844089
20
5.8710998
11
2.8091307
21
5.9532704
0
LINE
8
layer0
10
2.8091307
20
5.9532704
11
2.7235385
21
6.0348383
0
LINE
8
layer0
10
2.7235385
20
6.0348383
11
2.6433714
21
6.1257277
0
LINE
8
layer0
10
2.6433714
20
6.1257277
11
2.5918211
21
6.1917467
0
LINE
8
layer0
10
2.5918211
20
6.1917467
11
2.5333406
21
6.2734062
0
LINE
8
layer0
10
2.5333406
20
6.2734062
11
2.4695451
21
6.3707689
0
LINE
8
layer0
10
2.4695451
20
6.3707689
11
2.4004561
21
6.4865014
0
LINE
8
layer0
10
2.4004561
20
6.4865014
11
2.3289964
21
6.6184677
0
LINE
8
layer0
10
2.3289964
20
6.6184677
11
2.2551939
21
6.7695646
0
LINE
8
layer0
10
2.2551939
20
6.7695646
11
2.1817709
21
6.9374312
0
LINE
8
layer0
10
2.1817709
20
6.9374312
11
2.1096032
21
7.123137
0
LINE
8
layer0
10
2.1096032
20
7.123137
11
2.0395575
21
7.3284872
0
LINE
8
layer0
10
2.0395575
20
7.3284872
11
1.9801623
21
7.528736
0
ARC
8
layer0
10
10.0000109
20
-0.0000108
40
11
50
133.1909171
51
136.8090836
0
LINE
8
layer0
10
2.471264
20
8.0198377
11
2.6715128
21
7.9604425
0
LINE
8
layer0
10
2.6715128
20
7.9604425
11
2.876863
21
7.8903968
0
LINE
8
layer0
10
2.876863
20
7.8903968
11
3.0625688
21
7.8182291
0
LINE
8
layer0
10
3.0625688
20
7.8182291
11
3.2304354
21
7.7448061
0
LINE
8
layer0
10
3.2304354
20
7.7448061
11
3.3815323
21
7.6710036
0
LINE
8
layer0
10
3.3815323
20
7.6710036
11
3.5134986
21
7.5995439
0
LINE
8
layer0
10
3.5134986
20
7.5995439
11
3.6292311
21
7.5304549
0
LINE
8
layer0
10
3.6292311
20
7.5304549
11
3.7265938
21
7.4666594
0
LINE
8
layer0
10
3.7265938
20
7.4666594
11
3.8082533
21
7.4081789
0
LINE
8
layer0
10
3.8082533
20
7.4081789
11
3.8742723
21
7.3566286
0
LINE
8
layer0
10
3.8742723
20
7.3566286
11
3.9651617
21
7.2764615
0
LINE
8
layer0
10
3.9651617
20
7.2764615
11
4.0467296
21
7.1908693
0
LINE
8
layer0
10
4.0467296
20
7.1908693
11
4.1289002
21
7.1155911
0
LINE
8
layer0
10
4.1289002
20
7.1155911
11
4.2062775
21
7.0594999
0
LINE
8
layer0
10
4.2062775
20
7.0594999
11
4.2427025
21
7.0384745
0
LINE
8
layer0
10
4.2427025
20
7.0384745
11
4.2773968
21
7.0220258
0
LINE
8
layer0
10
4.2773968
20
7.0220258
11
4.3101692
21
7.0100769
0
LINE
8
layer0
10
4.3101692
20
7.0100769
11
4.3408461
21
7.0025263
0
LINE
8
layer0
10
4.3408461
20
7.0025263
11
4.3692782
21
6.9992903
0
LINE
8
layer0
10
4.3692782
20
6.9992903
11
4.395284
21
7.0002616
0
LINE
8
layer0
10
4.395284
20
7.0002616
11
4.4187037
21
7.0053366
0
LINE
8
layer0
10
4.4187037
20
7.0053366
11
4.4393779
21
7.0144118
0
LINE
8
layer0
10
4.4393779
20
7.0144118
11
4.4529956
21
7.0237741
0
LINE
8
layer0
10
4.4529956
20
7.0237741
11
4.5705309
21
7.1150522
0
LINE
8
layer0
10
4.5705309
20
7.1150522
11
4.739322
21
7.2407021
0
LINE
8
layer0
10
4.739322
20
7.2407021
11
4.9109815
21
7.362404
0
LINE
8
layer0
10
4.9109815
20
7.362404
11
5.0341125
21
7.4459803
0
LINE
8
layer0
10
5.0341125
20
7.4459803
11
5.0472247
21
7.4560383
0
LINE
8
layer0
10
5.0472247
20
7.4560383
11
5.0622444
21
7.4728963
0
LINE
8
layer0
10
5.0622444
20
7.4728963
11
5.0743081
21
7.4936015
0
LINE
8
layer0
10
5.0743081
20
7.4936015
11
5.0832681
21
7.5180343
0
LINE
8
layer0
10
5.0832681
20
7.5180343
11
5.0889765
21
7.5460748
0
LINE
8
layer0
10
5.0889765
20
7.5460748
11
5.0912751
21
7.5775836
0
LINE
8
layer0
10
5.0912751
20
7.5775836
11
5.0900382
21
7.6124444
0
LINE
8
layer0
10
5.0900382
20
7.6124444
11
5.0851158
21
7.6505235
0
LINE
8
layer0
10
5.0851158
20
7.6505235
11
5.0763753
21
7.6916629
0
LINE
8
layer0
10
5.0763753
20
7.6916629
11
5.0469403
21
7.7825863
0
LINE
8
layer0
10
5.0469403
20
7.7825863
11
5.0007386
21
7.8839974
0
LINE
8
layer0
10
5.0007386
20
7.8839974
11
4.9445415
21
7.9880226
0
LINE
8
layer0
10
4.9445415
20
7.9880226
11
4.8963844
21
8.0992365
0
LINE
8
layer0
10
4.8963844
20
8.0992365
11
4.8677582
21
8.1779542
0
LINE
8
layer0
10
4.8677582
20
8.1779542
11
4.8373741
21
8.2736885
0
LINE
8
layer0
10
4.8373741
20
8.2736885
11
4.8067877
21
8.3859998
0
LINE
8
layer0
10
4.8067877
20
8.3859998
11
4.7768434
21
8.5174176
0
LINE
8
layer0
10
4.7768434
20
8.5174176
11
4.749661
21
8.6650073
0
LINE
8
layer0
10
4.749661
20
8.6650073
11
4.7261622
21
8.8315152
0
LINE
8
layer0
10
4.7261622
20
8.8315152
11
4.7082064
21
9.0138549
0
LINE
8
layer0
10
4.7082064
20
9.0138549
11
4.6969571
21
9.2127726
0
LINE
8
layer0
10
4.6969571
20
9.2127726
11
4.6937964
21
9.4297176
0
LINE
8
layer0
10
4.6937964
20
9.4297176
11
4.6991885
21
9.6385196
0
ARC
8
layer0
10
10.0000072
20
-0.0000135
40
11
50
115.1909182
51
118.8090845
0
LINE
8
layer0
10
5.3180127
20
9.9538263
11
5.4901065
21
9.8354578
0
LINE
8
layer0
10
5.4901065
20
9.8354578
11
5.6637608
21
9.7053837
0
LINE
8
layer0
10
5.6637608
20
9.7053837
11
5.8180765
21
9.5793619
0
LINE
8
layer0
10
5.8180765
20
9.5793619
11
5.9550382
21
9.4576588
0
LINE
8
layer0
10
5.9550382
20
9.4576588
11
6.0759337
21
9.340777
0
LINE
8
layer0
10
6.0759337
20
9.340777
11
6.1793588
21
9.2320349
0
LINE
8
layer0
10
6.1793588
20
9.2320349
11
6.2680772
21
9.1305641
0
LINE
8
layer0
10
6.2680772
20
9.1305641
11
6.3409607
21
9.0398042
0
LINE
8
layer0
10
6.3409607
20
9.0398042
11
6.4005521
21
8.9589517
0
LINE
8
layer0
10
6.4005521
20
8.9589517
11
6.44741
21
8.8895236
0
LINE
8
layer0
10
6.44741
20
8.8895236
11
6.5090779
21
8.7851937
0
LINE
8
layer0
10
6.5090779
20
8.7851937
11
6.5602042
21
8.6785848
0
LINE
8
layer0
10
6.5602042
20
8.6785848
11
6.6150909
21
8.5815989
0
LINE
8
layer0
10
6.6150909
20
8.5815989
11
6.6713479
21
8.5043421
0
LINE
8
layer0
10
6.6713479
20
8.5043421
11
6.699493
21
8.4730898
0
LINE
8
layer0
10
6.699493
20
8.4730898
11
6.7274063
21
8.4467251
0
LINE
8
layer0
10
6.7274063
20
8.4467251
11
6.7548822
21
8.4252337
0
LINE
8
layer0
10
6.7548822
20
8.4252337
11
6.7817244
21
8.408573
0
LINE
8
layer0
10
6.7817244
20
8.408573
11
6.807765
21
8.3967093
0
LINE
8
layer0
10
6.807765
20
8.3967093
11
6.8327981
21
8.3895969
0
LINE
8
layer0
10
6.8327981
20
8.3895969
11
6.8566399
21
8.3871864
0
LINE
8
layer0
10
6.8566399
20
8.3871864
11
6.8791065
21
8.3894288
0
LINE
8
layer0
10
6.8791065
20
8.3894288
11
6.8949509
21
8.3941248
0
LINE
8
layer0
10
6.8949509
20
8.3941248
11
7.0349401
21
8.444615
0
LINE
8
layer0
10
7.0349401
20
8.444615
11
7.2342979
21
8.5119558
0
LINE
8
layer0
10
7.2342979
20
8.5119558
11
7.4351637
21
8.5746555
0
LINE
8
layer0
10
7.4351637
20
8.5746555
11
7.5780948
21
8.6160917
0
LINE
8
layer0
10
7.5780948
20
8.6160917
11
7.5936733
21
8.6216056
0
LINE
8
layer0
10
7.5936733
20
8.6216056
11
7.6131673
21
8.6329971
0
LINE
8
layer0
10
7.6131673
20
8.6329971
11
7.6310388
21
8.648961
0
LINE
8
layer0
10
7.6310388
20
8.648961
11
7.6471104
21
8.6694292
0
LINE
8
layer0
10
7.6471104
20
8.6694292
11
7.6612044
21
8.6943334
0
LINE
8
layer0
10
7.6612044
20
8.6943334
11
7.6731273
21
8.7235897
0
LINE
8
layer0
10
7.6731273
20
8.7235897
11
7.6827235
21
8.7571265
0
LINE
8
layer0
10
7.6827235
20
8.7571265
11
7.6898091
21
8.794863
0
LINE
8
layer0
10
7.6898091
20
8.794863
11
7.6942092
21
8.8366899
0
LINE
8
layer0
10
7.6942092
20
8.8366899
11
7.6943117
21
8.932259
0
LINE
8
layer0
10
7.6943117
20
8.932259
11
7.6817091
21
9.0429838
0
LINE
8
layer0
10
7.6817091
20
9.0429838
11
7.6604079
21
9.1592835
0
LINE
8
layer0
10
7.6604079
20
9.1592835
11
7.6489748
21
9.2799356
0
LINE
8
layer0
10
7.6489748
20
9.2799356
11
7.6460748
21
9.3636466
0
LINE
8
layer0
10
7.6460748
20
9.3636466
11
7.6467613
21
9.4640845
0
LINE
8
layer0
10
7.6467613
20
9.4640845
11
7.652378
21
9.5803507
0
LINE
8
layer0
10
7.652378
20
9.5803507
11
7.6645097
21
9.7145897
0
LINE
8
layer0
10
7.6645097
20
9.7145897
11
7.6842654
21
9.8633556
0
LINE
8
layer0
10
7.6842654
20
9.8633556
11
7.7133705
21
10.0289756
0
LINE
8
layer0
10
7.7133705
20
10.0289756
11
7.7526396
21
10.2079396
0
LINE
8
layer0
10
7.7526396
20
10.2079396
11
7.8034098
21
10.4005978
0
LINE
8
layer0
10
7.8034098
20
10.4005978
11
7.8674434
21
10.6079014
0
LINE
8
layer0
10
7.8674434
20
10.6079014
11
7.937095
21
10.8048177
0
ARC
8
layer0
10
10.0000027
20
-0.0000151
40
11
50
97.1909186
51
100.8090848
0
LINE
8
layer0
10
8.623067
20
10.913465
11
8.75016
21
10.74771
0
LINE
8
layer0
10
8.75016
20
10.74771
11
8.87512
21
10.57034
0
LINE
8
layer0
10
8.87512
20
10.57034
11
8.98294
21
10.4028
0
LINE
8
layer0
10
8.98294
20
10.4028
11
9.07559
21
10.24473
0
LINE
8
layer0
10
9.07559
20
10.24473
11
9.15445
21
10.09621
0
LINE
8
layer0
10
9.15445
20
10.09621
11
9.21921
21
9.96083
0
LINE
8
layer0
10
9.21921
20
9.96083
11
9.27223
21
9.83691
0
LINE
8
layer0
10
9.27223
20
9.83691
11
9.3135
21
9.72807
0
LINE
8
layer0
10
9.3135
20
9.72807
11
9.34519
21
9.63276
0
LINE
8
layer0
10
9.34519
20
9.63276
11
9.3683
21
9.55225
0
LINE
8
layer0
10
9.3683
20
9.55225
11
9.39471
21
9.43397
0
LINE
8
layer0
10
9.39471
20
9.43397
11
9.41039
21
9.31678
0
LINE
8
layer0
10
9.41039
20
9.31678
11
9.43262
21
9.20758
0
LINE
8
layer0
10
9.43262
20
9.20758
11
9.46225
21
9.11672
0
LINE
8
layer0
10
9.46225
20
9.11672
11
9.47936
21
9.0783
0
LINE
8
layer0
10
9.47936
20
9.0783
11
9.49776
21
9.0446
0
LINE
8
layer0
10
9.49776
20
9.0446
11
9.51725
21
9.01567
0
LINE
8
layer0
10
9.51725
20
9.01567
11
9.53763
21
8.99153
0
LINE
8
layer0
10
9.53763
20
8.99153
11
9.55873
21
8.9722
0
LINE
8
layer0
10
9.55873
20
8.9722
11
9.58034
21
8.9577
0
LINE
8
layer0
10
9.58034
20
8.9577
11
9.60227
21
8.94804
0
LINE
8
layer0
10
9.60227
20
8.94804
11
9.62433
21
8.94323
0
LINE
8
layer0
10
9.62433
20
8.94323
11
9.64085
21
8.9428
0
LINE
8
layer0
10
9.64085
20
8.9428
11
9.78959
21
8.94756
0
LINE
8
layer0
10
9.78959
20
8.94756
11
10
21
8.95
0
LINE
8
layer0
10
10
20
8.95
11
10.21041
21
8.94756
0
LINE
8
layer0
10
10.21041
20
8.94756
11
10.35915
21
8.9428
0
LINE
8
layer0
10
10.35915
20
8.9428
11
10.37567
21
8.94323
0
LINE
8
layer0
10
10.37567
20
8.94323
11
10.39773
21
8.94804
0
LINE
8
layer0
10
10.39773
20
8.94804
11
10.41966
21
8.9577
0
LINE
8
layer0
10
10.41966
20
8.9577
11
10.44127
21
8.9722
0
LINE
8
layer0
10
10.44127
20
8.9722
11
10.46237
21
8.99153
0
LINE
8
layer0
10
10.46237
20
8.99153
11
10.48275
21
9.01567
0
LINE
8
layer0
10
10.48275
20
9.01567
11
10.50224
21
9.0446
0
LINE
8
layer0
10
10.50224
20
9.0446
11
10.52064
21
9.0783
0
LINE
8
layer0
10
10.52064
20
9.0783
11
10.53775
21
9.11672
0
LINE
8
layer0
10
10.53775
20
9.11672
11
10.56738
21
9.20758
0
LINE
8
layer0
10
10.56738
20
9.20758
11
10.58961
21
9.31678
0
LINE
8
layer0
10
10.58961
20
9.31678
11
10.60529
21
9.43397
0
LINE
8
layer0
10
10.60529
20
9.43397
11
10.6317
21
9.55225
0
LINE
8
layer0
10
10.6317
20
9.55225
11
10.65481
21
9.63276
0
LINE
8
layer0
10
10.65481
20
9.63276
11
10.6865
21
9.72807
0
LINE
8
layer0
10
10.6865
20
9.72807
11
10.72777
21
9.83691
0
LINE
8
layer0
10
10.72777
20
9.83691
11
10.78079
21
9.96083
0
LINE
8
layer0
10
10.78079
20
9.96083
11
10.84555
21
10.09621
0
LINE
8
layer0
10
10.84555
20
10.09621
11
10.92441
21
10.24473
0
LINE
8
layer0
10
10.92441
20
10.24473
11
11.01706
21
10.4028
0
LINE
8
layer0
10
11.01706
20
10.4028
11
11.12488
21
10.57034
0
LINE
8
layer0
10
11.12488
20
10.57034
11
11.24984
21
10.74771
0
LINE
8
layer0
10
11.24984
20
10.74771
11
11.376933
21
10.913465
0
ARC
8
layer0
10
9.9999971
20
-0.0000151
40
11
50
79.1909147
51
82.8090809
0
LINE
8
layer0
10
12.062905
20
10.8048177
11
12.1325566
21
10.6079014
0
LINE
8
layer0
10
12.1325566
20
10.6079014
11
12.1965902
21
10.4005978
0
LINE
8
layer0
10
12.1965902
20
10.4005978
11
12.2473604
21
10.2079396
0
LINE
8
layer0
10
12.2473604
20
10.2079396
11
12.2866295
21
10.0289756
0
LINE
8
layer0
10
12.2866295
20
10.0289756
11
12.3157346
21
9.8633556
0
LINE
8
layer0
10
12.3157346
20
9.8633556
11
12.3354903
21
9.7145897
0
LINE
8
layer0
10
12.3354903
20
9.7145897
11
12.347622
21
9.5803507
0
LINE
8
layer0
10
12.347622
20
9.5803507
11
12.3532387
21
9.4640845
0
LINE
8
layer0
10
12.3532387
20
9.4640845
11
12.3539252
21
9.3636466
0
LINE
8
layer0
10
12.3539252
20
9.3636466
11
12.3510252
21
9.2799356
0
LINE
8
layer0
10
12.3510252
20
9.2799356
11
12.3395921
21
9.1592835
0
LINE
8
layer0
10
12.3395921
20
9.1592835
11
12.3182909
21
9.0429838
0
LINE
8
layer0
10
12.3182909
20
9.0429838
11
12.3056883
21
8.932259
0
LINE
8
layer0
10
12.3056883
20
8.932259
11
12.3057908
21
8.8366899
0
LINE
8
layer0
10
12.3057908
20
8.8366899
11
12.3101909
21
8.794863
0
LINE
8
layer0
10
12.3101909
20
8.794863
11
12.3172765
21
8.7571265
0
LINE
8
layer0
10
12.3172765
20
8.7571265
11
12.3268727
21
8.7235897
0
LINE
8
layer0
10
12.3268727
20
8.7235897
11
12.3387956
21
8.6943334
0
LINE
8
layer0
10
12.3387956
20
8.6943334
11
12.3528896
21
8.6694292
0
LINE
8
layer0
10
12.3528896
20
8.6694292
11
12.3689612
21
8.648961
0
LINE
8
layer0
10
12.3689612
20
8.648961
11
12.3868327
21
8.6329971
0
LINE
8
layer0
10
12.3868327
20
8.6329971
11
12.4063267
21
8.6216056
0
LINE
8
layer0
10
12.4063267
20
8.6216056
11
12.4219052
21
8.6160917
0
LINE
8
layer0
10
12.4219052
20
8.6160917
11
12.5648363
21
8.5746555
0
LINE
8
layer0
10
12.5648363
20
8.5746555
11
12.7657021
21
8.5119558
0
LINE
8
layer0
10
12.7657021
20
8.5119558
11
12.9650599
21
8.444615
0
LINE
8
layer0
10
12.9650599
20
8.444615
11
13.1050491
21
8.3941248
0
LINE
8
layer0
10
13.1050491
20
8.3941248
11
13.1208935
21
8.3894288
0
LINE
8
layer0
10
13.1208935
20
8.3894288
11
13.1433601
21
8.3871864
0
LINE
8
layer0
10
13.1433601
20
8.3871864
11
13.1672019
21
8.3895969
0
LINE
8
layer0
10
13.1672019
20
8.3895969
11
13.192235
21
8.3967093
0
LINE
8
layer0
10
13.192235
20
8.3967093
11
13.2182756
21
8.408573
0
LINE
8
layer0
10
13.2182756
20
8.408573
11
13.2451178
21
8.4252337
0
LINE
8
layer0
10
13.2451178
20
8.4252337
11
13.2725937
21
8.4467251
0
LINE
8
layer0
10
13.2725937
20
8.4467251
11
13.300507
21
8.4730898
0
LINE
8
layer0
10
13.300507
20
8.4730898
11
13.3286521
21
8.5043421
0
LINE
8
layer0
10
13.3286521
20
8.5043421
11
13.3849091
21
8.5815989
0
LINE
8
layer0
10
13.3849091
20
8.5815989
11
13.4397958
21
8.6785848
0
LINE
8
layer0
10
13.4397958
20
8.6785848
11
13.4909221
21
8.7851937
0
LINE
8
layer0
10
13.4909221
20
8.7851937
11
13.55259
21
8.8895236
0
LINE
8
layer0
10
13.55259
20
8.8895236
11
13.5994479
21
8.9589517
0
LINE
8
layer0
10
13.5994479
20
8.9589517
11
13.6590393
21
9.0398042
0
LINE
8
layer0
10
13.6590393
20
9.0398042
11
13.7319228
21
9.1305641
0
LINE
8
layer0
10
13.7319228
20
9.1305641
11
13.8206412
21
9.2320349
0
LINE
8
layer0
10
13.8206412
20
9.2320349
11
13.9240663
21
9.340777
0
LINE
8
layer0
10
13.9240663
20
9.340777
11
14.0449618
21
9.4576588
0
LINE
8
layer0
10
14.0449618
20
9.4576588
11
14.1819235
21
9.5793619
0
LINE
8
layer0
10
14.1819235
20
9.5793619
11
14.3362392
21
9.7053837
0
LINE
8
layer0
10
14.3362392
20
9.7053837
11
14.5098935
21
9.8354578
0
LINE
8
layer0
10
14.5098935
20
9.8354578
11
14.6819873
21
9.9538263
0
ARC
8
layer0
10
9.9999927
20
-0.0000135
40
11
50
61.190915
51
64.8090813
0
LINE
8
layer0
10
15.3008115
20
9.6385196
11
15.3062036
21
9.4297176
0
LINE
8
layer0
10
15.3062036
20
9.4297176
11
15.3030429
21
9.2127726
0
LINE
8
layer0
10
15.3030429
20
9.2127726
11
15.2917936
21
9.0138549
0
LINE
8
layer0
10
15.2917936
20
9.0138549
11
15.2738378
21
8.8315152
0
LINE
8
layer0
10
15.2738378
20
8.8315152
11
15.250339
21
8.6650073
0
LINE
8
layer0
10
15.250339
20
8.6650073
11
15.2231566
21
8.5174176
0
LINE
8
layer0
10
15.2231566
20
8.5174176
11
15.1932123
21
8.3859998
0
LINE
8
layer0
10
15.1932123
20
8.3859998
11
15.1626259
21
8.2736885
0
LINE
8
layer0
10
15.1626259
20
8.2736885
11
15.1322418
21
8.1779542
0
LINE
8
layer0
10
15.1322418
20
8.1779542
11
15.1036156
21
8.0992365
0
LINE
8
layer0
10
15.1036156
20
8.0992365
11
15.0554585
21
7.9880226
0
LINE
8
layer0
10
15.0554585
20
7.9880226
11
14.9992614
21
7.8839974
0
LINE
8
layer0
10
14.9992614
20
7.8839974
11
14.9530597
21
7.7825863
0
LINE
8
layer0
10
14.9530597
20
7.7825863
11
14.9236247
21
7.6916629
0
LINE
8
layer0
10
14.9236247
20
7.6916629
11
14.9148842
21
7.6505235
0
LINE
8
layer0
10
14.9148842
20
7.6505235
11
14.9099618
21
7.6124444
0
LINE
8
layer0
10
14.9099618
20
7.6124444
11
14.9087249
21
7.5775836
0
LINE
8
layer0
10
14.9087249
20
7.5775836
11
14.9110235
21
7.5460748
0
LINE
8
layer0
10
14.9110235
20
7.5460748
11
14.9167319
21
7.5180343
0
LINE
8
layer0
10
14.9167319
20
7.5180343
11
14.9256919
21
7.4936015
0
LINE
8
layer0
10
14.9256919
20
7.4936015
11
14.9377556
21
7.4728963
0
LINE
8
layer0
10
14.9377556
20
7.4728963
11
14.9527753
21
7.4560383
0
LINE
8
layer0
10
14.9527753
20
7.4560383
11
14.9658875
21
7.4459803
0
LINE
8
layer0
10
14.9658875
20
7.4459803
11
15.0890185
21
7.362404
0
LINE
8
layer0
10
15.0890185
20
7.362404
11
15.260678
21
7.2407021
0
LINE
8
layer0
10
15.260678
20
7.2407021
11
15.4294691
21
7.1150522
0
LINE
8
layer0
10
15.4294691
20
7.1150522
11
15.5470044
21
7.0237741
0
LINE
8
layer0
10
15.5470044
20
7.0237741
11
15.5606221
21
7.0144118
0
LINE
8
layer0
10
15.5606221
20
7.0144118
11
15.5812963
21
7.0053366
0
LINE
8
layer0
10
15.5812963
20
7.0053366
11
15.604716
21
7.0002616
0
LINE
8
layer0
10
15.604716
20
7.0002616
11
15.6307218
21
6.9992903
0
LINE
8
layer0
10
15.6307218
20
6.9992903
11
15.6591539
21
7.0025263
0
LINE
8
layer0
10
15.6591539
20
7.0025263
11
15.6898308
21
7.0100769
0
LINE
8
layer0
10
15.6898308
20
7.0100769
11
15.7226032
21
7.0220258
0
LINE
8
layer0
10
15.7226032
20
7.0220258
11
15.7572975
21
7.0384745
0
LINE
8
layer0
10
15.7572975
20
7.0384745
11
15.7937225
21
7.0594999
0
LINE
8
layer0
10
15.7937225
20
7.0594999
11
15.8710998
21
7.1155911
0
LINE
8
layer0
10
15.8710998
20
7.1155911
11
15.9532704
21
7.1908693
0
LINE
8
layer0
10
15.9532704
20
7.1908693
11
16.0348383
21
7.2764615
0
LINE
8
layer0
10
16.0348383
20
7.2764615
11
16.1257277
21
7.3566286
0
LINE
8
layer0
10
16.1257277
20
7.3566286
11
16.1917467
21
7.4081789
0
LINE
8
layer0
10
16.1917467
20
7.4081789
11
16.2734062
21
7.4666594
0
LINE
8
layer0
10
16.2734062
20
7.4666594
11
16.3707689
21
7.5304549
0
LINE
8
layer0
10
16.3707689
20
7.5304549
11
16.4865014
21
7.5995439
0
LINE
8
layer0
10
16.4865014
20
7.5995439
11
16.6184677
21
7.6710036
0
LINE
8
layer0
10
16.6184677
20
7.6710036
11
16.7695646
21
7.7448061
0
LINE
8
layer0
10
16.7695646
20
7.7448061
11
16.9374312
21
7.8182291
0
LINE
8
layer0
10
16.9374312
20
7.8182291
11
17.123137
21
7.8903968
0
LINE
8
layer0
10
17.123137
20
7.8903968
11
17.3284872
21
7.9604425
0
LINE
8
layer0
10
17.3284872
20
7.9604425
11
17.528736
21
8.0198377
0
ARC
8
layer0
10
9.9999892
20
-0.0000109
40
11
50
43.1909171
51
46.8090836
0
LINE
8
layer0
10
18.0198377
20
7.528736
11
17.9604425
21
7.3284872
0
LINE
8
layer0
10
17.9604425
20
7.3284872
11
17.8903968
21
7.123137
0
LINE
8
layer0
10
17.8903968
20
7.123137
11
17.8182291
21
6.9374312
0
LINE
8
layer0
10
17.8182291
20
6.9374312
11
17.7448061
21
6.7695646
0
LINE
8
layer0
10
17.7448061
20
6.7695646
11
17.6710036
21
6.6184677
0
LINE
8
layer0
10
17.6710036
20
6.6184677
11
17.5995439
21
6.4865014
0
LINE
8
layer0
10
17.5995439
20
6.4865014
11
17.5304549
21
6.3707689
0
LINE
8
layer0
10
17.5304549
20
6.3707689
11
17.4666594
21
6.2734062
0
LINE
8
layer0
10
17.4666594
20
6.2734062
11
17.4081789
21
6.1917467
0
LINE
8
layer0
10
17.4081789
20
6.1917467
11
17.3566286
21
6.1257277
0
LINE
8
layer0
10
17.3566286
20
6.1257277
11
17.2764615
21
6.0348383
0
LINE
8
layer0
10
17.2764615
20
6.0348383
11
17.1908693
21
5.9532704
0
LINE
8
layer0
10
17.1908693
20
5.9532704
11
17.1155911
21
5.8710998
0
LINE
8
layer0
10
17.1155911
20
5.8710998
11
17.0594999
21
5.7937225
0
LINE
8
layer0
10
17.0594999
20
5.7937225
11
17.0384745
21
5.7572975
0
LINE
8
layer0
10
17.0384745
20
5.7572975
11
17.0220258
21
5.7226032
0
LINE
8
layer0
10
17.0220258
20
5.7226032
11
17.0100769
21
5.6898308
0
LINE
8
layer0
10
17.0100769
20
5.6898308
11
17.0025263
21
5.6591539
0
LINE
8
layer0
10
17.0025263
20
5.6591539
11
16.9992903
21
5.6307218
0
LINE
8
layer0
10
16.9992903
20
5.6307218
11
17.0002616
21
5.604716
0
LINE
8
layer0
10
17.0002616
20
5.604716
11
17.0053366
21
5.5812963
0
LINE
8
layer0
10
17.0053366
20
5.5812963
11
17.0144118
21
5.5606221
0
LINE
8
layer0
10
17.0144118
20
5.5606221
11
17.0237741
21
5.5470044
0
LINE
8
layer0
10
17.0237741
20
5.5470044
11
17.1150522
21
5.4294691
0
LINE
8
layer0
10
17.1150522
20
5.4294691
11
17.2407021
21
5.260678
0
LINE
8
layer0
10
17.2407021
20
5.260678
11
17.362404
21
5.0890185
0
LINE
8
layer0
10
17.362404
20
5.0890185
11
17.4459803
21
4.9658875
0
LINE
8
layer0
10
17.4459803
20
4.9658875
11
17.4560383
21
4.9527753
0
LINE
8
layer0
10
17.4560383
20
4.9527753
11
17.4728963
21
4.9377556
0
LINE
8
layer0
10
17.4728963
20
4.9377556
11
17.4936015
21
4.9256919
0
LINE
8
layer0
10
17.4936015
20
4.9256919
11
17.5180343
21
4.9167319
0
LINE
8
layer0
10
17.5180343
20
4.9167319
11
17.5460748
21
4.9110235
0
LINE
8
layer0
10
17.5460748
20
4.9110235
11
17.5775836
21
4.9087249
0
LINE
8
layer0
10
17.5775836
20
4.9087249
11
17.6124444
21
4.9099618
0
LINE
8
layer0
10
17.6124444
20
4.9099618
11
17.6505235
21
4.9148842
0
LINE
8
layer0
10
17.6505235
20
4.9148842
11
17.6916629
21
4.9236247
0
LINE
8
layer0
10
17.6916629
20
4.9236247
11
17.7825863
21
4.9530597
0
LINE
8
layer0
10
17.7825863
20
4.9530597
11
17.8839974
21
4.9992614
0
LINE
8
layer0
10
17.8839974
20
4.9992614
11
17.9880226
21
5.0554585
0
LINE
8
layer0
10
17.9880226
20
5.0554585
11
18.0992365
21
5.1036156
0
LINE
8
layer0
10
18.0992365
20
5.1036156
11
18.1779542
21
5.1322418
0
LINE
8
layer0
10
18.1779542
20
5.1322418
11
18.2736885
21
5.1626259
0
LINE
8
layer0
10
18.2736885
20
5.1626259
11
18.3859998
21
5.1932123
0
LINE
8
layer0
10
18.3859998
20
5.1932123
11
18.5174176
21
5.2231566
0
LINE
8
layer0
10
18.5174176
20
5.2231566
11
18.6650073
21
5.250339
0
LINE
8
layer0
10
18.6650073
20
5.250339
11
18.8315152
21
5.2738378
0
LINE
8
layer0
10
18.8315152
20
5.2738378
11
19.0138549
21
5.2917936
0
LINE
8
layer0
10
19.0138549
20
5.2917936
11
19.2127726
21
5.3030429
0
LINE
8
layer0
10
19.2127726
20
5.3030429
11
19.4297176
21
5.3062036
0
LINE
8
layer0
10
19.4297176
20
5.3062036
11
19.6385196
21
5.3008115
0
ARC
8
layer0
10
9.9999865
20
-0.0000072
40
11
50
25.1909182
51
28.8090845
0
LINE
8
layer0
10
19.9538263
20
4.6819873
11
19.8354578
21
4.5098935
0
LINE
8
layer0
10
19.8354578
20
4.5098935
11
19.7053837
21
4.3362392
0
LINE
8
layer0
10
19.7053837
20
4.3362392
11
19.5793619
21
4.1819235
0
LINE
8
layer0
10
19.5793619
20
4.1819235
11
19.4576588
21
4.0449618
0
LINE
8
layer0
10
19.4576588
20
4.0449618
11
19.340777
21
3.9240663
0
LINE
8
layer0
10
19.340777
20
3.9240663
11
19.2320349
21
3.8206412
0
LINE
8
layer0
10
19.2320349
20
3.8206412
11
19.1305641
21
3.7319228
0
LINE
8
layer0
10
19.1305641
20
3.7319228
11
19.0398042
21
3.6590393
0
LINE
8
layer0
10
19.0398042
20
3.6590393
11
18.9589517
21
3.5994479
0
LINE
8
layer0
10
18.9589517
20
3.5994479
11
18.8895236
21
3.55259
0
LINE
8
layer0
10
18.8895236
20
3.55259
11
18.7851937
21
3.4909221
0
LINE
8
layer0
10
18.7851937
20
3.4909221
11
18.6785848
21
3.4397958
0
LINE
8
layer0
10
18.6785848
20
3.4397958
11
18.5815989
21
3.3849091
0
LINE
8
layer0
10
18.5815989
20
3.3849091
11
18.5043421
21
3.3286521
0
LINE
8
layer0
10
18.5043421
20
3.3286521
11
18.4730898
21
3.300507
0
LINE
8
layer0
10
18.4730898
20
3.300507
11
18.4467251
21
3.2725937
0
LINE
8
layer0
10
18.4467251
20
3.2725937
11
18.4252337
21
3.2451178
0
LINE
8
layer0
10
18.4252337
20
3.2451178
11
18.408573
21
3.2182756
0
LINE
8
layer0
10
18.408573
20
3.2182756
11
18.3967093
21
3.192235
0
LINE
8
layer0
10
18.3967093
20
3.192235
11
18.3895969
21
3.1672019
0
LINE
8
layer0
10
18.3895969
20
3.1672019
11
18.3871864
21
3.1433601
0
LINE
8
layer0
10
18.3871864
20
3.1433601
11
18.3894288
21
3.1208935
0
LINE
8
layer0
10
18.3894288
20
3.1208935
11
18.3941248
21
3.1050491
0
LINE
8
layer0
10
18.3941248
20
3.1050491
11
18.444615
21
2.9650599
0
LINE
8
layer0
10
18.444615
20
2.9650599
11
18.5119558
21
2.7657021
0
LINE
8
layer0
10
18.5119558
20
2.7657021
11
18.5746555
21
2.5648363
0
LINE
8
layer0
10
18.5746555
20
2.5648363
11
18.6160917
21
2.4219052
0
LINE
8
layer0
10
18.6160917
20
2.4219052
11
18.6216056
21
2.4063267
0
LINE
8
layer0
10
18.6216056
20
2.4063267
11
18.6329971
21
2.3868327
0
LINE
8
layer0
10
18.6329971
20
2.3868327
11
18.648961
21
2.3689612
0
LINE
8
layer0
10
18.648961
20
2.3689612
11
18.6694292
21
2.3528896
0
LINE
8
layer0
10
18.6694292
20
2.3528896
11
18.6943334
21
2.3387956
0
LINE
8
layer0
10
18.6943334
20
2.3387956
11
18.7235897
21
2.3268727
0
LINE
8
layer0
10
18.7235897
20
2.3268727
11
18.7571265
21
2.3172765
0
LINE
8
layer0
10
18.7571265
20
2.3172765
11
18.794863
21
2.3101909
0
LINE
8
layer0
10
18.794863
20
2.3101909
11
18.8366899
21
2.3057908
0
LINE
8
layer0
10
18.8366899
20
2.3057908
11
18.932259
21
2.3056883
0
LINE
8
layer0
10
18.932259
20
2.3056883
11
19.0429838
21
2.3182909
0
LINE
8
layer0
10
19.0429838
20
2.3182909
11
19.1592835
21
2.3395921
0
LINE
8
layer0
10
19.1592835
20
2.3395921
11
19.2799356
21
2.3510252
0
LINE
8
layer0
10
19.2799356
20
2.3510252
11
19.3636466
21
2.3539252
0
LINE
8
layer0
10
19.3636466
20
2.3539252
11
19.4640845
21
2.3532387
0
LINE
8
layer0
10
19.4640845
20
2.3532387
11
19.5803507
21
2.347622
0
LINE
8
layer0
10
19.5803507
20
2.347622
11
19.7145897
21
2.3354903
0
LINE
8
layer0
10
19.7145897
20
2.3354903
11
19.8633556
21
2.3157346
0
LINE
8
layer0
10
19.8633556
20
2.3157346
11
20.0289756
21
2.2866295
0
LINE
8
layer0
10
20.0289756
20
2.2866295
11
20.2079396
21
2.2473604
0
LINE
8
layer0
10
20.2079396
20
2.2473604
11
20.4005978
21
2.1965902
0
LINE
8
layer0
10
20.4005978
20
2.1965902
11
20.6079014
21
2.1325566
0
LINE
8
layer0
10
20.6079014
20
2.1325566
11
20.8048177
21
2.062905
0
ARC
8
layer0
10
9.9999849
20
-0.0000027
40
11
50
7.1909186
51
10.8090848
0
LINE
8
layer0
10
20.913465
20
1.376933
11
20.74771
21
1.24984
0
LINE
8
layer0
10
20.74771
20
1.24984
11
20.57034
21
1.12488
0
LINE
8
layer0
10
20.57034
20
1.12488
11
20.4028
21
1.01706
0
LINE
8
layer0
10
20.4028
20
1.01706
11
20.24473
21
0.92441
0
LINE
8
layer0
10
20.24473
20
0.92441
11
20.09621
21
0.84555
0
LINE
8
layer0
10
20.09621
20
0.84555
11
19.96083
21
0.78079
0
LINE
8
layer0
10
19.96083
20
0.78079
11
19.83691
21
0.72777
0
LINE
8
layer0
10
19.83691
20
0.72777
11
19.72807
21
0.6865
0
LINE
8
layer0
10
19.72807
20
0.6865
11
19.63276
21
0.65481
0
LINE
8
layer0
10
19.63276
20
0.65481
11
19.55225
21
0.6317
0
LINE
8
layer0
10
19.55225
20
0.6317
11
19.43397
21
0.60529
0
LINE
8
layer0
10
19.43397
20
0.60529
11
19.31678
21
0.58961
0
LINE
8
layer0
10
19.31678
20
0.58961
11
19.20758
21
0.56738
0
LINE
8
layer0
10
19.20758
20
0.56738
11
19.11672
21
0.53775
0
LINE
8
layer0
10
19.11672
20
0.53775
11
19.0783
21
0.52064
0
LINE
8
layer0
10
19.0783
20
0.52064
11
19.0446
21
0.50224
0
LINE
8
layer0
10
19.0446
20
0.50224
11
19.01567
21
0.48275
0
LINE
8
layer0
10
19.01567
20
0.48275
11
18.99153
21
0.46237
0
LINE
8
layer0
10
18.99153
20
0.46237
11
18.9722
21
0.44127
0
LINE
8
layer0
10
18.9722
20
0.44127
11
18.9577
21
0.41966
0
LINE
8
layer0
10
18.9577
20
0.41966
11
18.94804
21
0.39773
0
LINE
8
layer0
10
18.94804
20
0.39773
11
18.94323
21
0.37567
0
LINE
8
layer0
10
18.94323
20
0.37567
11
18.9428
21
0.35915
0
LINE
8
layer0
10
18.9428
20
0.35915
11
18.94756
21
0.21041
0
LINE
8
layer0
10
18.94756
20
0.21041
11
18.95
21
0
0
LINE
8
layer0
10
18.95
20
0
11
18.94756
21
-0.21041
0
LINE
8
layer0
10
18.94756
20
-0.21041
11
18.9428
21
-0.35915
0
LINE
8
layer0
10
18.9428
20
-0.35915
11
18.94323
21
-0.37567
0
LINE
8
layer0
10
18.94323
20
-0.37567
11
18.94804
21
-0.39773
0
LINE
8
layer0
10
18.94804
20
-0.39773
11
18.9577
21
-0.41966
0
LINE
8
layer0
10
18.9577
20
-0.41966
11
18.9722
21
-0.44127
0
LINE
8
layer0
10
18.9722
20
-0.44127
11
18.99153
21
-0.46237
0
LINE
8
layer0
10
18.99153
20
-0.46237
11
19.01567
21
-0.48275
0
LINE
8
layer0
10
19.01567
20
-0.48275
11
19.0446
21
-0.50224
0
LINE
8
layer0
10
19.0446
20
-0.50224
11
19.0783
21
-0.52064
0
LINE
8
layer0
10
19.0783
20
-0.52064
11
19.11672
21
-0.53775
0
LINE
8
layer0
10
19.11672
20
-0.53775
11
19.20758
21
-0.56738
0
LINE
8
layer0
10
19.20758
20
-0.56738
11
19.31678
21
-0.58961
0
LINE
8
layer0
10
19.31678
20
-0.58961
11
19.43397
21
-0.60529
0
LINE
8
layer0
10
19.43397
20
-0.60529
11
19.55225
21
-0.6317
0
LINE
8
layer0
10
19.55225
20
-0.6317
11
19.63276
21
-0.65481
0
LINE
8
layer0
10
19.63276
20
-0.65481
11
19.72807
21
-0.6865
0
LINE
8
layer0
10
19.72807
20
-0.6865
11
19.83691
21
-0.72777
0
LINE
8
layer0
10
19.83691
20
-0.72777
11
19.96083
21
-0.78079
0
LINE
8
layer0
10
19.96083
20
-0.78079
11
20.09621
21
-0.84555
0
LINE
8
layer0
10
20.09621
20
-0.84555
11
20.24473
21
-0.92441
0
LINE
8
layer0
10
20.24473
20
-0.92441
11
20.4028
21
-1.01706
0
LINE
8
layer0
10
20.4028
20
-1.01706
11
20.57034
21
-1.12488
0
LINE
8
layer0
10
20.57034
20
-1.12488
11
20.74771
21
-1.24984
0
LINE
8
layer0
10
20.74771
20
-1.24984
11
20.913465
21
-1.376933
0
ARC
8
layer0
10
9.9999849
20
0.0000029
40
11
50
349.1909147
51
352.8090809
0
LINE
8
layer0
10
20.8048177
20
-2.062905
11
20.6079014
21
-2.1325566
0
LINE
8
layer0
10
20.6079014
20
-2.1325566
11
20.4005978
21
-2.1965902
0
LINE
8
layer0
10
20.4005978
20
-2.1965902
11
20.2079396
21
-2.2473604
0
LINE
8
layer0
10
20.2079396
20
-2.2473604
11
20.0289756
21
-2.2866295
0
LINE
8
layer0
10
20.0289756
20
-2.2866295
11
19.8633556
21
-2.3157346
0
LINE
8
layer0
10
19.8633556
20
-2.3157346
11
19.7145897
21
-2.3354903
0
LINE
8
layer0
10
19.7145897
20
-2.3354903
11
19.5803507
21
-2.347622
0
LINE
8
layer0
10
19.5803507
20
-2.347622
11
19.4640845
21
-2.3532387
0
LINE
8
layer0
10
19.4640845
20
-2.3532387
11
19.3636466
21
-2.3539252
0
LINE
8
layer0
10
19.3636466
20
-2.3539252
11
19.2799356
21
-2.3510252
0
LINE
8
layer0
10
19.2799356
20
-2.3510252
11
19.1592835
21
-2.3395921
0
LINE
8
layer0
10
19.1592835
20
-2.3395921
11
19.0429838
21
-2.3182909
0
LINE
8
layer0
10
19.0429838
20
-2.3182909
11
18.932259
21
-2.3056883
0
LINE
8
layer0
10
18.932259
20
-2.3056883
11
18.8366899
21
-2.3057908
0
LINE
8
layer0
10
18.8366899
20
-2.3057908
11
18.794863
21
-2.3101909
0
LINE
8
layer0
10
18.794863
20
-2.3101909
11
18.7571265
21
-2.3172765
0
LINE
8
layer0
10
18.7571265
20
-2.3172765
11
18.7235897
21
-2.3268727
0
LINE
8
layer0
10
18.7235897
20
-2.3268727
11
18.6943334
21
-2.3387956
0
LINE
8
layer0
10
18.6943334
20
-2.3387956
11
18.6694292
21
-2.3528896
0
LINE
8
layer0
10
18.6694292
20
-2.3528896
11
18.648961
21
-2.3689612
0
LINE
8
layer0
10
18.648961
20
-2.3689612
11
18.6329971
21
-2.3868327
0
LINE
8
layer0
10
18.6329971
20
-2.3868327
11
18.6216056
21
-2.4063267
0
LINE
8
layer0
10
18.6216056
20
-2.4063267
11
18.6160917
21
-2.4219052
0
LINE
8
layer0
10
18.6160917
20
-2.4219052
11
18.5746555
21
-2.5648363
0
LINE
8
layer0
10
18.5746555
20
-2.5648363
11
18.5119558
21
-2.7657021
0
LINE
8
layer0
10
18.5119558
20
-2.7657021
11
18.444615
21
-2.9650599
0
LINE
8
layer0
10
18.444615
20
-2.9650599
11
18.3941248
21
-3.1050491
0
LINE
8
layer0
10
18.3941248
20
-3.1050491
11
18.3894288
21
-3.1208935
0
LINE
8
layer0
10
18.3894288
20
-3.1208935
11
18.3871864
21
-3.1433601
0
LINE
8
layer0
10
18.3871864
20
-3.1433601
11
18.3895969
21
-3.1672019
0
LINE
8
layer0
10
18.3895969
20
-3.1672019
11
18.3967093
21
-3.192235
0
LINE
8
layer0
10
18.3967093
20
-3.192235
11
18.408573
21
-3.2182756
0
LINE
8
layer0
10
18.408573
20
-3.2182756
11
18.4252337
21
-3.2451178
0
LINE
8
layer0
10
18.4252337
20
-3.2451178
11
18.4467251
21
-3.2725937
0
LINE
8
layer0
10
18.4467251
20
-3.2725937
11
18.4730898
21
-3.300507
0
LINE
8
layer0
10
18.4730898
20
-3.300507
11
18.5043421
21
-3.3286521
0
LINE
8
layer0
10
18.5043421
20
-3.3286521
11
18.5815989
21
-3.3849091
0
LINE
8
layer0
10
18.5815989
20
-3.3849091
11
18.6785848
21
-3.4397958
0
LINE
8
layer0
10
18.6785848
20
-3.4397958
11
18.7851937
21
-3.4909221
0
LINE
8
layer0
10
18.7851937
20
-3.4909221
11
18.8895236
21
-3.55259
0
LINE
8
layer0
10
18.8895236
20
-3.55259
11
18.9589517
21
-3.5994479
0
LINE
8
layer0
10
18.9589517
20
-3.5994479
11
19.0398042
21
-3.6590393
0
LINE
8
layer0
10
19.0398042
20
-3.6590393
11
19.1305641
21
-3.7319228
0
LINE
8
layer0
10
19.1305641
20
-3.7319228
11
19.2320349
21
-3.8206412
0
LINE
8
layer0
10
19.2320349
20
-3.8206412
11
19.340777
21
-3.9240663
0
LINE
8
layer0
10
19.340777
20
-3.9240663
11
19.4576588
21
-4.0449618
0
LINE
8
layer0
10
19.4576588
20
-4.0449618
11
19.5793619
21
-4.1819235
0
LINE
8
layer0
10
19.5793619
20
-4.1819235
11
19.7053837
21
-4.3362392
0
LINE
8
layer0
10
19.7053837
20
-4.3362392
11
19.8354578
21
-4.5098935
0
LINE
8
layer0
10
19.8354578
20
-4.5098935
11
19.9538263
21
-4.6819873
0
ARC
8
layer0
10
9.9999865
20
0.0000073
40
11
50
331.190915
51
334.8090813
0
LINE
8
layer0
10
19.6385196
20
-5.3008115
11
19.4297176
21
-5.3062036
0
LINE
8
layer0
10
19.4297176
20
-5.3062036
11
19.2127726
21
-5.3030429
0
LINE
8
layer0
10
19.2127726
20
-5.3030429
11
19.0138549
21
-5.2917936
0
LINE
8
layer0
10
19.0138549
20
-5.2917936
11
18.8315152
21
-5.2738378
0
LINE
8
layer0
10
18.8315152
20
-5.2738378
11
18.6650073
21
-5.250339
0
LINE
8
layer0
10
18.6650073
20
-5.250339
11
18.5174176
21
-5.2231566
0
LINE
8
layer0
10
18.5174176
20
-5.2231566
11
18.3859998
21
-5.1932123
0
LINE
8
layer0
10
18.3859998
20
-5.1932123
11
18.2736885
21
-5.1626259
0
LINE
8
layer0
10
18.2736885
20
-5.1626259
11
18.1779542
21
-5.1322418
0
LINE
8
layer0
10
18.1779542
20
-5.1322418
11
18.0992365
21
-5.1036156
0
LINE
8
layer0
10
18.0992365
20
-5.1036156
11
17.9880226
21
-5.0554585
0
LINE
8
layer0
10
17.9880226
20
-5.0554585
11
17.8839974
21
-4.9992614
0
LINE
8
layer0
10
17.8839974
20
-4.9992614
11
17.7825863
21
-4.9530597
0
LINE
8
layer0
10
17.7825863
20
-4.9530597
11
17.6916629
21
-4.9236247
0
LINE
8
layer0
10
17.6916629
20
-4.9236247
11
17.6505235
21
-4.9148842
0
LINE
8
layer0
10
17.6505235
20
-4.9148842
11
17.6124444
21
-4.9099618
0
LINE
8
layer0
10
17.6124444
20
-4.9099618
11
17.5775836
21
-4.9087249
0
LINE
8
layer0
10
17.5775836
20
-4.9087249
11
17.5460748
21
-4.9110235
0
LINE
8
layer0
10
17.5460748
20
-4.9110235
11
17.5180343
21
-4.9167319
0
LINE
8
layer0
10
17.5180343
20
-4.9167319
11
17.4936015
21
-4.9256919
0
LINE
8
layer0
10
17.4936015
20
-4.9256919
11
17.4728963
21
-4.9377556
0
LINE
8
layer0
10
17.4728963
20
-4.9377556
11
17.4560383
21
-4.9527753
0
LINE
8
layer0
10
17.4560383
20
-4.9527753
11
17.4459803
21
-4.9658875
0
LINE
8
layer0
10
17.4459803
20
-4.9658875
11
17.362404
21
-5.0890185
0
LINE
8
layer0
10
17.362404
20
-5.0890185
11
17.2407021
21
-5.260678
0
LINE
8
layer0
10
17.2407021
20
-5.260678
11
17.1150522
21
-5.4294691
0
LINE
8
layer0
10
17.1150522
20
-5.4294691
11
17.0237741
21
-5.5470044
0
LINE
8
layer0
10
17.0237741
20
-5.5470044
11
17.0144118
21
-5.5606221
0
LINE
8
layer0
10
17.0144118
20
-5.5606221
11
17.0053366
21
-5.5812963
0
LINE
8
layer0
10
17.0053366
20
-5.5812963
11
17.0002616
21
-5.604716
0
LINE
8
layer0
10
17.0002616
20
-5.604716
11
16.9992903
21
-5.6307218
0
LINE
8
layer0
10
16.9992903
20
-5.6307218
11
17.0025263
21
-5.6591539
0
LINE
8
layer0
10
17.0025263
20
-5.6591539
11
17.0100769
21
-5.6898308
0
LINE
8
layer0
10
17.0100769
20
-5.6898308
11
17.0220258
21
-5.7226032
0
LINE
8
layer0
10
17.0220258
20
-5.7226032
11
17.0384745
21
-5.7572975
0
LINE
8
layer0
10
17.0384745
20
-5.7572975
11
17.0594999
21
-5.7937225
0
LINE
8
layer0
10
17.0594999
20
-5.7937225
11
17.1155911
21
-5.8710998
0
LINE
8
layer0
10
17.1155911
20
-5.8710998
11
17.1908693
21
-5.9532704
0
LINE
8
layer0
10
17.1908693
20
-5.9532704
11
17.2764615
21
-6.0348383
0
LINE
8
layer0
10
17.2764615
20
-6.0348383
11
17.3566286
21
-6.1257277
0
LINE
8
layer0
10
17.3566286
20
-6.1257277
11
17.4081789
21
-6.1917467
0
LINE
8
layer0
10
17.4081789
20
-6.1917467
11
17.4666594
21
-6.2734062
0
LINE
8
layer0
10
17.4666594
20
-6.2734062
11
17.5304549
21
-6.3707689
0
LINE
8
layer0
10
17.5304549
20
-6.3707689
11
17.5995439
21
-6.4865014
0
LINE
8
layer0
10
17.5995439
20
-6.4865014
11
17.6710036
21
-6.6184677
0
LINE
8
layer0
10
17.6710036
20
-6.6184677
11
17.7448061
21
-6.7695646
0
LINE
8
layer0
10
17.7448061
20
-6.7695646
11
17.8182291
21
-6.9374312
0
LINE
8
layer0
10
17.8182291
20
-6.9374312
11
17.8903968
21
-7.123137
0
LINE
8
layer0
10
17.8903968
20
-7.123137
11
17.9604425
21
-7.3284872
0
LINE
8
layer0
10
17.9604425
20
-7.3284872
11
18.0198377
21
-7.528736
0
ARC
8
layer0
10
9.9999891
20
0.0000108
40
11
50
313.1909171
51
316.8090836
0
LINE
8
layer0
10
17.528736
20
-8.0198377
11
17.3284872
21
-7.9604425
0
LINE
8
layer0
10
17.3284872
20
-7.9604425
11
17.123137
21
-7.8903968
0
LINE
8
layer0
10
17.123137
20
-7.8903968
11
16.9374312
21
-7.8182291
0
LINE
8
layer0
10
16.9374312
20
-7.8182291
11
16.7695646
21
-7.7448061
0
LINE
8
layer0
10
16.7695646
20
-7.7448061
11
16.6184677
21
-7.6710036
0
LINE
8
layer0
10
16.6184677
20
-7.6710036
11
16.4865014
21
-7.5995439
0
LINE
8
layer0
10
16.4865014
20
-7.5995439
11
16.3707689
21
-7.5304549
0
LINE
8
layer0
10
16.3707689
20
-7.5304549
11
16.2734062
21
-7.4666594
0
LINE
8
layer0
10
16.2734062
20
-7.4666594
11
16.1917467
21
-7.4081789
0
LINE
8
layer0
10
16.1917467
20
-7.4081789
11
16.1257277
21
-7.3566286
0
LINE
8
layer0
10
16.1257277
20
-7.3566286
11
16.0348383
21
-7.2764615
0
LINE
8
layer0
10
16.0348383
20
-7.2764615
11
15.9532704
21
-7.1908693
0
LINE
8
layer0
10
15.9532704
20
-7.1908693
11
15.8710998
21
-7.1155911
0
LINE
8
layer0
10
15.8710998
20
-7.1155911
11
15.7937225
21
-7.0594999
0
LINE
8
layer0
10
15.7937225
20
-7.0594999
11
15.7572975
21
-7.0384745
0
LINE
8
layer0
10
15.7572975
20
-7.0384745
11
15.7226032
21
-7.0220258
0
LINE
8
layer0
10
15.7226032
20
-7.0220258
11
15.6898308
21
-7.0100769
0
LINE
8
layer0
10
15.6898308
20
-7.0100769
11
15.6591539
21
-7.0025263
0
LINE
8
layer0
10
15.6591539
20
-7.0025263
11
15.6307218
21
-6.9992903
0
LINE
8
layer0
10
15.6307218
20
-6.9992903
11
15.604716
21
-7.0002616
0
LINE
8
layer0
10
15.604716
20
-7.0002616
11
15.5812963
21
-7.0053366
0
LINE
8
layer0
10
15.5812963
20
-7.0053366
11
15.5606221
21
-7.0144118
0
LINE
8
layer0
10
15.5606221
20
-7.0144118
11
15.5470044
21
-7.0237741
0
LINE
8
layer0
10
15.5470044
20
-7.0237741
11
15.4294691
21
-7.1150522
0
LINE
8
layer0
10
15.4294691
20
-7.1150522
11
15.260678
21
-7.2407021
0
LINE
8
layer0
10
15.260678
20
-7.2407021
11
15.0890185
21
-7.362404
0
LINE
8
layer0
10
15.0890185
20
-7.362404
11
14.9658875
21
-7.4459803
0
LINE
8
layer0
10
14.9658875
20
-7.4459803
11
14.9527753
21
-7.4560383
0
LINE
8
layer0
10
14.9527753
20
-7.4560383
11
14.9377556
21
-7.4728963
0
LINE
8
layer0
10
14.9377556
20
-7.4728963
11
14.9256919
21
-7.4936015
0
LINE
8
layer0
10
14.9256919
20
-7.4936015
11
14.9167319
21
-7.5180343
0
LINE
8
layer0
10
14.9167319
20
-7.5180343
11
14.9110235
21
-7.5460748
0
LINE
8
layer0
10
14.9110235
20
-7.5460748
11
14.9087249
21
-7.5775836
0
LINE
8
layer0
10
14.9087249
20
-7.5775836
11
14.9099618
21
-7.6124444
0
LINE
8
layer0
10
14.9099618
20
-7.6124444
11
14.9148842
21
-7.6505235
0
LINE
8
layer0
10
14.9148842
20
-7.6505235
11
14.9236247
21
-7.6916629
0
LINE
8
layer0
10
14.9236247
20
-7.6916629
11
14.9530597
21
-7.7825863
0
LINE
8
layer0
10
14.9530597
20
-7.7825863
11
14.9992614
21
-7.8839974
0
LINE
8
layer0
10
14.9992614
20
-7.8839974
11
15.0554585
21
-7.9880226
0
LINE
8
layer0
10
15.0554585
20
-7.9880226
11
15.1036156
21
-8.0992365
0
LINE
8
layer0
10
15.1036156
20
-8.0992365
11
15.1322418
21
-8.1779542
0
LINE
8
layer0
10
15.1322418
20
-8.1779542
11
15.1626259
21
-8.2736885
0
LINE
8
layer0
10
15.1626259
20
-8.2736885
11
15.1932123
21
-8.3859998
0
LINE
8
layer0
10
15.1932123
20
-8.3859998
11
15.2231566
21
-8.5174176
0
LINE
8
layer0
10
15.2231566
20
-8.5174176
11
15.250339
21
-8.6650073
0
LINE
8
layer0
10
15.250339
20
-8.6650073
11
15.2738378
21
-8.8315152
0
LINE
8
layer0
10
15.2738378
20
-8.8315152
11
15.2917936
21
-9.0138549
0
LINE
8
layer0
10
15.2917936
20
-9.0138549
11
15.3030429
21
-9.2127726
0
LINE
8
layer0
10
15.3030429
20
-9.2127726
11
15.3062036
21
-9.4297176
0
LINE
8
layer0
10
15.3062036
20
-9.4297176
11
15.3008115
21
-9.6385196
0
ARC
8
layer0
10
9.9999928
20
0.0000135
40
11
50
295.1909182
51
298.8090845
0
LINE
8
layer0
10
14.6819873
20
-9.9538263
11
14.5098935
21
-9.8354578
0
LINE
8
layer0
10
14.5098935
20
-9.8354578
11
14.3362392
21
-9.7053837
0
LINE
8
layer0
10
14.3362392
20
-9.7053837
11
14.1819235
21
-9.5793619
0
LINE
8
layer0
10
14.1819235
20
-9.5793619
11
14.0449618
21
-9.4576588
0
LINE
8
layer0
10
14.0449618
20
-9.4576588
11
13.9240663
21
-9.340777
0
LINE
8
layer0
10
13.9240663
20
-9.340777
11
13.8206412
21
-9.2320349
0
LINE
8
layer0
10
13.8206412
20
-9.2320349
11
13.7319228
21
-9.1305641
0
LINE
8
layer0
10
13.7319228
20
-9.1305641
11
13.6590393
21
-9.0398042
0
LINE
8
layer0
10
13.6590393
20
-9.0398042
11
13.5994479
21
-8.9589517
0
LINE
8
layer0
10
13.5994479
20
-8.9589517
11
13.55259
21
-8.8895236
0
LINE
8
layer0
10
13.55259
20
-8.8895236
11
13.4909221
21
-8.7851937
0
LINE
8
layer0
10
13.4909221
20
-8.7851937
11
13.4397958
21
-8.6785848
0
LINE
8
layer0
10
13.4397958
20
-8.6785848
11
13.3849091
21
-8.5815989
0
LINE
8
layer0
10
13.3849091
20
-8.5815989
11
13.3286521
21
-8.5043421
0
LINE
8
layer0
10
13.3286521
20
-8.5043421
11
13.300507
21
-8.4730898
0
LINE
8
layer0
10
13.300507
20
-8.4730898
11
13.2725937
21
-8.4467251
0
LINE
8
layer0
10
13.2725937
20
-8.4467251
11
13.2451178
21
-8.4252337
0
LINE
8
layer0
10
13.2451178
20
-8.4252337
11
13.2182756
21
-8.408573
0
LINE
8
layer0
10
13.2182756
20
-8.408573
11
13.192235
21
-8.3967093
0
LINE
8
layer0
10
13.192235
20
-8.3967093
11
13.1672019
21
-8.3895969
0
LINE
8
layer0
10
13.1672019
20
-8.3895969
11
13.1433601
21
-8.3871864
0
LINE
8
layer0
10
13.1433601
20
-8.3871864
11
13.1208935
21
-8.3894288
0
LINE
8
layer0
10
13.1208935
20
-8.3894288
11
13.1050491
21
-8.3941248
0
LINE
8
layer0
10
13.1050491
20
-8.3941248
11
12.9650599
21
-8.444615
0
LINE
8
layer0
10
12.9650599
20
-8.444615
11
12.7657021
21
-8.5119558
0
LINE
8
layer0
10
12.7657021
20
-8.5119558
11
12.5648363
21
-8.5746555
0
LINE
8
layer0
10
12.5648363
20
-8.5746555
11
12.4219052
21
-8.6160917
0
LINE
8
layer0
10
12.4219052
20
-8.6160917
11
12.4063267
21
-8.6216056
0
LINE
8
layer0
10
12.4063267
20
-8.6216056
11
12.3868327
21
-8.6329971
0
LINE
8
layer0
10
12.3868327
20
-8.6329971
11
12.3689612
21
-8.648961
0
LINE
8
layer0
10
12.3689612
20
-8.648961
11
12.3528896
21
-8.6694292
0
LINE
8
layer0
10
12.3528896
20
-8.6694292
11
12.3387956
21
-8.6943334
0
LINE
8
layer0
10
12.3387956
20
-8.6943334
11
12.3268727
21
-8.7235897
0
LINE
8
layer0
10
12.3268727
20
-8.7235897
11
12.3172765
21
-8.7571265
0
LINE
8
layer0
10
12.3172765
20
-8.7571265
11
12.3101909
21
-8.794863
0
LINE
8
layer0
10
12.3101909
20
-8.794863
11
12.3057908
21
-8.8366899
0
LINE
8
layer0
10
12.3057908
20
-8.8366899
11
12.3056883
21
-8.932259
0
LINE
8
layer0
10
12.3056883
20
-8.932259
11
12.3182909
21
-9.0429838
0
LINE
8
layer0
10
12.3182909
20
-9.0429838
11
12.3395921
21
-9.1592835
0
LINE
8
layer0
10
12.3395921
20
-9.1592835
11
12.3510252
21
-9.2799356
0
LINE
8
layer0
10
12.3510252
20
-9.2799356
11
12.3539252
21
-9.3636466
0
LINE
8
layer0
10
12.3539252
20
-9.3636466
11
12.3532387
21
-9.4640845
0
LINE
8
layer0
10
12.3532387
20
-9.4640845
11
12.347622
21
-9.5803507
0
LINE
8
layer0
10
12.347622
20
-9.5803507
11
12.3354903
21
-9.7145897
0
LINE
8
layer0
10
12.3354903
20
-9.7145897
11
12.3157346
21
-9.8633556
0
LINE
8
layer0
10
12.3157346
20
-9.8633556
11
12.2866295
21
-10.0289756
0
LINE
8
layer0
10
12.2866295
20
-10.0289756
11
12.2473604
21
-10.2079396
0
LINE
8
layer0
10
12.2473604
20
-10.2079396
11
12.1965902
21
-10.4005978
0
LINE
8
layer0
10
12.1965902
20
-10.4005978
11
12.1325566
21
-10.6079014
0
LINE
8
layer0
10
12.1325566
20
-10.6079014
11
12.062905
21
-10.8048177
0
ARC
8
layer0
10
9.9999973
20
0.0000151
40
11
50
277.1909186
51
280.8090848
0
LINE
8
layer0
10
11.376933
20
-10.913465
11
11.24984
21
-10.74771
0
LINE
8
layer0
10
11.24984
20
-10.74771
11
11.12488
21
-10.57034
0
LINE
8
layer0
10
11.12488
20
-10.57034
11
11.01706
21
-10.4028
0
LINE
8
layer0
10
11.01706
20
-10.4028
11
10.92441
21
-10.24473
0
LINE
8
layer0
10
10.92441
20
-10.24473
11
10.84555
21
-10.09621
0
LINE
8
layer0
10
10.84555
20
-10.09621
11
10.78079
21
-9.96083
0
LINE
8
layer0
10
10.78079
20
-9.96083
11
10.72777
21
-9.83691
0
LINE
8
layer0
10
10.72777
20
-9.83691
11
10.6865
21
-9.72807
0
LINE
8
layer0
10
10.6865
20
-9.72807
11
10.65481
21
-9.63276
0
LINE
8
layer0
10
10.65481
20
-9.63276
11
10.6317
21
-9.55225
0
LINE
8
layer0
10
10.6317
20
-9.55225
11
10.60529
21
-9.43397
0
LINE
8
layer0
10
10.60529
20
-9.43397
11
10.58961
21
-9.31678
0
LINE
8
layer0
10
10.58961
20
-9.31678
11
10.56738
21
-9.20758
0
LINE
8
layer0
10
10.56738
20
-9.20758
11
10.53775
21
-9.11672
0
LINE
8
layer0
10
10.53775
20
-9.11672
11
10.52064
21
-9.0783
0
LINE
8
layer0
10
10.52064
20
-9.0783
11
10.50224
21
-9.0446
0
LINE
8
layer0
10
10.50224
20
-9.0446
11
10.48275
21
-9.01567
0
LINE
8
layer0
10
10.48275
20
-9.01567
11
10.46237
21
-8.99153
0
LINE
8
layer0
10
10.46237
20
-8.99153
11
10.44127
21
-8.9722
0
LINE
8
layer0
10
10.44127
20
-8.9722
11
10.41966
21
-8.9577
0
LINE
8
layer0
10
10.41966
20
-8.9577
11
10.39773
21
-8.94804
0
LINE
8
layer0
10
10.39773
20
-8.94804
11
10.37567
21
-8.94323
0
LINE
8
layer0
10
10.37567
20
-8.94323
11
10.35915
21
-8.9428
0
LINE
8
layer0
10
10.35915
20
-8.9428
11
10.21041
21
-8.94756
0
LINE
8
layer0
10
10.21041
20
-8.94756
11
10
21
-8.95
0
LINE
8
layer0
10
10
20
-8.95
11
9.78959
21
-8.94756
0
LINE
8
layer0
10
9.78959
20
-8.94756
11
9.64085
21
-8.9428
0
LINE
8
layer0
10
9.64085
20
-8.9428
11
9.62433
21
-8.94323
0
LINE
8
layer0
10
9.62433
20
-8.94323
11
9.60227
21
-8.94804
0
LINE
8
layer0
10
9.60227
20
-8.94804
11
9.58034
21
-8.9577
0
LINE
8
layer0
10
9.58034
20
-8.9577
11
9.55873
21
-8.9722
0
LINE
8
layer0
10
9.55873
20
-8.9722
11
9.53763
21
-8.99153
0
LINE
8
layer0
10
9.53763
20
-8.99153
11
9.51725
21
-9.01567
0
LINE
8
layer0
10
9.51725
20
-9.01567
11
9.49776
21
-9.0446
0
LINE
8
layer0
10
9.49776
20
-9.0446
11
9.47936
21
-9.0783
0
LINE
8
layer0
10
9.47936
20
-9.0783
11
9.46225
21
-9.11672
0
LINE
8
layer0
10
9.46225
20
-9.11672
11
9.43262
21
-9.20758
0
LINE
8
layer0
10
9.43262
20
-9.20758
11
9.41039
21
-9.31678
0
LINE
8
layer0
10
9.41039
20
-9.31678
11
9.39471
21
-9.43397
0
LINE
8
layer0
10
9.39471
20
-9.43397
11
9.3683
21
-9.55225
0
LINE
8
layer0
10
9.3683
20
-9.55225
11
9.34519
21
-9.63276
0
LINE
8
layer0
10
9.34519
20
-9.63276
11
9.3135
21
-9.72807
0
LINE
8
layer0
10
9.3135
20
-9.72807
11
9.27223
21
-9.83691
0
LINE
8
layer0
10
9.27223
20
-9.83691
11
9.21921
21
-9.96083
0
LINE
8
layer0
10
9.21921
20
-9.96083
11
9.15445
21
-10.09621
0
LINE
8
layer0
10
9.15445
20
-10.09621
11
9.07559
21
-10.24473
0
LINE
8
layer0
10
9.07559
20
-10.24473
11
8.98294
21
-10.4028
0
LINE
8
layer0
10
8.98294
20
-10.4028
11
8.87512
21
-10.57034
0
LINE
8
layer0
10
8.87512
20
-10.57034
11
8.75016
21
-10.74771
0
LINE
8
layer0
10
8.75016
20
-10.74771
11
8.623067
21
-10.913465
0
ARC
8
layer0
10
10.0000029
20
0.0000151
40
11
50
259.1909147
51
262.8090809
0
LINE
8
layer0
10
7.937095
20
-10.8048177
11
7.8674434
21
-10.6079014
0
LINE
8
layer0
10
7.8674434
20
-10.6079014
11
7.8034098
21
-10.4005978
0
LINE
8
layer0
10
7.8034098
20
-10.4005978
11
7.7526396
21
-10.2079396
0
LINE
8
layer0
10
7.7526396
20
-10.2079396
11
7.7133705
21
-10.0289756
0
LINE
8
layer0
10
7.7133705
20
-10.0289756
11
7.6842654
21
-9.8633556
0
LINE
8
layer0
10
7.6842654
20
-9.8633556
11
7.6645097
21
-9.7145897
0
LINE
8
layer0
10
7.6645097
20
-9.7145897
11
7.652378
21
-9.5803507
0
LINE
8
layer0
10
7.652378
20
-9.5803507
11
7.6467613
21
-9.4640845
0
LINE
8
layer0
10
7.6467613
20
-9.4640845
11
7.6460748
21
-9.3636466
0
LINE
8
layer0
10
7.6460748
20
-9.3636466
11
7.6489748
21
-9.2799356
0
LINE
8
layer0
10
7.6489748
20
-9.2799356
11
7.6604079
21
-9.1592835
0
LINE
8
layer0
10
7.6604079
20
-9.1592835
11
7.6817091
21
-9.0429838
0
LINE
8
layer0
10
7.6817091
20
-9.0429838
11
7.6943117
21
-8.932259
0
LINE
8
layer0
10
7.6943117
20
-8.932259
11
7.6942092
21
-8.8366899
0
LINE
8
layer0
10
7.6942092
20
-8.8366899
11
7.6898091
21
-8.794863
0
LINE
8
layer0
10
7.6898091
20
-8.794863
11
7.6827235
21
-8.7571265
0
LINE
8
layer0
10
7.6827235
20
-8.7571265
11
7.6731273
21
-8.7235897
0
LINE
8
layer0
10
7.6731273
20
-8.7235897
11
7.6612044
21
-8.6943334
0
LINE
8
layer0
10
7.6612044
20
-8.6943334
11
7.6471104
21
-8.6694292
0
LINE
8
layer0
10
7.6471104
20
-8.6694292
11
7.6310388
21
-8.648961
0
LINE
8
layer0
10
7.6310388
20
-8.648961
11
7.6131673
21
-8.6329971
0
LINE
8
layer0
10
7.6131673
20
-8.6329971
11
7.5936733
21
-8.6216056
0
LINE
8
layer0
10
7.5936733
20
-8.6216056
11
7.5780948
21
-8.6160917
0
LINE
8
layer0
10
7.5780948
20
-8.6160917
11
7.4351637
21
-8.5746555
0
LINE
8
layer0
10
7.4351637
20
-8.5746555
11
7.2342979
21
-8.5119558
0
LINE
8
layer0
10
7.2342979
20
-8.5119558
11
7.0349401
21
-8.444615
0
LINE
8
layer0
10
7.0349401
20
-8.444615
11
6.8949509
21
-8.3941248
0
LINE
8
layer0
10
6.8949509
20
-8.3941248
11
6.8791065
21
-8.3894288
0
LINE
8
layer0
10
6.8791065
20
-8.3894288
11
6.8566399
21
-8.3871864
0
LINE
8
layer0
10
6.8566399
20
-8.3871864
11
6.8327981
21
-8.3895969
0
LINE
8
layer0
10
6.8327981
20
-8.3895969
11
6.807765
21
-8.3967093
0
LINE
8
layer0
10
6.807765
20
-8.3967093
11
6.7817244
21
-8.408573
0
LINE
8
layer0
10
6.7817244
20
-8.408573
11
6.7548822
21
-8.4252337
0
LINE
8
layer0
10
6.7548822
20
-8.4252337
11
6.7274063
21
-8.4467251
0
LINE
8
layer0
10
6.7274063
20
-8.4467251
11
6.699493
21
-8.4730898
0
LINE
8
layer0
10
6.699493
20
-8.4730898
11
6.6713479
21
-8.5043421
0
LINE
8
layer0
10
6.6713479
20
-8.5043421
11
6.6150909
21
-8.5815989
0
LINE
8
layer0
10
6.6150909
20
-8.5815989
11
6.5602042
21
-8.6785848
0
LINE
8
layer0
10
6.5602042
20
-8.6785848
11
6.5090779
21
-8.7851937
0
LINE
8
layer0
10
6.5090779
20
-8.7851937
11
6.44741
21
-8.8895236
0
LINE
8
layer0
10
6.44741
20
-8.8895236
11
6.4005521
21
-8.9589517
0
LINE
8
layer0
10
6.4005521
20
-8.9589517
11
6.3409607
21
-9.0398042
0
LINE
8
layer0
10
6.3409607
20
-9.0398042
11
6.2680772
21
-9.1305641
0
LINE
8
layer0
10
6.2680772
20
-9.1305641
11
6.1793588
21
-9.2320349
0
LINE
8
layer0
10
6.1793588
20
-9.2320349
11
6.0759337
21
-9.340777
0
LINE
8
layer0
10
6.0759337
20
-9.340777
11
5.9550382
21
-9.4576588
0
LINE
8
layer0
10
5.9550382
20
-9.4576588
11
5.8180765
21
-9.5793619
0
LINE
8
layer0
10
5.8180765
20
-9.5793619
11
5.6637608
21
-9.7053837
0
LINE
8
layer0
10
5.6637608
20
-9.7053837
11
5.4901065
21
-9.8354578
0
LINE
8
layer0
10
5.4901065
20
-9.8354578
11
5.3180127
21
-9.9538263
0
ARC
8
layer0
10
10.0000073
20
0.0000135
40
11
50
241.190915
51
244.8090813
0
LINE
8
layer0
10
4.6991885
20
-9.6385196
11
4.6937964
21
-9.4297176
0
LINE
8
layer0
10
4.6937964
20
-9.4297176
11
4.6969571
21
-9.2127726
0
LINE
8
layer0
10
4.6969571
20
-9.2127726
11
4.7082064
21
-9.0138549
0
LINE
8
layer0
10
4.7082064
20
-9.0138549
11
4.7261622
21
-8.8315152
0
LINE
8
layer0
10
4.7261622
20
-8.8315152
11
4.749661
21
-8.6650073
0
LINE
8
layer0
10
4.749661
20
-8.6650073
11
4.7768434
21
-8.5174176
0
LINE
8
layer0
10
4.7768434
20
-8.5174176
11
4.8067877
21
-8.3859998
0
LINE
8
layer0
10
4.8067877
20
-8.3859998
11
4.8373741
21
-8.2736885
0
LINE
8
layer0
10
4.8373741
20
-8.2736885
11
4.8677582
21
-8.1779542
0
LINE
8
layer0
10
4.8677582
20
-8.1779542
11
4.8963844
21
-8.0992365
0
LINE
8
layer0
10
4.8963844
20
-8.0992365
11
4.9445415
21
-7.9880226
0
LINE
8
layer0
10
4.9445415
20
-7.9880226
11
5.0007386
21
-7.8839974
0
LINE
8
layer0
10
5.0007386
20
-7.8839974
11
5.0469403
21
-7.7825863
0
LINE
8
layer0
10
5.0469403
20
-7.7825863
11
5.0763753
21
-7.6916629
0
LINE
8
layer0
10
5.0763753
20
-7.6916629
11
5.0851158
21
-7.6505235
0
LINE
8
layer0
10
5.0851158
20
-7.6505235
11
5.0900382
21
-7.6124444
0
LINE
8
layer0
10
5.0900382
20
-7.6124444
11
5.0912751
21
-7.5775836
0
LINE
8
layer0
10
5.0912751
20
-7.5775836
11
5.0889765
21
-7.5460748
0
LINE
8
layer0
10
5.0889765
20
-7.5460748
11
5.0832681
21
-7.5180343
0
LINE
8
layer0
10
5.0832681
20
-7.5180343
11
5.0743081
21
-7.4936015
0
LINE
8
layer0
10
5.0743081
20
-7.4936015
11
5.0622444
21
-7.4728963
0
LINE
8
layer0
10
5.0622444
20
-7.4728963
11
5.0472247
21
-7.4560383
0
LINE
8
layer0
10
5.0472247
20
-7.4560383
11
5.0341125
21
-7.4459803
0
LINE
8
layer0
10
5.0341125
20
-7.4459803
11
4.9109815
21
-7.362404
0
LINE
8
layer0
10
4.9109815
20
-7.362404
11
4.739322
21
-7.2407021
0
LINE
8
layer0
10
4.739322
20
-7.2407021
11
4.5705309
21
-7.1150522
0
LINE
8
layer0
10
4.5705309
20
-7.1150522
11
4.4529956
21
-7.0237741
0
LINE
8
layer0
10
4.4529956
20
-7.0237741
11
4.4393779
21
-7.0144118
0
LINE
8
layer0
10
4.4393779
20
-7.0144118
11
4.4187037
21
-7.0053366
0
LINE
8
layer0
10
4.4187037
20
-7.0053366
11
4.395284
21
-7.0002616
0
LINE
8
layer0
10
4.395284
20
-7.0002616
11
4.3692782
21
-6.9992903
0
LINE
8
layer0
10
4.3692782
20
-6.9992903
11
4.3408461
21
-7.0025263
0
LINE
8
layer0
10
4.3408461
20
-7.0025263
11
4.3101692
21
-7.0100769
0
LINE
8
layer0
10
4.3101692
20
-7.0100769
11
4.2773968
21
-7.0220258
0
LINE
8
layer0
10
4.2773968
20
-7.0220258
11
4.2427025
21
-7.0384745
0
LINE
8
layer0
10
4.2427025
20
-7.0384745
11
4.2062775
21
-7.0594999
0
LINE
8
layer0
10
4.2062775
20
-7.0594999
11
4.1289002
21
-7.1155911
0
LINE
8
layer0
10
4.1289002
20
-7.1155911
11
4.0467296
21
-7.1908693
0
LINE
8
layer0
10
4.0467296
20
-7.1908693
11
3.9651617
21
-7.2764615
0
LINE
8
layer0
10
3.9651617
20
-7.2764615
11
3.8742723
21
-7.3566286
0
LINE
8
layer0
10
3.8742723
20
-7.3566286
11
3.8082533
21
-7.4081789
0
LINE
8
layer0
10
3.8082533
20
-7.4081789
11
3.7265938
21
-7.4666594
0
LINE
8
layer0
10
3.7265938
20
-7.4666594
11
3.6292311
21
-7.5304549
0
LINE
8
layer0
10
3.6292311
20
-7.5304549
11
3.5134986
21
-7.5995439
0
LINE
8
layer0
10
3.5134986
20
-7.5995439
11
3.3815323
21
-7.6710036
0
LINE
8
layer0
10
3.3815323
20
-7.6710036
11
3.2304354
21
-7.7448061
0
LINE
8
layer0
10
3.2304354
20
-7.7448061
11
3.0625688
21
-7.8182291
0
LINE
8
layer0
10
3.0625688
20
-7.8182291
11
2.876863
21
-7.8903968
0
LINE
8
layer0
10
2.876863
20
-7.8903968
11
2.6715128
21
-7.9604425
0
LINE
8
layer0
10
2.6715128
20
-7.9604425
11
2.471264
21
-8.0198377
0
ARC
8
layer0
10
10.0000108
20
0.0000109
40
11
50
223.1909171
51
226.8090836
0
LINE
8
layer0
10
1.9801623
20
-7.528736
11
2.0395575
21
-7.3284872
0
LINE
8
layer0
10
2.0395575
20
-7.3284872
11
2.1096032
21
-7.123137
0
LINE
8
layer0
10
2.1096032
20
-7.123137
11
2.1817709
21
-6.9374312
0
LINE
8
layer0
10
2.1817709
20
-6.9374312
11
2.2551939
21
-6.7695646
0
LINE
8
layer0
10
2.2551939
20
-6.7695646
11
2.3289964
21
-6.6184677
0
LINE
8
layer0
10
2.3289964
20
-6.6184677
11
2.4004561
21
-6.4865014
0
LINE
8
layer0
10
2.4004561
20
-6.4865014
11
2.4695451
21
-6.3707689
0
LINE
8
layer0
10
2.4695451
20
-6.3707689
11
2.5333406
21
-6.2734062
0
LINE
8
layer0
10
2.5333406
20
-6.2734062
11
2.5918211
21
-6.1917467
0
LINE
8
layer0
10
2.5918211
20
-6.1917467
11
2.6433714
21
-6.1257277
0
LINE
8
layer0
10
2.6433714
20
-6.1257277
11
2.7235385
21
-6.0348383
0
LINE
8
layer0
10
2.7235385
20
-6.0348383
11
2.8091307
21
-5.9532704
0
LINE
8
layer0
10
2.8091307
20
-5.9532704
11
2.8844089
21
-5.8710998
0
LINE
8
layer0
10
2.8844089
20
-5.8710998
11
2.9405001
21
-5.7937225
0
LINE
8
layer0
10
2.9405001
20
-5.7937225
11
2.9615255
21
-5.7572975
0
LINE
8
layer0
10
2.9615255
20
-5.7572975
11
2.9779742
21
-5.7226032
0
LINE
8
layer0
10
2.9779742
20
-5.7226032
11
2.9899231
21
-5.6898308
0
LINE
8
layer0
10
2.9899231
20
-5.6898308
11
2.9974737
21
-5.6591539
0
LINE
8
layer0
10
2.9974737
20
-5.6591539
11
3.0007097
21
-5.6307218
0
LINE
8
layer0
10
3.0007097
20
-5.6307218
11
2.9997384
21
-5.604716
0
LINE
8
layer0
10
2.9997384
20
-5.604716
11
2.9946634
21
-5.5812963
0
LINE
8
layer0
10
2.9946634
20
-5.5812963
11
2.9855882
21
-5.5606221
0
LINE
8
layer0
10
2.9855882
20
-5.5606221
11
2.9762259
21
-5.5470044
0
LINE
8
layer0
10
2.9762259
20
-5.5470044
11
2.8849478
21
-5.4294691
0
LINE
8
layer0
10
2.8849478
20
-5.4294691
11
2.7592979
21
-5.260678
0
LINE
8
layer0
10
2.7592979
20
-5.260678
11
2.637596
21
-5.0890185
0
LINE
8
layer0
10
2.637596
20
-5.0890185
11
2.5540197
21
-4.9658875
0
LINE
8
layer0
10
2.5540197
20
-4.9658875
11
2.5439617
21
-4.9527753
0
LINE
8
layer0
10
2.5439617
20
-4.9527753
11
2.5271037
21
-4.9377556
0
LINE
8
layer0
10
2.5271037
20
-4.9377556
11
2.5063985
21
-4.9256919
0
LINE
8
layer0
10
2.5063985
20
-4.9256919
11
2.4819657
21
-4.9167319
0
LINE
8
layer0
10
2.4819657
20
-4.9167319
11
2.4539252
21
-4.9110235
0
LINE
8
layer0
10
2.4539252
20
-4.9110235
11
2.4224164
21
-4.9087249
0
LINE
8
layer0
10
2.4224164
20
-4.9087249
11
2.3875556
21
-4.9099618
0
LINE
8
layer0
10
2.3875556
20
-4.9099618
11
2.3494765
21
-4.9148842
0
LINE
8
layer0
10
2.3494765
20
-4.9148842
11
2.3083371
21
-4.9236247
0
LINE
8
layer0
10
2.3083371
20
-4.9236247
11
2.2174137
21
-4.9530597
0
LINE
8
layer0
10
2.2174137
20
-4.9530597
11
2.1160026
21
-4.9992614
0
LINE
8
layer0
10
2.1160026
20
-4.9992614
11
2.0119774
21
-5.0554585
0
LINE
8
layer0
10
2.0119774
20
-5.0554585
11
1.9007635
21
-5.1036156
0
LINE
8
layer0
10
1.9007635
20
-5.1036156
11
1.8220458
21
-5.1322418
0
LINE
8
layer0
10
1.8220458
20
-5.1322418
11
1.7263115
21
-5.1626259
0
LINE
8
layer0
10
1.7263115
20
-5.1626259
11
1.6140002
21
-5.1932123
0
LINE
8
layer0
10
1.6140002
20
-5.1932123
11
1.4825824
21
-5.2231566
0
LINE
8
layer0
10
1.4825824
20
-5.2231566
11
1.3349927
21
-5.250339
0
LINE
8
layer0
10
1.3349927
20
-5.250339
11
1.1684848
21
-5.2738378
0
LINE
8
layer0
10
1.1684848
20
-5.2738378
11
0.9861451
21
-5.2917936
0
LINE
8
layer0
10
0.9861451
20
-5.2917936
11
0.7872274
21
-5.3030429
0
LINE
8
layer0
10
0.7872274
20
-5.3030429
11
0.5702824
21
-5.3062036
0
LINE
8
layer0
10
0.5702824
20
-5.3062036
11
0.3614804
21
-5.3008115
0
ARC
8
layer0
10
10.0000135
20
0.0000072
40
11
50
205.1909182
51
208.8090845
0
LINE
8
layer0
10
0.0461737
20
-4.6819873
11
0.1645422
21
-4.5098935
0
LINE
8
layer1
10
-1.05
20
-10.5923449
11
1
21
-9.8462059
0
LINE
8
layer1
10
1
20
-9.8462059
11
1
21
-9.00335
0
LINE
8
layer1
10
1
20
-9.00335
11
-1.05
21
-8.2572111
0
LINE
8
layer1
10
-1.05
20
-8.2572111
11
-1.05
21
-7.4507522
0
LINE
8
layer1
10
-1.05
20
-7.4507522
11
1
21
-6.7046132
0
LINE
8
layer1
10
1
20
-6.7046132
11
1
21
-5.8617574
0
LINE
8
layer1
10
1
20
-5.8617574
11
-1.05
21
-5.1156184
0
LINE
8
layer1
10
-1.05
20
-5.1156184
11
-1.05
21
-4.3091596
0
LINE
8
layer1
10
-1.05
20
-4.3091596
11
1
21
-3.5630206
0
LINE
8
layer1
10
1
20
-3.5630206
11
1
21
-2.7201647
0
LINE
8
layer1
10
1
20
-2.7201647
11
-1.05
21
-1.9740257
0
LINE
8
layer1
10
-1.05
20
-1.9740257
11
-1.05
21
-1.1675669
0
LINE
8
layer1
10
-1.05
20
-1.1675669
11
1
21
-0.4214279
0
LINE
8
layer1
10
1
20
-0.4214279
11
1
21
0.4214279
0
LINE
8
layer1
10
1
20
0.4214279
11
-1.05
21
1.1675669
0
LINE
8
layer1
10
-1.05
20
1.1675669
11
-1.05
21
1.9740257
0
LINE
8
layer1
10
-1.05
20
1.9740257
11
1
21
2.7201647
0
LINE
8
layer1
10
1
20
2.7201647
11
1
21
3.5630206
0
LINE
8
layer1
10
1
20
3.5630206
11
-1.05
21
4.3091596
0
LINE
8
layer1
10
-1.05
20
4.3091596
11
-1.05
21
5.1156184
0
LINE
8
layer1
10
-1.05
20
5.1156184
11
1
21
5.8617574
0
LINE
8
layer1
10
1
20
5.8617574
11
1
21
6.7046132
0
LINE
8
layer1
10
1
20
6.7046132
11
-1.05
21
7.4507522
0
LINE
8
layer1
10
-1.05
20
7.4507522
11
-1.05
21
8.2572111
0
LINE
8
layer1
10
-1.05
20
8.2572111
11
1
21
9.00335
0
LINE
8
layer1
10
1
20
9.00335
11
1
21
9.8462059
0
LINE
8
layer1
10
1
20
9.8462059
11
-1.05
21
10.5923449
0
LINE
8
layer1
10
-1.05
20
10.5923449
11
-2.6207963
21
10.5923449
0
LINE
8
layer1
10
-2.6207963
20
10.5923449
11
-2.6207963
21
-10.5923449
0
LINE
8
layer1
10
-2.6207963
20
-10.5923449
11
-1.05
21
-10.5923449
0
LINE
8
layer2
10
0.1645422
20
-4.5098935
11
0.2946163
21
-4.3362392
0
LINE
8
layer2
10
0.2946163
20
-4.3362392
11
0.4206381
21
-4.1819235
0
LINE
8
layer2
10
0.4206381
20
-4.1819235
11
0.5423412
21
-4.0449618
0
LINE
8
layer2
10
0.5423412
20
-4.0449618
11
0.659223
21
-3.9240663
0
LINE
8
layer2
10
0.659223
20
-3.9240663
11
0.7679651
21
-3.8206412
0
LINE
8
layer2
10
0.7679651
20
-3.8206412
11
0.8694359
21
-3.7319228
0
LINE
8
layer2
10
0.8694359
20
-3.7319228
11
0.9601958
21
-3.6590393
0
LINE
8
layer2
10
0.9601958
20
-3.6590393
11
1.0410483
21
-3.5994479
0
LINE
8
layer2
10
1.0410483
20
-3.5994479
11
1.1104764
21
-3.55259
0
LINE
8
layer2
10
1.1104764
20
-3.55259
11
1.2148063
21
-3.4909221
0
LINE
8
layer2
10
1.2148063
20
-3.4909221
11
1.3214152
21
-3.4397958
0
LINE
8
layer2
10
1.3214152
20
-3.4397958
11
1.4184011
21
-3.3849091
0
LINE
8
layer2
10
1.4184011
20
-3.3849091
11
1.4956579
21
-3.3286521
0
LINE
8
layer2
10
1.4956579
20
-3.3286521
11
1.5269102
21
-3.300507
0
LINE
8
layer2
10
1.5269102
20
-3.300507
11
1.5532749
21
-3.2725937
0
LINE
8
layer2
10
1.5532749
20
-3.2725937
11
1.5747663
21
-3.2451178
0
LINE
8
layer2
10
1.5747663
20
-3.2451178
11
1.591427
21
-3.2182756
0
LINE
8
layer2
10
1.591427
20
-3.2182756
11
1.6032907
21
-3.192235
0
LINE
8
layer2
10
1.6032907
20
-3.192235
11
1.6104031
21
-3.1672019
0
LINE
8
layer2
10
1.6104031
20
-3.1672019
11
1.6128136
21
-3.1433601
0
LINE
8
layer2
10
1.6128136
20
-3.1433601
11
1.6105712
21
-3.1208935
0
LINE
8
layer2
10
1.6105712
20
-3.1208935
11
1.6058752
21
-3.1050491
0
LINE
8
layer2
10
1.6058752
20
-3.1050491
11
1.555385
21
-2.9650599
0
LINE
8
layer2
10
1.555385
20
-2.9650599
11
1.4880442
21
-2.7657021
0
LINE
8
layer2
10
1.4880442
20
-2.7657021
11
1.4253445
21
-2.5648363
0
LINE
8
layer2
10
1.4253445
20
-2.5648363
11
1.3839083
21
-2.4219052
0
LINE
8
layer2
10
1.3839083
20
-2.4219052
11
1.3783944
21
-2.4063267
0
LINE
8
layer2
10
1.3783944
20
-2.4063267
11
1.3670029
21
-2.3868327
0
LINE
8
layer2
10
1.3670029
20
-2.3868327
11
1.351039
21
-2.3689612
0
LINE
8
layer2
10
1.351039
20
-2.3689612
11
1.3305708
21
-2.3528896
0
LINE
8
layer2
10
1.3305708
20
-2.3528896
11
1.3056666
21
-2.3387956
0
LINE
8
layer2
10
1.3056666
20
-2.3387956
11
1.2764103
21
-2.3268727
0
LINE
8
layer2
10
1.2764103
20
-2.3268727
11
1.2428735
21
-2.3172765
0
LINE
8
layer2
10
1.2428735
20
-2.3172765
11
1.205137
21
-2.3101909
0
LINE
8
layer2
10
1.205137
20
-2.3101909
11
1.1633101
21
-2.3057908
0
LINE
8
layer2
10
1.1633101
20
-2.3057908
11
1.067741
21
-2.3056883
0
LINE
8
layer2
10
1.067741
20
-2.3056883
11
0.9570162
21
-2.3182909
0
LINE
8
layer2
10
0.9570162
20
-2.3182909
11
0.8407165
21
-2.3395921
0
LINE
8
layer2
10
0.8407165
20
-2.3395921
11
0.7200644
21
-2.3510252
0
LINE
8
layer2
10
0.7200644
20
-2.3510252
11
0.6363534
21
-2.3539252
0
LINE
8
layer2
10
0.6363534
20
-2.3539252
11
0.5359155
21
-2.3532387
0
LINE
8
layer2
10
0.5359155
20
-2.3532387
11
0.4196493
21
-2.347622
0
LINE
8
layer2
10
0.4196493
20
-2.347622
11
0.2854103
21
-2.3354903
0
LINE
8
layer2
10
0.2854103
20
-2.3354903
11
0.1366444
21
-2.3157346
0
LINE
8
layer2
10
0.1366444
20
-2.3157346
11
-0.0289756
21
-2.2866295
0
LINE
8
layer2
10
-0.0289756
20
-2.2866295
11
-0.2079396
21
-2.2473604
0
LINE
8
layer2
10
-0.2079396
20
-2.2473604
11
-0.4005978
21
-2.1965902
0
LINE
8
layer2
10
-0.4005978
20
-2.1965902
11
-0.6079014
21
-2.1325566
0
LINE
8
layer2
10
-0.6079014
20
-2.1325566
11
-0.8048177
21
-2.062905
0
ARC
8
layer2
10
10.0000151
20
0.0000027
40
11
50
187.1909186
51
190.8090848
0
LINE
8
layer2
10
-0.913465
20
-1.376933
11
-0.74771
21
-1.24984
0
LINE
8
layer2
10
-0.74771
20
-1.24984
11
-0.57034
21
-1.12488
0
LINE
8
layer2
10
-0.57034
20
-1.12488
11
-0.4028
21
-1.01706
0
LINE
8
layer2
10
-0.4028
20
-1.01706
11
-0.24473
21
-0.92441
0
LINE
8
layer2
10
-0.24473
20
-0.92441
11
-0.09621
21
-0.84555
0
LINE
8
layer2
10
-0.09621
20
-0.84555
11
0.03917
21
-0.78079
0
LINE
8
layer2
10
0.03917
20
-0.78079
11
0.16309
21
-0.72777
0
LINE
8
layer2
10
0.16309
20
-0.72777
11
0.27193
21
-0.6865
0
LINE
8
layer2
10
0.27193
20
-0.6865
11
0.36724
21
-0.65481
0
LINE
8
layer2
10
0.36724
20
-0.65481
11
0.44775
21
-0.6317
0
LINE
8
layer2
10
0.44775
20
-0.6317
11
0.56603
21
-0.60529
0
LINE
8
layer2
10
0.56603
20
-0.60529
11
0.68322
21
-0.58961
0
LINE
8
layer2
10
0.68322
20
-0.58961
11
0.79242
21
-0.56738
0
LINE
8
layer2
10
0.79242
20
-0.56738
11
0.88328
21
-0.53775
0
LINE
8
layer2
10
0.88328
20
-0.53775
11
0.9217
21
-0.52064
0
LINE
8
layer2
10
0.9217
20
-0.52064
11
0.9554
21
-0.50224
0
LINE
8
layer2
10
0.9554
20
-0.50224
11
0.98433
21
-0.48275
0
LINE
8
layer2
10
0.98433
20
-0.48275
11
1.00847
21
-0.46237
0
LINE
8
layer2
10
1.00847
20
-0.46237
11
1.0278
21
-0.44127
0
LINE
8
layer2
10
1.0278
20
-0.44127
11
1.0423
21
-0.41966
0
LINE
8
layer2
10
1.0423
20
-0.41966
11
1.05196
21
-0.39773
0
LINE
8
layer2
10
1.05196
20
-0.39773
11
1.05677
21
-0.37567
0
LINE
8
layer2
10
1.05677
20
-0.37567
11
1.0572
21
-0.35915
0
LINE
8
layer2
10
1.0572
20
-0.35915
11
1.05244
21
-0.21041
0
LINE
8
layer2
10
1.05244
20
-0.21041
11
1.05
21
0
0
LINE
8
layer2
10
1.05
20
0
11
1.05244
21
0.21041
0
LINE
8
layer2
10
1.05244
20
0.21041
11
1.0572
21
0.35915
0
LINE
8
layer2
10
1.0572
20
0.35915
11
1.05677
21
0.37567
0
LINE
8
layer2
10
1.05677
20
0.37567
11
1.05196
21
0.39773
0
LINE
8
layer2
10
1.05196
20
0.39773
11
1.0423
21
0.41966
0
LINE
8
layer2
10
1.0423
20
0.41966
11
1.0278
21
0.44127
0
LINE
8
layer2
10
1.0278
20
0.44127
11
1.00847
21
0.46237
0
LINE
8
layer2
10
1.00847
20
0.46237
11
0.98433
21
0.48275
0
LINE
8
layer2
10
0.98433
20
0.48275
11
0.9554
21
0.50224
0
LINE
8
layer2
10
0.9554
20
0.50224
11
0.9217
21
0.52064
0
LINE
8
layer2
10
0.9217
20
0.52064
11
0.88328
21
0.53775
0
LINE
8
layer2
10
0.88328
20
0.53775
11
0.79242
21
0.56738
0
LINE
8
layer2
10
0.79242
20
0.56738
11
0.68322
21
0.58961
0
LINE
8
layer2
10
0.68322
20
0.58961
11
0.56603
21
0.60529
0
LINE
8
layer2
10
0.56603
20
0.60529
11
0.44775
21
0.6317
0
LINE
8
layer2
10
0.44775
20
0.6317
11
0.36724
21
0.65481
0
LINE
8
layer2
10
0.36724
20
0.65481
11
0.27193
21
0.6865
0
LINE
8
layer2
10
0.27193
20
0.6865
11
0.16309
21
0.72777
0
LINE
8
layer2
10
0.16309
20
0.72777
11
0.03917
21
0.78079
0
LINE
8
layer2
10
0.03917
20
0.78079
11
-0.09621
21
0.84555
0
LINE
8
layer2
10
-0.09621
20
0.84555
11
-0.24473
21
0.92441
0
LINE
8
layer2
10
-0.24473
20
0.92441
11
-0.4028
21
1.01706
0
LINE
8
layer2
10
-0.4028
20
1.01706
11
-0.57034
21
1.12488
0
LINE
8
layer2
10
-0.57034
20
1.12488
11
-0.74771
21
1.24984
0
LINE
8
layer2
10
-0.74771
20
1.24984
11
-0.913465
21
1.376933
0
ARC
8
layer2
10
10.0000151
20
-0.0000029
40
11
50
169.1909147
51
172.8090809
0
LINE
8
layer2
10
-0.8048177
20
2.062905
11
-0.6079014
21
2.1325566
0
LINE
8
layer2
10
-0.6079014
20
2.1325566
11
-0.4005978
21
2.1965902
0
LINE
8
layer2
10
-0.4005978
20
2.1965902
11
-0.2079396
21
2.2473604
0
LINE
8
layer2
10
-0.2079396
20
2.2473604
11
-0.0289756
21
2.2866295
0
LINE
8
layer2
10
-0.0289756
20
2.2866295
11
0.1366444
21
2.3157346
0
LINE
8
layer2
10
0.1366444
20
2.3157346
11
0.2854103
21
2.3354903
0
LINE
8
layer2
10
0.2854103
20
2.3354903
11
0.4196493
21
2.347622
0
LINE
8
layer2
10
0.4196493
20
2.347622
11
0.5359155
21
2.3532387
0
LINE
8
layer2
10
0.5359155
20
2.3532387
11
0.6363534
21
2.3539252
0
LINE
8
layer2
10
0.6363534
20
2.3539252
11
0.7200644
21
2.3510252
0
LINE
8
layer2
10
0.7200644
20
2.3510252
11
0.8407165
21
2.3395921
0
LINE
8
layer2
10
0.8407165
20
2.3395921
11
0.9570162
21
2.3182909
0
LINE
8
layer2
10
0.9570162
20
2.3182909
11
1.067741
21
2.3056883
0
LINE
8
layer2
10
1.067741
20
2.3056883
11
1.1633101
21
2.3057908
0
LINE
8
layer2
10
1.1633101
20
2.3057908
11
1.205137
21
2.3101909
0
LINE
8
layer2
10
1.205137
20
2.3101909
11
1.2428735
21
2.3172765
0
LINE
8
layer2
10
1.2428735
20
2.3172765
11
1.2764103
21
2.3268727
0
LINE
8
layer2
10
1.2764103
20
2.3268727
11
1.3056666
21
2.3387956
0
LINE
8
layer2
10
1.3056666
20
2.3387956
11
1.3305708
21
2.3528896
0
LINE
8
layer2
10
1.3305708
20
2.3528896
11
1.351039
21
2.3689612
0
LINE
8
layer2
10
1.351039
20
2.3689612
11
1.3670029
21
2.3868327
0
LINE
8
layer2
10
1.3670029
20
2.3868327
11
1.3783944
21
2.4063267
0
LINE
8
layer2
10
1.3783944
20
2.4063267
11
1.3839083
21
2.4219052
0
LINE
8
layer2
10
1.3839083
20
2.4219052
11
1.4253445
21
2.5648363
0
LINE
8
layer2
10
1.4253445
20
2.5648363
11
1.4880442
21
2.7657021
0
LINE
8
layer2
10
1.4880442
20
2.7657021
11
1.555385
21
2.9650599
0
LINE
8
layer2
10
1.555385
20
2.9650599
11
1.6058752
21
3.1050491
0
LINE
8
layer2
10
1.6058752
20
3.1050491
11
1.6105712
21
3.1208935
0
LINE
8
layer2
10
1.6105712
20
3.1208935
11
1.6128136
21
3.1433601
0
LINE
8
layer2
10
1.6128136
20
3.1433601
11
1.6104031
21
3.1672019
0
LINE
8
layer2
10
1.6104031
20
3.1672019
11
1.6032907
21
3.192235
0
LINE
8
layer2
10
1.6032907
20
3.192235
11
1.591427
21
3.2182756
0
LINE
8
layer2
10
1.591427
20
3.2182756
11
1.5747663
21
3.2451178
0
LINE
8
layer2
10
1.5747663
20
3.2451178
11
1.5532749
21
3.2725937
0
LINE
8
layer2
10
1.5532749
20
3.2725937
11
1.5269102
21
3.300507
0
LINE
8
layer2
10
1.5269102
20
3.300507
11
1.4956579
21
3.3286521
0
LINE
8
layer2
10
1.4956579
20
3.3286521
11
1.4184011
21
3.3849091
0
LINE
8
layer2
10
1.4184011
20
3.3849091
11
1.3214152
21
3.4397958
0
LINE
8
layer2
10
1.3214152
20
3.4397958
11
1.2148063
21
3.4909221
0
LINE
8
layer2
10
1.2148063
20
3.4909221
11
1.1104764
21
3.55259
0
LINE
8
layer2
10
1.1104764
20
3.55259
11
1.0410483
21
3.5994479
0
LINE
8
layer2
10
1.0410483
20
3.5994479
11
0.9601958
21
3.6590393
0
LINE
8
layer2
10
0.9601958
20
3.6590393
11
0.8694359
21
3.7319228
0
LINE
8
layer2
10
0.8694359
20
3.7319228
11
0.7679651
21
3.8206412
0
LINE
8
layer2
10
0.7679651
20
3.8206412
11
0.659223
21
3.9240663
0
LINE
8
layer2
10
0.659223
20
3.9240663
11
0.5423412
21
4.0449618
0
LINE
8
layer2
10
0.5423412
20
4.0449618
11
0.4206381
21
4.1819235
0
LINE
8
layer2
10
0.4206381
20
4.1819235
11
0.2946163
21
4.3362392
0
LINE
8
layer2
10
0.2946163
20
4.3362392
11
0.1645422
21
4.5098935
0
LINE
8
layer2
10
0.1645422
20
4.5098935
11
0.0461737
21
4.6819873
0
ARC
8
layer2
10
10.0000135
20
-0.0000073
40
11
50
151.190915
51
154.8090813
0
LINE
8
layer2
10
0.3614804
20
5.3008115
11
0.5702824
21
5.3062036
0
LINE
8
layer2
10
0.5702824
20
5.3062036
11
0.7872274
21
5.3030429
0
LINE
8
layer2
10
0.7872274
20
5.3030429
11
0.9861451
21
5.2917936
0
LINE
8
layer2
10
0.9861451
20
5.2917936
11
1.1684848
21
5.2738378
0
LINE
8
layer2
10
1.1684848
20
5.2738378
11
1.3349927
21
5.250339
0
LINE
8
layer2
10
1.3349927
20
5.250339
11
1.4825824
21
5.2231566
0
LINE
8
layer2
10
1.4825824
20
5.2231566
11
1.6140002
21
5.1932123
0
LINE
8
layer2
10
1.6140002
20
5.1932123
11
1.7263115
21
5.1626259
0
LINE
8
layer2
10
1.7263115
20
5.1626259
11
1.8220458
21
5.1322418
0
LINE
8
layer2
10
1.8220458
20
5.1322418
11
1.9007635
21
5.1036156
0
LINE
8
layer2
10
1.9007635
20
5.1036156
11
2.0119774
21
5.0554585
0
LINE
8
layer2
10
2.0119774
20
5.0554585
11
2.1160026
21
4.9992614
0
LINE
8
layer2
10
2.1160026
20
4.9992614
11
2.2174137
21
4.9530597
0
LINE
8
layer2
10
2.2174137
20
4.9530597
11
2.3083371
21
4.9236247
0
LINE
8
layer2
10
2.3083371
20
4.9236247
11
2.3494765
21
4.9148842
0
LINE
8
layer2
10
2.3494765
20
4.9148842
11
2.3875556
21
4.9099618
0
LINE
8
layer2
10
2.3875556
20
4.9099618
11
2.4224164
21
4.9087249
0
LINE
8
layer2
10
2.4224164
20
4.9087249
11
2.4539252
21
4.9110235
0
LINE
8
layer2
10
2.4539252
20
4.9110235
11
2.4819657
21
4.9167319
0
LINE
8
layer2
10
2.4819657
20
4.9167319
11
2.5063985
21
4.9256919
0
LINE
8
layer2
10
2.5063985
20
4.9256919
11
2.5271037
21
4.9377556
0
LINE
8
layer2
10
2.5271037
20
4.9377556
11
2.5439617
21
4.9527753
0
LINE
8
layer2
10
2.5439617
20
4.9527753
11
2.5540197
21
4.9658875
0
LINE
8
layer2
10
2.5540197
20
4.9658875
11
2.637596
21
5.0890185
0
LINE
8
layer2
10
2.637596
20
5.0890185
11
2.7592979
21
5.260678
0
LINE
8
layer2
10
2.7592979
20
5.260678
11
2.8849478
21
5.4294691
0
LINE
8
layer2
10
2.8849478
20
5.4294691
11
2.9762259
21
5.5470044
0
LINE
8
layer2
10
2.9762259
20
5.5470044
11
2.9855882
21
5.5606221
0
LINE
8
layer2
10
2.9855882
20
5.5606221
11
2.9946634
21
5.5812963
0
LINE
8
layer2
10
2.9946634
20
5.5812963
11
2.9997384
21
5.604716
0
LINE
8
layer2
10
2.9997384
20
5.604716
11
3.0007097
21
5.6307218
0
LINE
8
layer2
10
3.0007097
20
5.6307218
11
2.9974737
21
5.6591539
0
LINE
8
layer2
10
2.9974737
20
5.6591539
11
2.9899231
21
5.6898308
0
LINE
8
layer2
10
2.9899231
20
5.6898308
11
2.9779742
21
5.7226032
0
LINE
8
layer2
10
2.9779742
20
5.7226032
11
2.9615255
21
5.7572975
0
LINE
8
layer2
10
2.9615255
20
5.7572975
11
2.9405001
21
5.7937225
0
LINE
8
layer2
10
2.9405001
20
5.7937225
11
2.8844089
21
5.8710998
0
LINE
8
layer2
10
2.8844089
20
5.8710998
11
2.8091307
21
5.9532704
0
LINE
8
layer2
10
2.8091307
20
5.9532704
11
2.7235385
21
6.0348383
0
LINE
8
layer2
10
2.7235385
20
6.0348383
11
2.6433714
21
6.1257277
0
LINE
8
layer2
10
2.6433714
20
6.1257277
11
2.5918211
21
6.1917467
0
LINE
8
layer2
10
2.5918211
20
6.1917467
11
2.5333406
21
6.2734062
0
LINE
8
layer2
10
2.5333406
20
6.2734062
11
2.4695451
21
6.3707689
0
LINE
8
layer2
10
2.4695451
20
6.3707689
11
2.4004561
21
6.4865014
0
LINE
8
layer2
10
2.4004561
20
6.4865014
11
2.3289964
21
6.6184677
0
LINE
8
layer2
10
2.3289964
20
6.6184677
11
2.2551939
21
6.7695646
0
LINE
8
layer2
10
2.2551939
20
6.7695646
11
2.1817709
21
6.9374312
0
LINE
8
layer2
10
2.1817709
20
6.9374312
11
2.1096032
21
7.123137
0
LINE
8
layer2
10
2.1096032
20
7.123137
11
2.0395575
21
7.3284872
0
LINE
8
layer2
10
2.0395575
20
7.3284872
11
1.9801623
21
7.528736
0
ARC
8
layer2
10
10.0000109
20
-0.0000108
40
11
50
133.1909171
51
136.8090836
0
LINE
8
layer2
10
2.471264
20
8.0198377
11
2.6715128
21
7.9604425
0
LINE
8
layer2
10
2.6715128
20
7.9604425
11
2.876863
21
7.8903968
0
LINE
8
layer2
10
2.876863
20
7.8903968
11
3.0625688
21
7.8182291
0
LINE
8
layer2
10
3.0625688
20
7.8182291
11
3.2304354
21
7.7448061
0
LINE
8
layer2
10
3.2304354
20
7.7448061
11
3.3815323
21
7.6710036
0
LINE
8
layer2
10
3.3815323
20
7.6710036
11
3.5134986
21
7.5995439
0
LINE
8
layer2
10
3.5134986
20
7.5995439
11
3.6292311
21
7.5304549
0
LINE
8
layer2
10
3.6292311
20
7.5304549
11
3.7265938
21
7.4666594
0
LINE
8
layer2
10
3.7265938
20
7.4666594
11
3.8082533
21
7.4081789
0
LINE
8
layer2
10
3.8082533
20
7.4081789
11
3.8742723
21
7.3566286
0
LINE
8
layer2
10
3.8742723
20
7.3566286
11
3.9651617
21
7.2764615
0
LINE
8
layer2
10
3.9651617
20
7.2764615
11
4.0467296
21
7.1908693
0
LINE
8
layer2
10
4.0467296
20
7.1908693
11
4.1289002
21
7.1155911
0
LINE
8
layer2
10
4.1289002
20
7.1155911
11
4.2062775
21
7.0594999
0
LINE
8
layer2
10
4.2062775
20
7.0594999
11
4.2427025
21
7.0384745
0
LINE
8
layer2
10
4.2427025
20
7.0384745
11
4.2773968
21
7.0220258
0
LINE
8
layer2
10
4.2773968
20
7.0220258
11
4.3101692
21
7.0100769
0
LINE
8
layer2
10
4.3101692
20
7.0100769
11
4.3408461
21
7.0025263
0
LINE
8
layer2
10
4.3408461
20
7.0025263
11
4.3692782
21
6.9992903
0
LINE
8
layer2
10
4.3692782
20
6.9992903
11
4.395284
21
7.0002616
0
LINE
8
layer2
10
4.395284
20
7.0002616
11
4.4187037
21
7.0053366
0
LINE
8
layer2
10
4.4187037
20
7.0053366
11
4.4393779
21
7.0144118
0
LINE
8
layer2
10
4.4393779
20
7.0144118
11
4.4529956
21
7.0237741
0
LINE
8
layer2
10
4.4529956
20
7.0237741
11
4.5705309
21
7.1150522
0
LINE
8
layer2
10
4.5705309
20
7.1150522
11
4.739322
21
7.2407021
0
LINE
8
layer2
10
4.739322
20
7.2407021
11
4.9109815
21
7.362404
0
LINE
8
layer2
10
4.9109815
20
7.362404
11
5.0341125
21
7.4459803
0
LINE
8
layer2
10
5.0341125
20
7.4459803
11
5.0472247
21
7.4560383
0
LINE
8
layer2
10
5.0472247
20
7.4560383
11
5.0622444
21
7.4728963
0
LINE
8
layer2
10
5.0622444
20
7.4728963
11
5.0743081
21
7.4936015
0
LINE
8
layer2
10
5.0743081
20
7.4936015
11
5.0832681
21
7.5180343
0
LINE
8
layer2
10
5.0832681
20
7.5180343
11
5.0889765
21
7.5460748
0
LINE
8
layer2
10
5.0889765
20
7.5460748
11
5.0912751
21
7.5775836
0
LINE
8
layer2
10
5.0912751
20
7.5775836
11
5.0900382
21
7.6124444
0
LINE
8
layer2
10
5.0900382
20
7.6124444
11
5.0851158
21
7.6505235
0
LINE
8
layer2
10
5.0851158
20
7.6505235
11
5.0763753
21
7.6916629
0
LINE
8
layer2
10
5.0763753
20
7.6916629
11
5.0469403
21
7.7825863
0
LINE
8
layer2
10
5.0469403
20
7.7825863
11
5.0007386
21
7.8839974
0
LINE
8
layer2
10
5.0007386
20
7.8839974
11
4.9445415
21
7.9880226
0
LINE
8
layer2
10
4.9445415
20
7.9880226
11
4.8963844
21
8.0992365
0
LINE
8
layer2
10
4.8963844
20
8.0992365
11
4.8677582
21
8.1779542
0
LINE
8
layer2
10
4.8677582
20
8.1779542
11
4.8373741
21
8.2736885
0
LINE
8
layer2
10
4.8373741
20
8.2736885
11
4.8067877
21
8.3859998
0
LINE
8
layer2
10
4.8067877
20
8.3859998
11
4.7768434
21
8.5174176
0
LINE
8
layer2
10
4.7768434
20
8.5174176
11
4.749661
21
8.6650073
0
LINE
8
layer2
10
4.749661
20
8.6650073
11
4.7261622
21
8.8315152
0
LINE
8
layer2
10
4.7261622
20
8.8315152
11
4.7082064
21
9.0138549
0
LINE
8
layer2
10
4.7082064
20
9.0138549
11
4.6969571
21
9.2127726
0
LINE
8
layer2
10
4.6969571
20
9.2127726
11
4.6937964
21
9.4297176
0
LINE
8
layer2
10
4.6937964
20
9.4297176
11
4.6991885
21
9.6385196
0
ARC
8
layer2
10
10.0000072
20
-0.0000135
40
11
50
115.1909182
51
118.8090845
0
LINE
8
layer2
10
5.3180127
20
9.9538263
11
5.4901065
21
9.8354578
0
LINE
8
layer2
10
5.4901065
20
9.8354578
11
5.6637608
21
9.7053837
0
LINE
8
layer2
10
5.6637608
20
9.7053837
11
5.8180765
21
9.5793619
0
LINE
8
layer2
10
5.8180765
20
9.5793619
11
5.9550382
21
9.4576588
0
LINE
8
layer2
10
5.9550382
20
9.4576588
11
6.0759337
21
9.340777
0
LINE
8
layer2
10
6.0759337
20
9.340777
11
6.1793588
21
9.2320349
0
LINE
8
layer2
10
6.1793588
20
9.2320349
11
6.2680772
21
9.1305641
0
LINE
8
layer2
10
6.2680772
20
9.1305641
11
6.3409607
21
9.0398042
0
LINE
8
layer2
10
6.3409607
20
9.0398042
11
6.4005521
21
8.9589517
0
LINE
8
layer2
10
6.4005521
20
8.9589517
11
6.44741
21
8.8895236
0
LINE
8
layer2
10
6.44741
20
8.8895236
11
6.5090779
21
8.7851937
0
LINE
8
layer2
10
6.5090779
20
8.7851937
11
6.5602042
21
8.6785848
0
LINE
8
layer2
10
6.5602042
20
8.6785848
11
6.6150909
21
8.5815989
0
LINE
8
layer2
10
6.6150909
20
8.5815989
11
6.6713479
21
8.5043421
0
LINE
8
layer2
10
6.6713479
20
8.5043421
11
6.699493
21
8.4730898
0
LINE
8
layer2
10
6.699493
20
8.4730898
11
6.7274063
21
8.4467251
0
LINE
8
layer2
10
6.7274063
20
8.4467251
11
6.7548822
21
8.4252337
0
LINE
8
layer2
10
6.7548822
20
8.4252337
11
6.7817244
21
8.408573
0
LINE
8
layer2
10
6.7817244
20
8.408573
11
6.807765
21
8.3967093
0
LINE
8
layer2
10
6.807765
20
8.3967093
11
6.8327981
21
8.3895969
0
LINE
8
layer2
10
6.8327981
20
8.3895969
11
6.8566399
21
8.3871864
0
LINE
8
layer2
10
6.8566399
20
8.3871864
11
6.8791065
21
8.3894288
0
LINE
8
layer2
10
6.8791065
20
8.3894288
11
6.8949509
21
8.3941248
0
LINE
8
layer2
10
6.8949509
20
8.3941248
11
7.0349401
21
8.444615
0
LINE
8
layer2
10
7.0349401
20
8.444615
11
7.2342979
21
8.5119558
0
LINE
8
layer2
10
7.2342979
20
8.5119558
11
7.4351637
21
8.5746555
0
LINE
8
layer2
10
7.4351637
20
8.5746555
11
7.5780948
21
8.6160917
0
LINE
8
layer2
10
7.5780948
20
8.6160917
11
7.5936733
21
8.6216056
0
LINE
8
layer2
10
7.5936733
20
8.6216056
11
7.6131673
21
8.6329971
0
LINE
8
layer2
10
7.6131673
20
8.6329971
11
7.6310388
21
8.648961
0
LINE
8
layer2
10
7.6310388
20
8.648961
11
7.6471104
21
8.6694292
0
LINE
8
layer2
10
7.6471104
20
8.6694292
11
7.6612044
21
8.6943334
0
LINE
8
layer2
10
7.6612044
20
8.6943334
11
7.6731273
21
8.7235897
0
LINE
8
layer2
10
7.6731273
20
8.7235897
11
7.6827235
21
8.7571265
0
LINE
8
layer2
10
7.6827235
20
8.7571265
11
7.6898091
21
8.794863
0
LINE
8
layer2
10
7.6898091
20
8.794863
11
7.6942092
21
8.8366899
0
LINE
8
layer2
10
7.6942092
20
8.8366899
11
7.6943117
21
8.932259
0
LINE
8
layer2
10
7.6943117
20
8.932259
11
7.6817091
21
9.0429838
0
LINE
8
layer2
10
7.6817091
20
9.0429838
11
7.6604079
21
9.1592835
0
LINE
8
layer2
10
7.6604079
20
9.1592835
11
7.6489748
21
9.2799356
0
LINE
8
layer2
10
7.6489748
20
9.2799356
11
7.6460748
21
9.3636466
0
LINE
8
layer2
10
7.6460748
20
9.3636466
11
7.6467613
21
9.4640845
0
LINE
8
layer2
10
7.6467613
20
9.4640845
11
7.652378
21
9.5803507
0
LINE
8
layer2
10
7.652378
20
9.5803507
11
7.6645097
21
9.7145897
0
LINE
8
layer2
10
7.6645097
20
9.7145897
11
7.6842654
21
9.8633556
0
LINE
8
layer2
10
7.6842654
20
9.8633556
11
7.7133705
21
10.0289756
0
LINE
8
layer2
10
7.7133705
20
10.0289756
11
7.7526396
21
10.2079396
0
LINE
8
layer2
10
7.7526396
20
10.2079396
11
7.8034098
21
10.4005978
0
LINE
8
layer2
10
7.8034098
20
10.4005978
11
7.8674434
21
10.6079014
0
LINE
8
layer2
10
7.8674434
20
10.6079014
11
7.937095
21
10.8048177
0
ARC
8
layer2
10
10.0000027
20
-0.0000151
40
11
50
97.1909186
51
100.8090848
0
LINE
8
layer2
10
8.623067
20
10.913465
11
8.75016
21
10.74771
0
LINE
8
layer2
10
8.75016
20
10.74771
11
8.87512
21
10.57034
0
LINE
8
layer2
10
8.87512
20
10.57034
11
8.98294
21
10.4028
0
LINE
8
layer2
10
8.98294
20
10.4028
11
9.07559
21
10.24473
0
LINE
8
layer2
10
9.07559
20
10.24473
11
9.15445
21
10.09621
0
LINE
8
layer2
10
9.15445
20
10.09621
11
9.21921
21
9.96083
0
LINE
8
layer2
10
9.21921
20
9.96083
11
9.27223
21
9.83691
0
LINE
8
layer2
10
9.27223
20
9.83691
11
9.3135
21
9.72807
0
LINE
8
layer2
10
9.3135
20
9.72807
11
9.34519
21
9.63276
0
LINE
8
layer2
10
9.34519
20
9.63276
11
9.3683
21
9.55225
0
LINE
8
layer2
10
9.3683
20
9.55225
11
9.39471
21
9.43397
0
LINE
8
layer2
10
9.39471
20
9.43397
11
9.41039
21
9.31678
0
LINE
8
layer2
10
9.41039
20
9.31678
11
9.43262
21
9.20758
0
LINE
8
layer2
10
9.43262
20
9.20758
11
9.46225
21
9.11672
0
LINE
8
layer2
10
9.46225
20
9.11672
11
9.47936
21
9.0783
0
LINE
8
layer2
10
9.47936
20
9.0783
11
9.49776
21
9.0446
0
LINE
8
layer2
10
9.49776
20
9.0446
11
9.51725
21
9.01567
0
LINE
8
layer2
10
9.51725
20
9.01567
11
9.53763
21
8.99153
0
LINE
8
layer2
10
9.53763
20
8.99153
11
9.55873
21
8.9722
0
LINE
8
layer2
10
9.55873
20
8.9722
11
9.58034
21
8.9577
0
LINE
8
layer2
10
9.58034
20
8.9577
11
9.60227
21
8.94804
0
LINE
8
layer2
10
9.60227
20
8.94804
11
9.62433
21
8.94323
0
LINE
8
layer2
10
9.62433
20
8.94323
11
9.64085
21
8.9428
0
LINE
8
layer2
10
9.64085
20
8.9428
11
9.78959
21
8.94756
0
LINE
8
layer2
10
9.78959
20
8.94756
11
10
21
8.95
0
LINE
8
layer2
10
10
20
8.95
11
10.21041
21
8.94756
0
LINE
8
layer2
10
10.21041
20
8.94756
11
10.35915
21
8.9428
0
LINE
8
layer2
10
10.35915
20
8.9428
11
10.37567
21
8.94323
0
LINE
8
layer2
10
10.37567
20
8.94323
11
10.39773
21
8.94804
0
LINE
8
layer2
10
10.39773
20
8.94804
11
10.41966
21
8.9577
0
LINE
8
layer2
10
10.41966
20
8.9577
11
10.44127
21
8.9722
0
LINE
8
layer2
10
10.44127
20
8.9722
11
10.46237
21
8.99153
0
LINE
8
layer2
10
10.46237
20
8.99153
11
10.48275
21
9.01567
0
LINE
8
layer2
10
10.48275
20
9.01567
11
10.50224
21
9.0446
0
LINE
8
layer2
10
10.50224
20
9.0446
11
10.52064
21
9.0783
0
LINE
8
layer2
10
10.52064
20
9.0783
11
10.53775
21
9.11672
0
LINE
8
layer2
10
10.53775
20
9.11672
11
10.56738
21
9.20758
0
LINE
8
layer2
10
10.56738
20
9.20758
11
10.58961
21
9.31678
0
LINE
8
layer2
10
10.58961
20
9.31678
11
10.60529
21
9.43397
0
LINE
8
layer2
10
10.60529
20
9.43397
11
10.6317
21
9.55225
0
LINE
8
layer2
10
10.6317
20
9.55225
11
10.65481
21
9.63276
0
LINE
8
layer2
10
10.65481
20
9.63276
11
10.6865
21
9.72807
0
LINE
8
layer2
10
10.6865
20
9.72807
11
10.72777
21
9.83691
0
LINE
8
layer2
10
10.72777
20
9.83691
11
10.78079
21
9.96083
0
LINE
8
layer2
10
10.78079
20
9.96083
11
10.84555
21
10.09621
0
LINE
8
layer2
10
10.84555
20
10.09621
11
10.92441
21
10.24473
0
LINE
8
layer2
10
10.92441
20
10.24473
11
11.01706
21
10.4028
0
LINE
8
layer2
10
11.01706
20
10.4028
11
11.12488
21
10.57034
0
LINE
8
layer2
10
11.12488
20
10.57034
11
11.24984
21
10.74771
0
LINE
8
layer2
10
11.24984
20
10.74771
11
11.376933
21
10.913465
0
ARC
8
layer2
10
9.9999971
20
-0.0000151
40
11
50
79.1909147
51
82.8090809
0
LINE
8
layer2
10
12.062905
20
10.8048177
11
12.1325566
21
10.6079014
0
LINE
8
layer2
10
12.1325566
20
10.6079014
11
12.1965902
21
10.4005978
0
LINE
8
layer2
10
12.1965902
20
10.4005978
11
12.2473604
21
10.2079396
0
LINE
8
layer2
10
12.2473604
20
10.2079396
11
12.2866295
21
10.0289756
0
LINE
8
layer2
10
12.2866295
20
10.0289756
11
12.3157346
21
9.8633556
0
LINE
8
layer2
10
12.3157346
20
9.8633556
11
12.3354903
21
9.7145897
0
LINE
8
layer2
10
12.3354903
20
9.7145897
11
12.347622
21
9.5803507
0
LINE
8
layer2
10
12.347622
20
9.5803507
11
12.3532387
21
9.4640845
0
LINE
8
layer2
10
12.3532387
20
9.4640845
11
12.3539252
21
9.3636466
0
LINE
8
layer2
10
12.3539252
20
9.3636466
11
12.3510252
21
9.2799356
0
LINE
8
layer2
10
12.3510252
20
9.2799356
11
12.3395921
21
9.1592835
0
LINE
8
layer2
10
12.3395921
20
9.1592835
11
12.3182909
21
9.0429838
0
LINE
8
layer2
10
12.3182909
20
9.0429838
11
12.3056883
21
8.932259
0
LINE
8
layer2
10
12.3056883
20
8.932259
11
12.3057908
21
8.8366899
0
LINE
8
layer2
10
12.3057908
20
8.8366899
11
12.3101909
21
8.794863
0
LINE
8
layer2
10
12.3101909
20
8.794863
11
12.3172765
21
8.7571265
0
LINE
8
layer2
10
12.3172765
20
8.7571265
11
12.3268727
21
8.7235897
0
LINE
8
layer2
10
12.3268727
20
8.7235897
11
12.3387956
21
8.6943334
0
LINE
8
layer2
10
12.3387956
20
8.6943334
11
12.3528896
21
8.6694292
0
LINE
8
layer2
10
12.3528896
20
8.6694292
11
12.3689612
21
8.648961
0
LINE
8
layer2
10
12.3689612
20
8.648961
11
12.3868327
21
8.6329971
0
LINE
8
layer2
10
12.3868327
20
8.6329971
11
12.4063267
21
8.6216056
0
LINE
8
layer2
10
12.4063267
20
8.6216056
11
12.4219052
21
8.6160917
0
LINE
8
layer2
10
12.4219052
20
8.6160917
11
12.5648363
21
8.5746555
0
LINE
8
layer2
10
12.5648363
20
8.5746555
11
12.7657021
21
8.5119558
0
LINE
8
layer2
10
12.7657021
20
8.5119558
11
12.9650599
21
8.444615
0
LINE
8
layer2
10
12.9650599
20
8.444615
11
13.1050491
21
8.3941248
0
LINE
8
layer2
10
13.1050491
20
8.3941248
11
13.1208935
21
8.3894288
0
LINE
8
layer2
10
13.1208935
20
8.3894288
11
13.1433601
21
8.3871864
0
LINE
8
layer2
10
13.1433601
20
8.3871864
11
13.1672019
21
8.3895969
0
LINE
8
layer2
10
13.1672019
20
8.3895969
11
13.192235
21
8.3967093
0
LINE
8
layer2
10
13.192235
20
8.3967093
11
13.2182756
21
8.408573
0
LINE
8
layer2
10
13.2182756
20
8.408573
11
13.2451178
21
8.4252337
0
LINE
8
layer2
10
13.2451178
20
8.4252337
11
13.2725937
21
8.4467251
0
LINE
8
layer2
10
13.2725937
20
8.4467251
11
13.300507
21
8.4730898
0
LINE
8
layer2
10
13.300507
20
8.4730898
11
13.3286521
21
8.5043421
0
LINE
8
layer2
10
13.3286521
20
8.5043421
11
13.3849091
21
8.5815989
0
LINE
8
layer2
10
13.3849091
20
8.5815989
11
13.4397958
21
8.6785848
0
LINE
8
layer2
10
13.4397958
20
8.6785848
11
13.4909221
21
8.7851937
0
LINE
8
layer2
10
13.4909221
20
8.7851937
11
13.55259
21
8.8895236
0
LINE
8
layer2
10
13.55259
20
8.8895236
11
13.5994479
21
8.9589517
0
LINE
8
layer2
10
13.5994479
20
8.9589517
11
13.6590393
21
9.0398042
0
LINE
8
layer2
10
13.6590393
20
9.0398042
11
13.7319228
21
9.1305641
0
LINE
8
layer2
10
13.7319228
20
9.1305641
11
13.8206412
21
9.2320349
0
LINE
8
layer2
10
13.8206412
20
9.2320349
11
13.9240663
21
9.340777
0
LINE
8
layer2
10
13.9240663
20
9.340777
11
14.0449618
21
9.4576588
0
LINE
8
layer2
10
14.0449618
20
9.4576588
11
14.1819235
21
9.5793619
0
LINE
8
layer2
10
14.1819235
20
9.5793619
11
14.3362392
21
9.7053837
0
LINE
8
layer2
10
14.3362392
20
9.7053837
11
14.5098935
21
9.8354578
0
LINE
8
layer2
10
14.5098935
20
9.8354578
11
14.6819873
21
9.9538263
0
ARC
8
layer2
10
9.9999927
20
-0.0000135
40
11
50
61.190915
51
64.8090813
0
LINE
8
layer2
10
15.3008115
20
9.6385196
11
15.3062036
21
9.4297176
0
LINE
8
layer2
10
15.3062036
20
9.4297176
11
15.3030429
21
9.2127726
0
LINE
8
layer2
10
15.3030429
20
9.2127726
11
15.2917936
21
9.0138549
0
LINE
8
layer2
10
15.2917936
20
9.0138549
11
15.2738378
21
8.8315152
0
LINE
8
layer2
10
15.2738378
20
8.8315152
11
15.250339
21
8.6650073
0
LINE
8
layer2
10
15.250339
20
8.6650073
11
15.2231566
21
8.5174176
0
LINE
8
layer2
10
15.2231566
20
8.5174176
11
15.1932123
21
8.3859998
0
LINE
8
layer2
10
15.1932123
20
8.3859998
11
15.1626259
21
8.2736885
0
LINE
8
layer2
10
15.1626259
20
8.2736885
11
15.1322418
21
8.1779542
0
LINE
8
layer2
10
15.1322418
20
8.1779542
11
15.1036156
21
8.0992365
0
LINE
8
layer2
10
15.1036156
20
8.0992365
11
15.0554585
21
7.9880226
0
LINE
8
layer2
10
15.0554585
20
7.9880226
11
14.9992614
21
7.8839974
0
LINE
8
layer2
10
14.9992614
20
7.8839974
11
14.9530597
21
7.7825863
0
LINE
8
layer2
10
14.9530597
20
7.7825863
11
14.9236247
21
7.6916629
0
LINE
8
layer2
10
14.9236247
20
7.6916629
11
14.9148842
21
7.6505235
0
LINE
8
layer2
10
14.9148842
20
7.6505235
11
14.9099618
21
7.6124444
0
LINE
8
layer2
10
14.9099618
20
7.6124444
11
14.9087249
21
7.5775836
0
LINE
8
layer2
10
14.9087249
20
7.5775836
11
14.9110235
21
7.5460748
0
LINE
8
layer2
10
14.9110235
20
7.5460748
11
14.9167319
21
7.5180343
0
LINE
8
layer2
10
14.9167319
20
7.5180343
11
14.9256919
21
7.4936015
0
LINE
8
layer2
10
14.9256919
20
7.4936015
11
14.9377556
21
7.4728963
0
LINE
8
layer2
10
14.9377556
20
7.4728963
11
14.9527753
21
7.4560383
0
LINE
8
layer2
10
14.9527753
20
7.4560383
11
14.9658875
21
7.4459803
0
LINE
8
layer2
10
14.9658875
20
7.4459803
11
15.0890185
21
7.362404
0
LINE
8
layer2
10
15.0890185
20
7.362404
11
15.260678
21
7.2407021
0
LINE
8
layer2
10
15.260678
20
7.2407021
11
15.4294691
21
7.1150522
0
LINE
8
layer2
10
15.4294691
20
7.1150522
11
15.5470044
21
7.0237741
0
LINE
8
layer2
10
15.5470044
20
7.0237741
11
15.5606221
21
7.0144118
0
LINE
8
layer2
10
15.5606221
20
7.0144118
11
15.5812963
21
7.0053366
0
LINE
8
layer2
10
15.5812963
20
7.0053366
11
15.604716
21
7.0002616
0
LINE
8
layer2
10
15.604716
20
7.0002616
11
15.6307218
21
6.9992903
0
LINE
8
layer2
10
15.6307218
20
6.9992903
11
15.6591539
21
7.0025263
0
LINE
8
layer2
10
15.6591539
20
7.0025263
11
15.6898308
21
7.0100769
0
LINE
8
layer2
10
15.6898308
20
7.0100769
11
15.7226032
21
7.0220258
0
LINE
8
layer2
10
15.7226032
20
7.0220258
11
15.7572975
21
7.0384745
0
LINE
8
layer2
10
15.7572975
20
7.0384745
11
15.7937225
21
7.0594999
0
LINE
8
layer2
10
15.7937225
20
7.0594999
11
15.8710998
21
7.1155911
0
LINE
8
layer2
10
15.8710998
20
7.1155911
11
15.9532704
21
7.1908693
0
LINE
8
layer2
10
15.9532704
20
7.1908693
11
16.0348383
21
7.2764615
0
LINE
8
layer2
10
16.0348383
20
7.2764615
11
16.1257277
21
7.3566286
0
LINE
8
layer2
10
16.1257277
20
7.3566286
11
16.1917467
21
7.4081789
0
LINE
8
layer2
10
16.1917467
20
7.4081789
11
16.2734062
21
7.4666594
0
LINE
8
layer2
10
16.2734062
20
7.4666594
11
16.3707689
21
7.5304549
0
LINE
8
layer2
10
16.3707689
20
7.5304549
11
16.4865014
21
7.5995439
0
LINE
8
layer2
10
16.4865014
20
7.5995439
11
16.6184677
21
7.6710036
0
LINE
8
layer2
10
16.6184677
20
7.6710036
11
16.7695646
21
7.7448061
0
LINE
8
layer2
10
16.7695646
20
7.7448061
11
16.9374312
21
7.8182291
0
LINE
8
layer2
10
16.9374312
20
7.8182291
11
17.123137
21
7.8903968
0
LINE
8
layer2
10
17.123137
20
7.8903968
11
17.3284872
21
7.9604425
0
LINE
8
layer2
10
17.3284872
20
7.9604425
11
17.528736
21
8.0198377
0
ARC
8
layer2
10
9.9999892
20
-0.0000109
40
11
50
43.1909171
51
46.8090836
0
LINE
8
layer2
10
18.0198377
20
7.528736
11
17.9604425
21
7.3284872
0
LINE
8
layer2
10
17.9604425
20
7.3284872
11
17.8903968
21
7.123137
0
LINE
8
layer2
10
17.8903968
20
7.123137
11
17.8182291
21
6.9374312
0
LINE
8
layer2
10
17.8182291
20
6.9374312
11
17.7448061
21
6.7695646
0
LINE
8
layer2
10
17.7448061
20
6.7695646
11
17.6710036
21
6.6184677
0
LINE
8
layer2
10
17.6710036
20
6.6184677
11
17.5995439
21
6.4865014
0
LINE
8
layer2
10
17.5995439
20
6.4865014
11
17.5304549
21
6.3707689
0
LINE
8
layer2
10
17.5304549
20
6.3707689
11
17.4666594
21
6.2734062
0
LINE
8
layer2
10
17.4666594
20
6.2734062
11
17.4081789
21
6.1917467
0
LINE
8
layer2
10
17.4081789
20
6.1917467
11
17.3566286
21
6.1257277
0
LINE
8
layer2
10
17.3566286
20
6.1257277
11
17.2764615
21
6.0348383
0
LINE
8
layer2
10
17.2764615
20
6.0348383
11
17.1908693
21
5.9532704
0
LINE
8
layer2
10
17.1908693
20
5.9532704
11
17.1155911
21
5.8710998
0
LINE
8
layer2
10
17.1155911
20
5.8710998
11
17.0594999
21
5.7937225
0
LINE
8
layer2
10
17.0594999
20
5.7937225
11
17.0384745
21
5.7572975
0
LINE
8
layer2
10
17.0384745
20
5.7572975
11
17.0220258
21
5.7226032
0
LINE
8
layer2
10
17.0220258
20
5.7226032
11
17.0100769
21
5.6898308
0
LINE
8
layer2
10
17.0100769
20
5.6898308
11
17.0025263
21
5.6591539
0
LINE
8
layer2
10
17.0025263
20
5.6591539
11
16.9992903
21
5.6307218
0
LINE
8
layer2
10
16.9992903
20
5.6307218
11
17.0002616
21
5.604716
0
LINE
8
layer2
10
17.0002616
20
5.604716
11
17.0053366
21
5.5812963
0
LINE
8
layer2
10
17.0053366
20
5.5812963
11
17.0144118
21
5.5606221
0
LINE
8
layer2
10
17.0144118
20
5.5606221
11
17.0237741
21
5.5470044
0
LINE
8
layer2
10
17.0237741
20
5.5470044
11
17.1150522
21
5.4294691
0
LINE
8
layer2
10
17.1150522
20
5.4294691
11
17.2407021
21
5.260678
0
LINE
8
layer2
10
17.2407021
20
5.260678
11
17.362404
21
5.0890185
0
LINE
8
layer2
10
17.362404
20
5.0890185
11
17.4459803
21
4.9658875
0
LINE
8
layer2
10
17.4459803
20
4.9658875
11
17.4560383
21
4.9527753
0
LINE
8
layer2
10
17.4560383
20
4.9527753
11
17.4728963
21
4.9377556
0
LINE
8
layer2
10
17.4728963
20
4.9377556
11
17.4936015
21
4.9256919
0
LINE
8
layer2
10
17.4936015
20
4.9256919
11
17.5180343
21
4.9167319
0
LINE
8
layer2
10
17.5180343
20
4.9167319
11
17.5460748
21
4.9110235
0
LINE
8
layer2
10
17.5460748
20
4.9110235
11
17.5775836
21
4.9087249
0
LINE
8
layer2
10
17.5775836
20
4.9087249
11
17.6124444
21
4.9099618
0
LINE
8
layer2
10
17.6124444
20
4.9099618
11
17.6505235
21
4.9148842
0
LINE
8
layer2
10
17.6505235
20
4.9148842
11
17.6916629
21
4.9236247
0
LINE
8
layer2
10
17.6916629
20
4.9236247
11
17.7825863
21
4.9530597
0
LINE
8
layer2
10
17.7825863
20
4.9530597
11
17.8839974
21
4.9992614
0
LINE
8
layer2
10
17.8839974
20
4.9992614
11
17.9880226
21
5.0554585
0
LINE
8
layer2
10
17.9880226
20
5.0554585
11
18.0992365
21
5.1036156
0
LINE
8
layer2
10
18.0992365
20
5.1036156
11
18.1779542
21
5.1322418
0
LINE
8
layer2
10
18.1779542
20
5.1322418
11
18.2736885
21
5.1626259
0
LINE
8
layer2
10
18.2736885
20
5.1626259
11
18.3859998
21
5.1932123
0
LINE
8
layer2
10
18.3859998
20
5.1932123
11
18.5174176
21
5.2231566
0
LINE
8
layer2
10
18.5174176
20
5.2231566
11
18.6650073
21
5.250339
0
LINE
8
layer2
10
18.6650073
20
5.250339
11
18.8315152
21
5.2738378
0
LINE
8
layer2
10
18.8315152
20
5.2738378
11
19.0138549
21
5.2917936
0
LINE
8
layer2
10
19.0138549
20
5.2917936
11
19.2127726
21
5.3030429
0
LINE
8
layer2
10
19.2127726
20
5.3030429
11
19.4297176
21
5.3062036
0
LINE
8
layer2
10
19.4297176
20
5.3062036
11
19.6385196
21
5.3008115
0
ARC
8
layer2
10
9.9999865
20
-0.0000072
40
11
50
25.1909182
51
28.8090845
0
LINE
8
layer2
10
19.9538263
20
4.6819873
11
19.8354578
21
4.5098935
0
LINE
8
layer2
10
19.8354578
20
4.5098935
11
19.7053837
21
4.3362392
0
LINE
8
layer2
10
19.7053837
20
4.3362392
11
19.5793619
21
4.1819235
0
LINE
8
layer2
10
19.5793619
20
4.1819235
11
19.4576588
21
4.0449618
0
LINE
8
layer2
10
19.4576588
20
4.0449618
11
19.340777
21
3.9240663
0
LINE
8
layer2
10
19.340777
20
3.9240663
11
19.2320349
21
3.8206412
0
LINE
8
layer2
10
19.2320349
20
3.8206412
11
19.1305641
21
3.7319228
0
LINE
8
layer2
10
19.1305641
20
3.7319228
11
19.0398042
21
3.6590393
0
LINE
8
layer2
10
19.0398042
20
3.6590393
11
18.9589517
21
3.5994479
0
LINE
8
layer2
10
18.9589517
20
3.5994479
11
18.8895236
21
3.55259
0
LINE
8
layer2
10
18.8895236
20
3.55259
11
18.7851937
21
3.4909221
0
LINE
8
layer2
10
18.7851937
20
3.4909221
11
18.6785848
21
3.4397958
0
LINE
8
layer2
10
18.6785848
20
3.4397958
11
18.5815989
21
3.3849091
0
LINE
8
layer2
10
18.5815989
20
3.3849091
11
18.5043421
21
3.3286521
0
LINE
8
layer2
10
18.5043421
20
3.3286521
11
18.4730898
21
3.300507
0
LINE
8
layer2
10
18.4730898
20
3.300507
11
18.4467251
21
3.2725937
0
LINE
8
layer2
10
18.4467251
20
3.2725937
11
18.4252337
21
3.2451178
0
LINE
8
layer2
10
18.4252337
20
3.2451178
11
18.408573
21
3.2182756
0
LINE
8
layer2
10
18.408573
20
3.2182756
11
18.3967093
21
3.192235
0
LINE
8
layer2
10
18.3967093
20
3.192235
11
18.3895969
21
3.1672019
0
LINE
8
layer2
10
18.3895969
20
3.1672019
11
18.3871864
21
3.1433601
0
LINE
8
layer2
10
18.3871864
20
3.1433601
11
18.3894288
21
3.1208935
0
LINE
8
layer2
10
18.3894288
20
3.1208935
11
18.3941248
21
3.1050491
0
LINE
8
layer2
10
18.3941248
20
3.1050491
11
18.444615
21
2.9650599
0
LINE
8
layer2
10
18.444615
20
2.9650599
11
18.5119558
21
2.7657021
0
LINE
8
layer2
10
18.5119558
20
2.7657021
11
18.5746555
21
2.5648363
0
LINE
8
layer2
10
18.5746555
20
2.5648363
11
18.6160917
21
2.4219052
0
LINE
8
layer2
10
18.6160917
20
2.4219052
11
18.6216056
21
2.4063267
0
LINE
8
layer2
10
18.6216056
20
2.4063267
11
18.6329971
21
2.3868327
0
LINE
8
layer2
10
18.6329971
20
2.3868327
11
18.648961
21
2.3689612
0
LINE
8
layer2
10
18.648961
20
2.3689612
11
18.6694292
21
2.3528896
0
LINE
8
layer2
10
18.6694292
20
2.3528896
11
18.6943334
21
2.3387956
0
LINE
8
layer2
10
18.6943334
20
2.3387956
11
18.7235897
21
2.3268727
0
LINE
8
layer2
10
18.7235897
20
2.3268727
11
18.7571265
21
2.3172765
0
LINE
8
layer2
10
18.7571265
20
2.3172765
11
18.794863
21
2.3101909
0
LINE
8
layer2
10
18.794863
20
2.3101909
11
18.8366899
21
2.3057908
0
LINE
8
layer2
10
18.8366899
20
2.3057908
11
18.932259
21
2.3056883
0
LINE
8
layer2
10
18.932259
20
2.3056883
11
19.0429838
21
2.3182909
0
LINE
8
layer2
10
19.0429838
20
2.3182909
11
19.1592835
21
2.3395921
0
LINE
8
layer2
10
19.1592835
20
2.3395921
11
19.2799356
21
2.3510252
0
LINE
8
layer2
10
19.2799356
20
2.3510252
11
19.3636466
21
2.3539252
0
LINE
8
layer2
10
19.3636466
20
2.3539252
11
19.4640845
21
2.3532387
0
LINE
8
layer2
10
19.4640845
20
2.3532387
11
19.5803507
21
2.347622
0
LINE
8
layer2
10
19.5803507
20
2.347622
11
19.7145897
21
2.3354903
0
LINE
8
layer2
10
19.7145897
20
2.3354903
11
19.8633556
21
2.3157346
0
LINE
8
layer2
10
19.8633556
20
2.3157346
11
20.0289756
21
2.2866295
0
LINE
8
layer2
10
20.0289756
20
2.2866295
11
20.2079396
21
2.2473604
0
LINE
8
layer2
10
20.2079396
20
2.2473604
11
20.4005978
21
2.1965902
0
LINE
8
layer2
10
20.4005978
20
2.1965902
11
20.6079014
21
2.1325566
0
LINE
8
layer2
10
20.6079014
20
2.1325566
11
20.8048177
21
2.062905
0
ARC
8
layer2
10
9.9999849
20
-0.0000027
40
11
50
7.1909186
51
10.8090848
0
LINE
8
layer2
10
20.913465
20
1.376933
11
20.74771
21
1.24984
0
LINE
8
layer2
10
20.74771
20
1.24984
11
20.57034
21
1.12488
0
LINE
8
layer2
10
20.57034
20
1.12488
11
20.4028
21
1.01706
0
LINE
8
layer2
10
20.4028
20
1.01706
11
20.24473
21
0.92441
0
LINE
8
layer2
10
20.24473
20
0.92441
11
20.09621
21
0.84555
0
LINE
8
layer2
10
20.09621
20
0.84555
11
19.96083
21
0.78079
0
LINE
8
layer2
10
19.96083
20
0.78079
11
19.83691
21
0.72777
0
LINE
8
layer2
10
19.83691
20
0.72777
11
19.72807
21
0.6865
0
LINE
8
layer2
10
19.72807
20
0.6865
11
19.63276
21
0.65481
0
LINE
8
layer2
10
19.63276
20
0.65481
11
19.55225
21
0.6317
0
LINE
8
layer2
10
19.55225
20
0.6317
11
19.43397
21
0.60529
0
LINE
8
layer2
10
19.43397
20
0.60529
11
19.31678
21
0.58961
0
LINE
8
layer2
10
19.31678
20
0.58961
11
19.20758
21
0.56738
0
LINE
8
layer2
10
19.20758
20
0.56738
11
19.11672
21
0.53775
0
LINE
8
layer2
10
19.11672
20
0.53775
11
19.0783
21
0.52064
0
LINE
8
layer2
10
19.0783
20
0.52064
11
19.0446
21
0.50224
0
LINE
8
layer2
10
19.0446
20
0.50224
11
19.01567
21
0.48275
0
LINE
8
layer2
10
19.01567
20
0.48275
11
18.99153
21
0.46237
0
LINE
8
layer2
10
18.99153
20
0.46237
11
18.9722
21
0.44127
0
LINE
8
layer2
10
18.9722
20
0.44127
11
18.9577
21
0.41966
0
LINE
8
layer2
10
18.9577
20
0.41966
11
18.94804
21
0.39773
0
LINE
8
layer2
10
18.94804
20
0.39773
11
18.94323
21
0.37567
0
LINE
8
layer2
10
18.94323
20
0.37567
11
18.9428
21
0.35915
0
LINE
8
layer2
10
18.9428
20
0.35915
11
18.94756
21
0.21041
0
LINE
8
layer2
10
18.94756
20
0.21041
11
18.95
21
0
0
LINE
8
layer2
10
18.95
20
0
11
18.94756
21
-0.21041
0
LINE
8
layer2
10
18.94756
20
-0.21041
11
18.9428
21
-0.35915
0
LINE
8
layer2
10
18.9428
20
-0.35915
11
18.94323
21
-0.37567
0
LINE
8
layer2
10
18.94323
20
-0.37567
11
18.94804
21
-0.39773
0
LINE
8
layer2
10
18.94804
20
-0.39773
11
18.9577
21
-0.41966
0
LINE
8
layer2
10
18.9577
20
-0.41966
11
18.9722
21
-0.44127
0
LINE
8
layer2
10
18.9722
20
-0.44127
11
18.99153
21
-0.46237
0
LINE
8
layer2
10
18.99153
20
-0.46237
11
19.01567
21
-0.48275
0
LINE
8
layer2
10
19.01567
20
-0.48275
11
19.0446
21
-0.50224
0
LINE
8
layer2
10
19.0446
20
-0.50224
11
19.0783
21
-0.52064
0
LINE
8
layer2
10
19.0783
20
-0.52064
11
19.11672
21
-0.53775
0
LINE
8
layer2
10
19.11672
20
-0.53775
11
19.20758
21
-0.56738
0
LINE
8
layer2
10
19.20758
20
-0.56738
11
19.31678
21
-0.58961
0
LINE
8
layer2
10
19.31678
20
-0.58961
11
19.43397
21
-0.60529
0
LINE
8
layer2
10
19.43397
20
-0.60529
11
19.55225
21
-0.6317
0
LINE
8
layer2
10
19.55225
20
-0.6317
11
19.63276
21
-0.65481
0
LINE
8
layer2
10
19.63276
20
-0.65481
11
19.72807
21
-0.6865
0
LINE
8
layer2
10
19.72807
20
-0.6865
11
19.83691
21
-0.72777
0
LINE
8
layer2
10
19.83691
20
-0.72777
11
19.96083
21
-0.78079
0
LINE
8
layer2
10
19.96083
20
-0.78079
11
20.09621
21
-0.84555
0
LINE
8
layer2
10
20.09621
20
-0.84555
11
20.24473
21
-0.92441
0
LINE
8
layer2
10
20.24473
20
-0.92441
11
20.4028
21
-1.01706
0
LINE
8
layer2
10
20.4028
20
-1.01706
11
20.57034
21
-1.12488
0
LINE
8
layer2
10
20.57034
20
-1.12488
11
20.74771
21
-1.24984
0
LINE
8
layer2
10
20.74771
20
-1.24984
11
20.913465
21
-1.376933
0
ARC
8
layer2
10
9.9999849
20
0.0000029
40
11
50
349.1909147
51
352.8090809
0
LINE
8
layer2
10
20.8048177
20
-2.062905
11
20.6079014
21
-2.1325566
0
LINE
8
layer2
10
20.6079014
20
-2.1325566
11
20.4005978
21
-2.1965902
0
LINE
8
layer2
10
20.4005978
20
-2.1965902
11
20.2079396
21
-2.2473604
0
LINE
8
layer2
10
20.2079396
20
-2.2473604
11
20.0289756
21
-2.2866295
0
LINE
8
layer2
10
20.0289756
20
-2.2866295
11
19.8633556
21
-2.3157346
0
LINE
8
layer2
10
19.8633556
20
-2.3157346
11
19.7145897
21
-2.3354903
0
LINE
8
layer2
10
19.7145897
20
-2.3354903
11
19.5803507
21
-2.347622
0
LINE
8
layer2
10
19.5803507
20
-2.347622
11
19.4640845
21
-2.3532387
0
LINE
8
layer2
10
19.4640845
20
-2.3532387
11
19.3636466
21
-2.3539252
0
LINE
8
layer2
10
19.3636466
20
-2.3539252
11
19.2799356
21
-2.3510252
0
LINE
8
layer2
10
19.2799356
20
-2.3510252
11
19.1592835
21
-2.3395921
0
LINE
8
layer2
10
19.1592835
20
-2.3395921
11
19.0429838
21
-2.3182909
0
LINE
8
layer2
10
19.0429838
20
-2.3182909
11
18.932259
21
-2.3056883
0
LINE
8
layer2
10
18.932259
20
-2.3056883
11
18.8366899
21
-2.3057908
0
LINE
8
layer2
10
18.8366899
20
-2.3057908
11
18.794863
21
-2.3101909
0
LINE
8
layer2
10
18.794863
20
-2.3101909
11
18.7571265
21
-2.3172765
0
LINE
8
layer2
10
18.7571265
20
-2.3172765
11
18.7235897
21
-2.3268727
0
LINE
8
layer2
10
18.7235897
20
-2.3268727
11
18.6943334
21
-2.3387956
0
LINE
8
layer2
10
18.6943334
20
-2.3387956
11
18.6694292
21
-2.3528896
0
LINE
8
layer2
10
18.6694292
20
-2.3528896
11
18.648961
21
-2.3689612
0
LINE
8
layer2
10
18.648961
20
-2.3689612
11
18.6329971
21
-2.3868327
0
LINE
8
layer2
10
18.6329971
20
-2.3868327
11
18.6216056
21
-2.4063267
0
LINE
8
layer2
10
18.6216056
20
-2.4063267
11
18.6160917
21
-2.4219052
0
LINE
8
layer2
10
18.6160917
20
-2.4219052
11
18.5746555
21
-2.5648363
0
LINE
8
layer2
10
18.5746555
20
-2.5648363
11
18.5119558
21
-2.7657021
0
LINE
8
layer2
10
18.5119558
20
-2.7657021
11
18.444615
21
-2.9650599
0
LINE
8
layer2
10
18.444615
20
-2.9650599
11
18.3941248
21
-3.1050491
0
LINE
8
layer2
10
18.3941248
20
-3.1050491
11
18.3894288
21
-3.1208935
0
LINE
8
layer2
10
18.3894288
20
-3.1208935
11
18.3871864
21
-3.1433601
0
LINE
8
layer2
10
18.3871864
20
-3.1433601
11
18.3895969
21
-3.1672019
0
LINE
8
layer2
10
18.3895969
20
-3.1672019
11
18.3967093
21
-3.192235
0
LINE
8
layer2
10
18.3967093
20
-3.192235
11
18.408573
21
-3.2182756
0
LINE
8
layer2
10
18.408573
20
-3.2182756
11
18.4252337
21
-3.2451178
0
LINE
8
layer2
10
18.4252337
20
-3.2451178
11
18.4467251
21
-3.2725937
0
LINE
8
layer2
10
18.4467251
20
-3.2725937
11
18.4730898
21
-3.300507
0
LINE
8
layer2
10
18.4730898
20
-3.300507
11
18.5043421
21
-3.3286521
0
LINE
8
layer2
10
18.5043421
20
-3.3286521
11
18.5815989
21
-3.3849091
0
LINE
8
layer2
10
18.5815989
20
-3.3849091
11
18.6785848
21
-3.4397958
0
LINE
8
layer2
10
18.6785848
20
-3.4397958
11
18.7851937
21
-3.4909221
0
LINE
8
layer2
10
18.7851937
20
-3.4909221
11
18.8895236
21
-3.55259
0
LINE
8
layer2
10
18.8895236
20
-3.55259
11
18.9589517
21
-3.5994479
0
LINE
8
layer2
10
18.9589517
20
-3.5994479
11
19.0398042
21
-3.6590393
0
LINE
8
layer2
10
19.0398042
20
-3.6590393
11
19.1305641
21
-3.7319228
0
LINE
8
layer2
10
19.1305641
20
-3.7319228
11
19.2320349
21
-3.8206412
0
LINE
8
layer2
10
19.2320349
20
-3.8206412
11
19.340777
21
-3.9240663
0
LINE
8
layer2
10
19.340777
20
-3.9240663
11
19.4576588
21
-4.0449618
0
LINE
8
layer2
10
19.4576588
20
-4.0449618
11
19.5793619
21
-4.1819235
0
LINE
8
layer2
10
19.5793619
20
-4.1819235
11
19.7053837
21
-4.3362392
0
LINE
8
layer2
10
19.7053837
20
-4.3362392
11
19.8354578
21
-4.5098935
0
LINE
8
layer2
10
19.8354578
20
-4.5098935
11
19.9538263
21
-4.6819873
0
ARC
8
layer2
10
9.9999865
20
0.0000073
40
11
50
331.190915
51
334.8090813
0
LINE
8
layer2
10
19.6385196
20
-5.3008115
11
19.4297176
21
-5.3062036
0
LINE
8
layer2
10
19.4297176
20
-5.3062036
11
19.2127726
21
-5.3030429
0
LINE
8
layer2
10
19.2127726
20
-5.3030429
11
19.0138549
21
-5.2917936
0
LINE
8
layer2
10
19.0138549
20
-5.2917936
11
18.8315152
21
-5.2738378
0
LINE
8
layer2
10
18.8315152
20
-5.2738378
11
18.6650073
21
-5.250339
0
LINE
8
layer2
10
18.6650073
20
-5.250339
11
18.5174176
21
-5.2231566
0
LINE
8
layer2
10
18.5174176
20
-5.2231566
11
18.3859998
21
-5.1932123
0
LINE
8
layer2
10
18.3859998
20
-5.1932123
11
18.2736885
21
-5.1626259
0
LINE
8
layer2
10
18.2736885
20
-5.1626259
11
18.1779542
21
-5.1322418
0
LINE
8
layer2
10
18.1779542
20
-5.1322418
11
18.0992365
21
-5.1036156
0
LINE
8
layer2
10
18.0992365
20
-5.1036156
11
17.9880226
21
-5.0554585
0
LINE
8
layer2
10
17.9880226
20
-5.0554585
11
17.8839974
21
-4.9992614
0
LINE
8
layer2
10
17.8839974
20
-4.9992614
11
17.7825863
21
-4.9530597
0
LINE
8
layer2
10
17.7825863
20
-4.9530597
11
17.6916629
21
-4.9236247
0
LINE
8
layer2
10
17.6916629
20
-4.9236247
11
17.6505235
21
-4.9148842
0
LINE
8
layer2
10
17.6505235
20
-4.9148842
11
17.6124444
21
-4.9099618
0
LINE
8
layer2
10
17.6124444
20
-4.9099618
11
17.5775836
21
-4.9087249
0
LINE
8
layer2
10
17.5775836
20
-4.9087249
11
17.5460748
21
-4.9110235
0
LINE
8
layer2
10
17.5460748
20
-4.9110235
11
17.5180343
21
-4.9167319
0
LINE
8
layer2
10
17.5180343
20
-4.9167319
11
17.4936015
21
-4.9256919
0
LINE
8
layer2
10
17.4936015
20
-4.9256919
11
17.4728963
21
-4.9377556
0
LINE
8
layer2
10
17.4728963
20
-4.9377556
11
17.4560383
21
-4.9527753
0
LINE
8
layer2
10
17.4560383
20
-4.9527753
11
17.4459803
21
-4.9658875
0
LINE
8
layer2
10
17.4459803
20
-4.9658875
11
17.362404
21
-5.0890185
0
LINE
8
layer2
10
17.362404
20
-5.0890185
11
17.2407021
21
-5.260678
0
LINE
8
layer2
10
17.2407021
20
-5.260678
11
17.1150522
21
-5.4294691
0
LINE
8
layer2
10
17.1150522
20
-5.4294691
11
17.0237741
21
-5.5470044
0
LINE
8
layer2
10
17.0237741
20
-5.5470044
11
17.0144118
21
-5.5606221
0
LINE
8
layer2
10
17.0144118
20
-5.5606221
11
17.0053366
21
-5.5812963
0
LINE
8
layer2
10
17.0053366
20
-5.5812963
11
17.0002616
21
-5.604716
0
LINE
8
layer2
10
17.0002616
20
-5.604716
11
16.9992903
21
-5.6307218
0
LINE
8
layer2
10
16.9992903
20
-5.6307218
11
17.0025263
21
-5.6591539
0
LINE
8
layer2
10
17.0025263
20
-5.6591539
11
17.0100769
21
-5.6898308
0
LINE
8
layer2
10
17.0100769
20
-5.6898308
11
17.0220258
21
-5.7226032
0
LINE
8
layer2
10
17.0220258
20
-5.7226032
11
17.0384745
21
-5.7572975
0
LINE
8
layer2
10
17.0384745
20
-5.7572975
11
17.0594999
21
-5.7937225
0
LINE
8
layer2
10
17.0594999
20
-5.7937225
11
17.1155911
21
-5.8710998
0
LINE
8
layer2
10
17.1155911
20
-5.8710998
11
17.1908693
21
-5.9532704
0
LINE
8
layer2
10
17.1908693
20
-5.9532704
11
17.2764615
21
-6.0348383
0
LINE
8
layer2
10
17.2764615
20
-6.0348383
11
17.3566286
21
-6.1257277
0
LINE
8
layer2
10
17.3566286
20
-6.1257277
11
17.4081789
21
-6.1917467
0
LINE
8
layer2
10
17.4081789
20
-6.1917467
11
17.4666594
21
-6.2734062
0
LINE
8
layer2
10
17.4666594
20
-6.2734062
11
17.5304549
21
-6.3707689
0
LINE
8
layer2
10
17.5304549
20
-6.3707689
11
17.5995439
21
-6.4865014
0
LINE
8
layer2
10
17.5995439
20
-6.4865014
11
17.6710036
21
-6.6184677
0
LINE
8
layer2
10
17.6710036
20
-6.6184677
11
17.7448061
21
-6.7695646
0
LINE
8
layer2
10
17.7448061
20
-6.7695646
11
17.8182291
21
-6.9374312
0
LINE
8
layer2
10
17.8182291
20
-6.9374312
11
17.8903968
21
-7.123137
0
LINE
8
layer2
10
17.8903968
20
-7.123137
11
17.9604425
21
-7.3284872
0
LINE
8
layer2
10
17.9604425
20
-7.3284872
11
18.0198377
21
-7.528736
0
ARC
8
layer2
10
9.9999891
20
0.0000108
40
11
50
313.1909171
51
316.8090836
0
LINE
8
layer2
10
17.528736
20
-8.0198377
11
17.3284872
21
-7.9604425
0
LINE
8
layer2
10
17.3284872
20
-7.9604425
11
17.123137
21
-7.8903968
0
LINE
8
layer2
10
17.123137
20
-7.8903968
11
16.9374312
21
-7.8182291
0
LINE
8
layer2
10
16.9374312
20
-7.8182291
11
16.7695646
21
-7.7448061
0
LINE
8
layer2
10
16.7695646
20
-7.7448061
11
16.6184677
21
-7.6710036
0
LINE
8
layer2
10
16.6184677
20
-7.6710036
11
16.4865014
21
-7.5995439
0
LINE
8
layer2
10
16.4865014
20
-7.5995439
11
16.3707689
21
-7.5304549
0
LINE
8
layer2
10
16.3707689
20
-7.5304549
11
16.2734062
21
-7.4666594
0
LINE
8
layer2
10
16.2734062
20
-7.4666594
11
16.1917467
21
-7.4081789
0
LINE
8
layer2
10
16.1917467
20
-7.4081789
11
16.1257277
21
-7.3566286
0
LINE
8
layer2
10
16.1257277
20
-7.3566286
11
16.0348383
21
-7.2764615
0
LINE
8
layer2
10
16.0348383
20
-7.2764615
11
15.9532704
21
-7.1908693
0
LINE
8
layer2
10
15.9532704
20
-7.1908693
11
15.8710998
21
-7.1155911
0
LINE
8
layer2
10
15.8710998
20
-7.1155911
11
15.7937225
21
-7.0594999
0
LINE
8
layer2
10
15.7937225
20
-7.0594999
11
15.7572975
21
-7.0384745
0
LINE
8
layer2
10
15.7572975
20
-7.0384745
11
15.7226032
21
-7.0220258
0
LINE
8
layer2
10
15.7226032
20
-7.0220258
11
15.6898308
21
-7.0100769
0
LINE
8
layer2
10
15.6898308
20
-7.0100769
11
15.6591539
21
-7.0025263
0
LINE
8
layer2
10
15.6591539
20
-7.0025263
11
15.6307218
21
-6.9992903
0
LINE
8
layer2
10
15.6307218
20
-6.9992903
11
15.604716
21
-7.0002616
0
LINE
8
layer2
10
15.604716
20
-7.0002616
11
15.5812963
21
-7.0053366
0
LINE
8
layer2
10
15.5812963
20
-7.0053366
11
15.5606221
21
-7.0144118
0
LINE
8
layer2
10
15.5606221
20
-7.0144118
11
15.5470044
21
-7.0237741
0
LINE
8
layer2
10
15.5470044
20
-7.0237741
11
15.4294691
21
-7.1150522
0
LINE
8
layer2
10
15.4294691
20
-7.1150522
11
15.260678
21
-7.2407021
0
LINE
8
layer2
10
15.260678
20
-7.2407021
11
15.0890185
21
-7.362404
0
LINE
8
layer2
10
15.0890185
20
-7.362404
11
14.9658875
21
-7.4459803
0
LINE
8
layer2
10
14.9658875
20
-7.4459803
11
14.9527753
21
-7.4560383
0
LINE
8
layer2
10
14.9527753
20
-7.4560383
11
14.9377556
21
-7.4728963
0
LINE
8
layer2
10
14.9377556
20
-7.4728963
11
14.9256919
21
-7.4936015
0
LINE
8
layer2
10
14.9256919
20
-7.4936015
11
14.9167319
21
-7.5180343
0
LINE
8
layer2
10
14.9167319
20
-7.5180343
11
14.9110235
21
-7.5460748
0
LINE
8
layer2
10
14.9110235
20
-7.5460748
11
14.9087249
21
-7.5775836
0
LINE
8
layer2
10
14.9087249
20
-7.5775836
11
14.9099618
21
-7.6124444
0
LINE
8
layer2
10
14.9099618
20
-7.6124444
11
14.9148842
21
-7.6505235
0
LINE
8
layer2
10
14.9148842
20
-7.6505235
11
14.9236247
21
-7.6916629
0
LINE
8
layer2
10
14.9236247
20
-7.6916629
11
14.9530597
21
-7.7825863
0
LINE
8
layer2
10
14.9530597
20
-7.7825863
11
14.9992614
21
-7.8839974
0
LINE
8
layer2
10
14.9992614
20
-7.8839974
11
15.0554585
21
-7.9880226
0
LINE
8
layer2
10
15.0554585
20
-7.9880226
11
15.1036156
21
-8.0992365
0
LINE
8
layer2
10
15.1036156
20
-8.0992365
11
15.1322418
21
-8.1779542
0
LINE
8
layer2
10
15.1322418
20
-8.1779542
11
15.1626259
21
-8.2736885
0
LINE
8
layer2
10
15.1626259
20
-8.2736885
11
15.1932123
21
-8.3859998
0
LINE
8
layer2
10
15.1932123
20
-8.3859998
11
15.2231566
21
-8.5174176
0
LINE
8
layer2
10
15.2231566
20
-8.5174176
11
15.250339
21
-8.6650073
0
LINE
8
layer2
10
15.250339
20
-8.6650073
11
15.2738378
21
-8.8315152
0
LINE
8
layer2
10
15.2738378
20
-8.8315152
11
15.2917936
21
-9.0138549
0
LINE
8
layer2
10
15.2917936
20
-9.0138549
11
15.3030429
21
-9.2127726
0
LINE
8
layer2
10
15.3030429
20
-9.2127726
11
15.3062036
21
-9.4297176
0
LINE
8
layer2
10
15.3062036
20
-9.4297176
11
15.3008115
21
-9.6385196
0
ARC
8
layer2
10
9.9999928
20
0.0000135
40
11
50
295.1909182
51
298.8090845
0
LINE
8
layer2
10
14.6819873
20
-9.9538263
11
14.5098935
21
-9.8354578
0
LINE
8
layer2
10
14.5098935
20
-9.8354578
11
14.3362392
21
-9.7053837
0
LINE
8
layer2
10
14.3362392
20
-9.7053837
11
14.1819235
21
-9.5793619
0
LINE
8
layer2
10
14.1819235
20
-9.5793619
11
14.0449618
21
-9.4576588
0
LINE
8
layer2
10
14.0449618
20
-9.4576588
11
13.9240663
21
-9.340777
0
LINE
8
layer2
10
13.9240663
20
-9.340777
11
13.8206412
21
-9.2320349
0
LINE
8
layer2
10
13.8206412
20
-9.2320349
11
13.7319228
21
-9.1305641
0
LINE
8
layer2
10
13.7319228
20
-9.1305641
11
13.6590393
21
-9.0398042
0
LINE
8
layer2
10
13.6590393
20
-9.0398042
11
13.5994479
21
-8.9589517
0
LINE
8
layer2
10
13.5994479
20
-8.9589517
11
13.55259
21
-8.8895236
0
LINE
8
layer2
10
13.55259
20
-8.8895236
11
13.4909221
21
-8.7851937
0
LINE
8
layer2
10
13.4909221
20
-8.7851937
11
13.4397958
21
-8.6785848
0
LINE
8
layer2
10
13.4397958
20
-8.6785848
11
13.3849091
21
-8.5815989
0
LINE
8
layer2
10
13.3849091
20
-8.5815989
11
13.3286521
21
-8.5043421
0
LINE
8
layer2
10
13.3286521
20
-8.5043421
11
13.300507
21
-8.4730898
0
LINE
8
layer2
10
13.300507
20
-8.4730898
11
13.2725937
21
-8.4467251
0
LINE
8
layer2
10
13.2725937
20
-8.4467251
11
13.2451178
21
-8.4252337
0
LINE
8
layer2
10
13.2451178
20
-8.4252337
11
13.2182756
21
-8.408573
0
LINE
8
layer2
10
13.2182756
20
-8.408573
11
13.192235
21
-8.3967093
0
LINE
8
layer2
10
13.192235
20
-8.3967093
11
13.1672019
21
-8.3895969
0
LINE
8
layer2
10
13.1672019
20
-8.3895969
11
13.1433601
21
-8.3871864
0
LINE
8
layer2
10
13.1433601
20
-8.3871864
11
13.1208935
21
-8.3894288
0
LINE
8
layer2
10
13.1208935
20
-8.3894288
11
13.1050491
21
-8.3941248
0
LINE
8
layer2
10
13.1050491
20
-8.3941248
11
12.9650599
21
-8.444615
0
LINE
8
layer2
10
12.9650599
20
-8.444615
11
12.7657021
21
-8.5119558
0
LINE
8
layer2
10
12.7657021
20
-8.5119558
11
12.5648363
21
-8.5746555
0
LINE
8
layer2
10
12.5648363
20
-8.5746555
11
12.4219052
21
-8.6160917
0
LINE
8
layer2
10
12.4219052
20
-8.6160917
11
12.4063267
21
-8.6216056
0
LINE
8
layer2
10
12.4063267
20
-8.6216056
11
12.3868327
21
-8.6329971
0
LINE
8
layer2
10
12.3868327
20
-8.6329971
11
12.3689612
21
-8.648961
0
LINE
8
layer2
10
12.3689612
20
-8.648961
11
12.3528896
21
-8.6694292
0
LINE
8
layer2
10
12.3528896
20
-8.6694292
11
12.3387956
21
-8.6943334
0
LINE
8
layer2
10
12.3387956
20
-8.6943334
11
12.3268727
21
-8.7235897
0
LINE
8
layer2
10
12.3268727
20
-8.7235897
11
12.3172765
21
-8.7571265
0
LINE
8
layer2
10
12.3172765
20
-8.7571265
11
12.3101909
21
-8.794863
0
LINE
8
layer2
10
12.3101909
20
-8.794863
11
12.3057908
21
-8.8366899
0
LINE
8
layer2
10
12.3057908
20
-8.8366899
11
12.3056883
21
-8.932259
0
LINE
8
layer2
10
12.3056883
20
-8.932259
11
12.3182909
21
-9.0429838
0
LINE
8
layer2
10
12.3182909
20
-9.0429838
11
12.3395921
21
-9.1592835
0
LINE
8
layer2
10
12.3395921
20
-9.1592835
11
12.3510252
21
-9.2799356
0
LINE
8
layer2
10
12.3510252
20
-9.2799356
11
12.3539252
21
-9.3636466
0
LINE
8
layer2
10
12.3539252
20
-9.3636466
11
12.3532387
21
-9.4640845
0
LINE
8
layer2
10
12.3532387
20
-9.4640845
11
12.347622
21
-9.5803507
0
LINE
8
layer2
10
12.347622
20
-9.5803507
11
12.3354903
21
-9.7145897
0
LINE
8
layer2
10
12.3354903
20
-9.7145897
11
12.3157346
21
-9.8633556
0
LINE
8
layer2
10
12.3157346
20
-9.8633556
11
12.2866295
21
-10.0289756
0
LINE
8
layer2
10
12.2866295
20
-10.0289756
11
12.2473604
21
-10.2079396
0
LINE
8
layer2
10
12.2473604
20
-10.2079396
11
12.1965902
21
-10.4005978
0
LINE
8
layer2
10
12.1965902
20
-10.4005978
11
12.1325566
21
-10.6079014
0
LINE
8
layer2
10
12.1325566
20
-10.6079014
11
12.062905
21
-10.8048177
0
ARC
8
layer2
10
9.9999973
20
0.0000151
40
11
50
277.1909186
51
280.8090848
0
LINE
8
layer2
10
11.376933
20
-10.913465
11
11.24984
21
-10.74771
0
LINE
8
layer2
10
11.24984
20
-10.74771
11
11.12488
21
-10.57034
0
LINE
8
layer2
10
11.12488
20
-10.57034
11
11.01706
21
-10.4028
0
LINE
8
layer2
10
11.01706
20
-10.4028
11
10.92441
21
-10.24473
0
LINE
8
layer2
10
10.92441
20
-10.24473
11
10.84555
21
-10.09621
0
LINE
8
layer2
10
10.84555
20
-10.09621
11
10.78079
21
-9.96083
0
LINE
8
layer2
10
10.78079
20
-9.96083
11
10.72777
21
-9.83691
0
LINE
8
layer2
10
10.72777
20
-9.83691
11
10.6865
21
-9.72807
0
LINE
8
layer2
10
10.6865
20
-9.72807
11
10.65481
21
-9.63276
0
LINE
8
layer2
10
10.65481
20
-9.63276
11
10.6317
21
-9.55225
0
LINE
8
layer2
10
10.6317
20
-9.55225
11
10.60529
21
-9.43397
0
LINE
8
layer2
10
10.60529
20
-9.43397
11
10.58961
21
-9.31678
0
LINE
8
layer2
10
10.58961
20
-9.31678
11
10.56738
21
-9.20758
0
LINE
8
layer2
10
10.56738
20
-9.20758
11
10.53775
21
-9.11672
0
LINE
8
layer2
10
10.53775
20
-9.11672
11
10.52064
21
-9.0783
0
LINE
8
layer2
10
10.52064
20
-9.0783
11
10.50224
21
-9.0446
0
LINE
8
layer2
10
10.50224
20
-9.0446
11
10.48275
21
-9.01567
0
LINE
8
layer2
10
10.48275
20
-9.01567
11
10.46237
21
-8.99153
0
LINE
8
layer2
10
10.46237
20
-8.99153
11
10.44127
21
-8.9722
0
LINE
8
layer2
10
10.44127
20
-8.9722
11
10.41966
21
-8.9577
0
LINE
8
layer2
10
10.41966
20
-8.9577
11
10.39773
21
-8.94804
0
LINE
8
layer2
10
10.39773
20
-8.94804
11
10.37567
21
-8.94323
0
LINE
8
layer2
10
10.37567
20
-8.94323
11
10.35915
21
-8.9428
0
LINE
8
layer2
10
10.35915
20
-8.9428
11
10.21041
21
-8.94756
0
LINE
8
layer2
10
10.21041
20
-8.94756
11
10
21
-8.95
0
LINE
8
layer2
10
10
20
-8.95
11
9.78959
21
-8.94756
0
LINE
8
layer2
10
9.78959
20
-8.94756
11
9.64085
21
-8.9428
0
LINE
8
layer2
10
9.64085
20
-8.9428
11
9.62433
21
-8.94323
0
LINE
8
layer2
10
9.62433
20
-8.94323
11
9.60227
21
-8.94804
0
LINE
8
layer2
10
9.60227
20
-8.94804
11
9.58034
21
-8.9577
0
LINE
8
layer2
10
9.58034
20
-8.9577
11
9.55873
21
-8.9722
0
LINE
8
layer2
10
9.55873
20
-8.9722
11
9.53763
21
-8.99153
0
LINE
8
layer2
10
9.53763
20
-8.99153
11
9.51725
21
-9.01567
0
LINE
8
layer2
10
9.51725
20
-9.01567
11
9.49776
21
-9.0446
0
LINE
8
layer2
10
9.49776
20
-9.0446
11
9.47936
21
-9.0783
0
LINE
8
layer2
10
9.47936
20
-9.0783
11
9.46225
21
-9.11672
0
LINE
8
layer2
10
9.46225
20
-9.11672
11
9.43262
21
-9.20758
0
LINE
8
layer2
10
9.43262
20
-9.20758
11
9.41039
21
-9.31678
0
LINE
8
layer2
10
9.41039
20
-9.31678
11
9.39471
21
-9.43397
0
LINE
8
layer2
10
9.39471
20
-9.43397
11
9.3683
21
-9.55225
0
LINE
8
layer2
10
9.3683
20
-9.55225
11
9.34519
21
-9.63276
0
LINE
8
layer2
10
9.34519
20
-9.63276
11
9.3135
21
-9.72807
0
LINE
8
layer2
10
9.3135
20
-9.72807
11
9.27223
21
-9.83691
0
LINE
8
layer2
10
9.27223
20
-9.83691
11
9.21921
21
-9.96083
0
LINE
8
layer2
10
9.21921
20
-9.96083
11
9.15445
21
-10.09621
0
LINE
8
layer2
10
9.15445
20
-10.09621
11
9.07559
21
-10.24473
0
LINE
8
layer2
10
9.07559
20
-10.24473
11
8.98294
21
-10.4028
0
LINE
8
layer2
10
8.98294
20
-10.4028
11
8.87512
21
-10.57034
0
LINE
8
layer2
10
8.87512
20
-10.57034
11
8.75016
21
-10.74771
0
LINE
8
layer2
10
8.75016
20
-10.74771
11
8.623067
21
-10.913465
0
ARC
8
layer2
10
10.0000029
20
0.0000151
40
11
50
259.1909147
51
262.8090809
0
LINE
8
layer2
10
7.937095
20
-10.8048177
11
7.8674434
21
-10.6079014
0
LINE
8
layer2
10
7.8674434
20
-10.6079014
11
7.8034098
21
-10.4005978
0
LINE
8
layer2
10
7.8034098
20
-10.4005978
11
7.7526396
21
-10.2079396
0
LINE
8
layer2
10
7.7526396
20
-10.2079396
11
7.7133705
21
-10.0289756
0
LINE
8
layer2
10
7.7133705
20
-10.0289756
11
7.6842654
21
-9.8633556
0
LINE
8
layer2
10
7.6842654
20
-9.8633556
11
7.6645097
21
-9.7145897
0
LINE
8
layer2
10
7.6645097
20
-9.7145897
11
7.652378
21
-9.5803507
0
LINE
8
layer2
10
7.652378
20
-9.5803507
11
7.6467613
21
-9.4640845
0
LINE
8
layer2
10
7.6467613
20
-9.4640845
11
7.6460748
21
-9.3636466
0
LINE
8
layer2
10
7.6460748
20
-9.3636466
11
7.6489748
21
-9.2799356
0
LINE
8
layer2
10
7.6489748
20
-9.2799356
11
7.6604079
21
-9.1592835
0
LINE
8
layer2
10
7.6604079
20
-9.1592835
11
7.6817091
21
-9.0429838
0
LINE
8
layer2
10
7.6817091
20
-9.0429838
11
7.6943117
21
-8.932259
0
LINE
8
layer2
10
7.6943117
20
-8.932259
11
7.6942092
21
-8.8366899
0
LINE
8
layer2
10
7.6942092
20
-8.8366899
11
7.6898091
21
-8.794863
0
LINE
8
layer2
10
7.6898091
20
-8.794863
11
7.6827235
21
-8.7571265
0
LINE
8
layer2
10
7.6827235
20
-8.7571265
11
7.6731273
21
-8.7235897
0
LINE
8
layer2
10
7.6731273
20
-8.7235897
11
7.6612044
21
-8.6943334
0
LINE
8
layer2
10
7.6612044
20
-8.6943334
11
7.6471104
21
-8.6694292
0
LINE
8
layer2
10
7.6471104
20
-8.6694292
11
7.6310388
21
-8.648961
0
LINE
8
layer2
10
7.6310388
20
-8.648961
11
7.6131673
21
-8.6329971
0
LINE
8
layer2
10
7.6131673
20
-8.6329971
11
7.5936733
21
-8.6216056
0
LINE
8
layer2
10
7.5936733
20
-8.6216056
11
7.5780948
21
-8.6160917
0
LINE
8
layer2
10
7.5780948
20
-8.6160917
11
7.4351637
21
-8.5746555
0
LINE
8
layer2
10
7.4351637
20
-8.5746555
11
7.2342979
21
-8.5119558
0
LINE
8
layer2
10
7.2342979
20
-8.5119558
11
7.0349401
21
-8.444615
0
LINE
8
layer2
10
7.0349401
20
-8.444615
11
6.8949509
21
-8.3941248
0
LINE
8
layer2
10
6.8949509
20
-8.3941248
11
6.8791065
21
-8.3894288
0
LINE
8
layer2
10
6.8791065
20
-8.3894288
11
6.8566399
21
-8.3871864
0
LINE
8
layer2
10
6.8566399
20
-8.3871864
11
6.8327981
21
-8.3895969
0
LINE
8
layer2
10
6.8327981
20
-8.3895969
11
6.807765
21
-8.3967093
0
LINE
8
layer2
10
6.807765
20
-8.3967093
11
6.7817244
21
-8.408573
0
LINE
8
layer2
10
6.7817244
20
-8.408573
11
6.7548822
21
-8.4252337
0
LINE
8
layer2
10
6.7548822
20
-8.4252337
11
6.7274063
21
-8.4467251
0
LINE
8
layer2
10
6.7274063
20
-8.4467251
11
6.699493
21
-8.4730898
0
LINE
8
layer2
10
6.699493
20
-8.4730898
11
6.6713479
21
-8.5043421
0
LINE
8
layer2
10
6.6713479
20
-8.5043421
11
6.6150909
21
-8.5815989
0
LINE
8
layer2
10
6.6150909
20
-8.5815989
11
6.5602042
21
-8.6785848
0
LINE
8
layer2
10
6.5602042
20
-8.6785848
11
6.5090779
21
-8.7851937
0
LINE
8
layer2
10
6.5090779
20
-8.7851937
11
6.44741
21
-8.8895236
0
LINE
8
layer2
10
6.44741
20
-8.8895236
11
6.4005521
21
-8.9589517
0
LINE
8
layer2
10
6.4005521
20
-8.9589517
11
6.3409607
21
-9.0398042
0
LINE
8
layer2
10
6.3409607
20
-9.0398042
11
6.2680772
21
-9.1305641
0
LINE
8
layer2
10
6.2680772
20
-9.1305641
11
6.1793588
21
-9.2320349
0
LINE
8
layer2
10
6.1793588
20
-9.2320349
11
6.0759337
21
-9.340777
0
LINE
8
layer2
10
6.0759337
20
-9.340777
11
5.9550382
21
-9.4576588
0
LINE
8
layer2
10
5.9550382
20
-9.4576588
11
5.8180765
21
-9.5793619
0
LINE
8
layer2
10
5.8180765
20
-9.5793619
11
5.6637608
21
-9.7053837
0
LINE
8
layer2
10
5.6637608
20
-9.7053837
11
5.4901065
21
-9.8354578
0
LINE
8
layer2
10
5.4901065
20
-9.8354578
11
5.3180127
21
-9.9538263
0
ARC
8
layer2
10
10.0000073
20
0.0000135
40
11
50
241.190915
51
244.8090813
0
LINE
8
layer2
10
4.6991885
20
-9.6385196
11
4.6937964
21
-9.4297176
0
LINE
8
layer2
10
4.6937964
20
-9.4297176
11
4.6969571
21
-9.2127726
0
LINE
8
layer2
10
4.6969571
20
-9.2127726
11
4.7082064
21
-9.0138549
0
LINE
8
layer2
10
4.7082064
20
-9.0138549
11
4.7261622
21
-8.8315152
0
LINE
8
layer2
10
4.7261622
20
-8.8315152
11
4.749661
21
-8.6650073
0
LINE
8
layer2
10
4.749661
20
-8.6650073
11
4.7768434
21
-8.5174176
0
LINE
8
layer2
10
4.7768434
20
-8.5174176
11
4.8067877
21
-8.3859998
0
LINE
8
layer2
10
4.8067877
20
-8.3859998
11
4.8373741
21
-8.2736885
0
LINE
8
layer2
10
4.8373741
20
-8.2736885
11
4.8677582
21
-8.1779542
0
LINE
8
layer2
10
4.8677582
20
-8.1779542
11
4.8963844
21
-8.0992365
0
LINE
8
layer2
10
4.8963844
20
-8.0992365
11
4.9445415
21
-7.9880226
0
LINE
8
layer2
10
4.9445415
20
-7.9880226
11
5.0007386
21
-7.8839974
0
LINE
8
layer2
10
5.0007386
20
-7.8839974
11
5.0469403
21
-7.7825863
0
LINE
8
layer2
10
5.0469403
20
-7.7825863
11
5.0763753
21
-7.6916629
0
LINE
8
layer2
10
5.0763753
20
-7.6916629
11
5.0851158
21
-7.6505235
0
LINE
8
layer2
10
5.0851158
20
-7.6505235
11
5.0900382
21
-7.6124444
0
LINE
8
layer2
10
5.0900382
20
-7.6124444
11
5.0912751
21
-7.5775836
0
LINE
8
layer2
10
5.0912751
20
-7.5775836
11
5.0889765
21
-7.5460748
0
LINE
8
layer2
10
5.0889765
20
-7.5460748
11
5.0832681
21
-7.5180343
0
LINE
8
layer2
10
5.0832681
20
-7.5180343
11
5.0743081
21
-7.4936015
0
LINE
8
layer2
10
5.0743081
20
-7.4936015
11
5.0622444
21
-7.4728963
0
LINE
8
layer2
10
5.0622444
20
-7.4728963
11
5.0472247
21
-7.4560383
0
LINE
8
layer2
10
5.0472247
20
-7.4560383
11
5.0341125
21
-7.4459803
0
LINE
8
layer2
10
5.0341125
20
-7.4459803
11
4.9109815
21
-7.362404
0
LINE
8
layer2
10
4.9109815
20
-7.362404
11
4.739322
21
-7.2407021
0
LINE
8
layer2
10
4.739322
20
-7.2407021
11
4.5705309
21
-7.1150522
0
LINE
8
layer2
10
4.5705309
20
-7.1150522
11
4.4529956
21
-7.0237741
0
LINE
8
layer2
10
4.4529956
20
-7.0237741
11
4.4393779
21
-7.0144118
0
LINE
8
layer2
10
4.4393779
20
-7.0144118
11
4.4187037
21
-7.0053366
0
LINE
8
layer2
10
4.4187037
20
-7.0053366
11
4.395284
21
-7.0002616
0
LINE
8
layer2
10
4.395284
20
-7.0002616
11
4.3692782
21
-6.9992903
0
LINE
8
layer2
10
4.3692782
20
-6.9992903
11
4.3408461
21
-7.0025263
0
LINE
8
layer2
10
4.3408461
20
-7.0025263
11
4.3101692
21
-7.0100769
0
LINE
8
layer2
10
4.3101692
20
-7.0100769
11
4.2773968
21
-7.0220258
0
LINE
8
layer2
10
4.2773968
20
-7.0220258
11
4.2427025
21
-7.0384745
0
LINE
8
layer2
10
4.2427025
20
-7.0384745
11
4.2062775
21
-7.0594999
0
LINE
8
layer2
10
4.2062775
20
-7.0594999
11
4.1289002
21
-7.1155911
0
LINE
8
layer2
10
4.1289002
20
-7.1155911
11
4.0467296
21
-7.1908693
0
LINE
8
layer2
10
4.0467296
20
-7.1908693
11
3.9651617
21
-7.2764615
0
LINE
8
layer2
10
3.9651617
20
-7.2764615
11
3.8742723
21
-7.3566286
0
LINE
8
layer2
10
3.8742723
20
-7.3566286
11
3.8082533
21
-7.4081789
0
LINE
8
layer2
10
3.8082533
20
-7.4081789
11
3.7265938
21
-7.4666594
0
LINE
8
layer2
10
3.7265938
20
-7.4666594
11
3.6292311
21
-7.5304549
0
LINE
8
layer2
10
3.6292311
20
-7.5304549
11
3.5134986
21
-7.5995439
0
LINE
8
layer2
10
3.5134986
20
-7.5995439
11
3.3815323
21
-7.6710036
0
LINE
8
layer2
10
3.3815323
20
-7.6710036
11
3.2304354
21
-7.7448061
0
LINE
8
layer2
10
3.2304354
20
-7.7448061
11
3.0625688
21
-7.8182291
0
LINE
8
layer2
10
3.0625688
20
-7.8182291
11
2.876863
21
-7.8903968
0
LINE
8
layer2
10
2.876863
20
-7.8903968
11
2.6715128
21
-7.9604425
0
LINE
8
layer2
10
2.6715128
20
-7.9604425
11
2.471264
21
-8.0198377
0
ARC
8
layer2
10
10.0000108
20
0.0000109
40
11
50
223.1909171
51
226.8090836
0
LINE
8
layer2
10
1.9801623
20
-7.528736
11
2.0395575
21
-7.3284872
0
LINE
8
layer2
10
2.0395575
20
-7.3284872
11
2.1096032
21
-7.123137
0
LINE
8
layer2
10
2.1096032
20
-7.123137
11
2.1817709
21
-6.9374312
0
LINE
8
layer2
10
2.1817709
20
-6.9374312
11
2.2551939
21
-6.7695646
0
LINE
8
layer2
10
2.2551939
20
-6.7695646
11
2.3289964
21
-6.6184677
0
LINE
8
layer2
10
2.3289964
20
-6.6184677
11
2.4004561
21
-6.4865014
0
LINE
8
layer2
10
2.4004561
20
-6.4865014
11
2.4695451
21
-6.3707689
0
LINE
8
layer2
10
2.4695451
20
-6.3707689
11
2.5333406
21
-6.2734062
0
LINE
8
layer2
10
2.5333406
20
-6.2734062
11
2.5918211
21
-6.1917467
0
LINE
8
layer2
10
2.5918211
20
-6.1917467
11
2.6433714
21
-6.1257277
0
LINE
8
layer2
10
2.6433714
20
-6.1257277
11
2.7235385
21
-6.0348383
0
LINE
8
layer2
10
2.7235385
20
-6.0348383
11
2.8091307
21
-5.9532704
0
LINE
8
layer2
10
2.8091307
20
-5.9532704
11
2.8844089
21
-5.8710998
0
LINE
8
layer2
10
2.8844089
20
-5.8710998
11
2.9405001
21
-5.7937225
0
LINE
8
layer2
10
2.9405001
20
-5.7937225
11
2.9615255
21
-5.7572975
0
LINE
8
layer2
10
2.9615255
20
-5.7572975
11
2.9779742
21
-5.7226032
0
LINE
8
layer2
10
2.9779742
20
-5.7226032
11
2.9899231
21
-5.6898308
0
LINE
8
layer2
10
2.9899231
20
-5.6898308
11
2.9974737
21
-5.6591539
0
LINE
8
layer2
10
2.9974737
20
-5.6591539
11
3.0007097
21
-5.6307218
0
LINE
8
layer2
10
3.0007097
20
-5.6307218
11
2.9997384
21
-5.604716
0
LINE
8
layer2
10
2.9997384
20
-5.604716
11
2.9946634
21
-5.5812963
0
LINE
8
layer2
10
2.9946634
20
-5.5812963
11
2.9855882
21
-5.5606221
0
LINE
8
layer2
10
2.9855882
20
-5.5606221
11
2.9762259
21
-5.5470044
0
LINE
8
layer2
10
2.9762259
20
-5.5470044
11
2.8849478
21
-5.4294691
0
LINE
8
layer2
10
2.8849478
20
-5.4294691
11
2.7592979
21
-5.260678
0
LINE
8
layer2
10
2.7592979
20
-5.260678
11
2.637596
21
-5.0890185
0
LINE
8
layer2
10
2.637596
20
-5.0890185
11
2.5540197
21
-4.9658875
0
LINE
8
layer2
10
2.5540197
20
-4.9658875
11
2.5439617
21
-4.9527753
0
LINE
8
layer2
10
2.5439617
20
-4.9527753
11
2.5271037
21
-4.9377556
0
LINE
8
layer2
10
2.5271037
20
-4.9377556
11
2.5063985
21
-4.9256919
0
LINE
8
layer2
10
2.5063985
20
-4.9256919
11
2.4819657
21
-4.9167319
0
LINE
8
layer2
10
2.4819657
20
-4.9167319
11
2.4539252
21
-4.9110235
0
LINE
8
layer2
10
2.4539252
20
-4.9110235
11
2.4224164
21
-4.9087249
0
LINE
8
layer2
10
2.4224164
20
-4.9087249
11
2.3875556
21
-4.9099618
0
LINE
8
layer2
10
2.3875556
20
-4.9099618
11
2.3494765
21
-4.9148842
0
LINE
8
layer2
10
2.3494765
20
-4.9148842
11
2.3083371
21
-4.9236247
0
LINE
8
layer2
10
2.3083371
20
-4.9236247
11
2.2174137
21
-4.9530597
0
LINE
8
layer2
10
2.2174137
20
-4.9530597
11
2.1160026
21
-4.9992614
0
LINE
8
layer2
10
2.1160026
20
-4.9992614
11
2.0119774
21
-5.0554585
0
LINE
8
layer2
10
2.0119774
20
-5.0554585
11
1.9007635
21
-5.1036156
0
LINE
8
layer2
10
1.9007635
20
-5.1036156
11
1.8220458
21
-5.1322418
0
LINE
8
layer2
10
1.8220458
20
-5.1322418
11
1.7263115
21
-5.1626259
0
LINE
8
layer2
10
1.7263115
20
-5.1626259
11
1.6140002
21
-5.1932123
0
LINE
8
layer2
10
1.6140002
20
-5.1932123
11
1.4825824
21
-5.2231566
0
LINE
8
layer2
10
1.4825824
20
-5.2231566
11
1.3349927
21
-5.250339
0
LINE
8
layer2
10
1.3349927
20
-5.250339
11
1.1684848
21
-5.2738378
0
LINE
8
layer2
10
1.1684848
20
-5.2738378
11
0.9861451
21
-5.2917936
0
LINE
8
layer2
10
0.9861451
20
-5.2917936
11
0.7872274
21
-5.3030429
0
LINE
8
layer2
10
0.7872274
20
-5.3030429
11
0.5702824
21
-5.3062036
0
LINE
8
layer2
10
0.5702824
20
-5.3062036
11
0.3614804
21
-5.3008115
0
ARC
8
layer2
10
10.0000135
20
0.0000072
40
11
50
205.1909182
51
208.8090845
0
LINE
8
layer2
10
0.0461737
20
-4.6819873
11
0.1645422
21
-4.5098935
0
LINE
8
layer3
10
-1.05
20
-10.5923449
11
1
21
-9.8462059
0
LINE
8
layer3
10
1
20
-9.8462059
11
1
21
-9.00335
0
LINE
8
layer3
10
1
20
-9.00335
11
-1.05
21
-8.2572111
0
LINE
8
layer3
10
-1.05
20
-8.2572111
11
-1.05
21
-7.4507522
0
LINE
8
layer3
10
-1.05
20
-7.4507522
11
1
21
-6.7046132
0
LINE
8
layer3
10
1
20
-6.7046132
11
1
21
-5.8617574
0
LINE
8
layer3
10
1
20
-5.8617574
11
-1.05
21
-5.1156184
0
LINE
8
layer3
10
-1.05
20
-5.1156184
11
-1.05
21
-4.3091596
0
LINE
8
layer3
10
-1.05
20
-4.3091596
11
1
21
-3.5630206
0
LINE
8
layer3
10
1
20
-3.5630206
11
1
21
-2.7201647
0
LINE
8
layer3
10
1
20
-2.7201647
11
-1.05
21
-1.9740257
0
LINE
8
layer3
10
-1.05
20
-1.9740257
11
-1.05
21
-1.1675669
0
LINE
8
layer3
10
-1.05
20
-1.1675669
11
1
21
-0.4214279
0
LINE
8
layer3
10
1
20
-0.4214279
11
1
21
0.4214279
0
LINE
8
layer3
10
1
20
0.4214279
11
-1.05
21
1.1675669
0
LINE
8
layer3
10
-1.05
20
1.1675669
11
-1.05
21
1.9740257
0
LINE
8
layer3
10
-1.05
20
1.9740257
11
1
21
2.7201647
0
LINE
8
layer3
10
1
20
2.7201647
11
1
21
3.5630206
0
LINE
8
layer3
10
1
20
3.5630206
11
-1.05
21
4.3091596
0
LINE
8
layer3
10
-1.05
20
4.3091596
11
-1.05
21
5.1156184
0
LINE
8
layer3
10
-1.05
20
5.1156184
11
1
21
5.8617574
0
LINE
8
layer3
10
1
20
5.8617574
11
1
21
6.7046132
0
LINE
8
layer3
10
1
20
6.7046132
11
-1.05
21
7.4507522
0
LINE
8
layer3
10
-1.05
20
7.4507522
11
-1.05
21
8.2572111
0
LINE
8
layer3
10
-1.05
20
8.2572111
11
1
21
9.00335
0
LINE
8
layer3
10
1
20
9.00335
11
1
21
9.8462059
0
LINE
8
layer3
10
1
20
9.8462059
11
-1.05
21
10.5923449
0
LINE
8
layer3
10
-1.05
20
10.5923449
11
-2.6207963
21
10.5923449
0
LINE
8
layer3
10
-2.6207963
20
10.5923449
11
-2.6207963
21
-10.5923449
0
LINE
8
layer3
10
-2.6207963
20
-10.5923449
11
-1.05
21
-10.5923449
0
ENDSEC
0
EOF